<?xml version="1.0"?>
<svg xmlns="http://www.w3.org/2000/svg" id="Outline" viewBox="0 0 512 512" width="512" height="512"><path d="M24,184H128V328a8,8,0,0,0,8,8h40v16H104a8,8,0,0,0-7.311,4.751l-32,72A8,8,0,0,0,72,440h33.814a71.99,71.99,0,1,0,138.058-40h48.256a71.992,71.992,0,1,0,139.417,32H488a8,8,0,0,0,7.155-11.578l-16-32A8,8,0,0,0,472,384H448V328a40.068,40.068,0,0,0-32-39.195V24a8,8,0,0,0-8-8H312.984a50.172,50.172,0,0,0-48.745,38.06A8,8,0,0,0,272,64H400v56a40.045,40.045,0,0,0-40,40v48H296a8,8,0,0,0-8,8v72H235.235l41.538-120H304v16a8,8,0,0,0,16,0V136a8,8,0,0,0-16,0v16H282.312L303.56,90.617A8,8,0,0,0,296,80H264a8,8,0,0,0-7.56,5.383L186.3,288H176V24a8,8,0,0,0-8-8H136a8,8,0,0,0-8,8V64H40a8,8,0,0,0-8,8v96H24a8,8,0,0,0,0,16ZM467.056,400l8,16H448V400ZM84.311,424,109.2,368h21.616A71.883,71.883,0,0,0,104,424ZM176,480a56,56,0,1,1,56-56A56.063,56.063,0,0,1,176,480Zm59.833-96A72.195,72.195,0,0,0,192,353.814V304H400v60.167A71.9,71.9,0,0,0,300.167,384ZM360,480a56,56,0,1,1,56-56A56.063,56.063,0,0,1,360,480Zm72-152v88h-.455A71.655,71.655,0,0,0,416,378.815V305.376A24.039,24.039,0,0,1,432,328ZM283.992,48a34.194,34.194,0,0,1,28.992-16H400V48ZM376,160a24.028,24.028,0,0,1,24-24v72H376Zm-72,64h96v16H304Zm0,32h96v32H304ZM269.7,96h15.069L218.3,288H203.235ZM144,32h16V296a8,8,0,0,0,8,8h8v16H144ZM128,168H96V80h32ZM48,80H80v88H48Z"/><path d="M176,400a24,24,0,1,0,24,24A24.028,24.028,0,0,0,176,400Zm0,32a8,8,0,1,1,8-8A8.009,8.009,0,0,1,176,432Z"/><path d="M360,400a24,24,0,1,0,24,24A24.028,24.028,0,0,0,360,400Zm0,32a8,8,0,1,1,8-8A8.009,8.009,0,0,1,360,432Z"/></svg>
