<?xml version="1.0" standalone="no"?>
<!DOCTYPE svg PUBLIC "-//W3C//DTD SVG 20010904//EN"
 "http://www.w3.org/TR/2001/REC-SVG-20010904/DTD/svg10.dtd">
<svg version="1.0" xmlns="http://www.w3.org/2000/svg"
 width="683.000000pt" height="683.000000pt" viewBox="0 0 683.000000 683.000000"
 preserveAspectRatio="xMidYMid meet">
<metadata>
Created by potrace 1.15, written by Peter Selinger 2001-2017
</metadata>
<g transform="translate(0.000000,683.000000) scale(0.100000,-0.100000)"
fill="#000000" stroke="none">
<path d="M3345 6809 c-443 -241 -3285 -1816 -3299 -1828 -49 -43 -46 97 -46
-2473 0 -2308 1 -2405 18 -2437 10 -19 34 -43 53 -53 32 -17 157 -18 3344 -18
3187 0 3312 1 3344 18 19 10 43 34 53 53 17 32 18 129 18 2437 0 2570 3 2430
-46 2473 -11 9 -298 171 -639 359 -448 248 -631 344 -660 347 -30 4 -48 -1
-75 -19 -73 -49 -87 -139 -31 -198 14 -16 286 -171 603 -347 l578 -318 0
-2267 0 -2268 -290 0 -290 0 0 2103 c0 1981 -1 2104 -18 2137 -9 19 -32 45
-51 57 l-34 23 -2462 0 -2462 0 -34 -23 c-68 -45 -69 -53 -69 -424 0 -371 4
-395 64 -432 58 -36 115 -31 164 13 l37 34 3 281 3 281 2294 0 2295 0 0 -2025
0 -2025 -280 0 -280 0 0 698 0 698 -26 52 c-14 29 -44 67 -66 86 -72 62 -98
66 -420 66 l-288 0 0 698 0 698 -26 52 c-14 29 -44 67 -66 86 -79 68 -54 66
-847 65 -522 0 -725 -4 -748 -12 -60 -22 -117 -72 -148 -128 l-30 -54 -3 -702
-3 -703 -287 0 c-334 0 -354 -4 -431 -79 -84 -82 -81 -48 -81 -833 l0 -688
-280 0 -280 0 0 1263 c0 1217 -1 1263 -19 1293 -54 88 -185 79 -233 -17 -17
-32 -18 -114 -18 -1286 l0 -1253 -290 0 -290 0 0 2268 0 2267 1546 855 c851
470 1559 861 1574 869 27 13 43 5 574 -289 533 -295 548 -302 592 -297 108 12
158 138 85 215 -14 16 -163 104 -331 197 -168 92 -426 235 -575 318 -297 165
-322 174 -390 136z m-335 -3806 c0 -109 5 -215 10 -235 6 -20 26 -50 46 -67
l35 -31 314 0 314 0 35 31 c20 17 40 47 46 67 5 20 10 126 10 235 l0 197 130
0 130 0 0 -665 0 -665 -665 0 -665 0 0 665 0 665 130 0 130 0 0 -197z m538 65
l-3 -133 -130 0 -130 0 -3 133 -3 132 136 0 136 0 -3 -132z m-1338 -1660 c1
-228 6 -262 54 -305 l36 -33 310 0 c339 0 348 1 386 57 17 25 19 52 22 251 l3
222 130 0 129 0 0 -665 0 -665 -665 0 -665 0 0 665 0 665 130 0 130 0 0 -192z
m540 57 l0 -136 -132 3 -133 3 -3 133 -3 132 136 0 135 0 0 -135z m1070 -91
l0 -226 39 -39 39 -39 313 0 c430 0 409 -16 409 319 l0 211 130 0 130 0 0
-665 0 -665 -665 0 -665 0 0 665 0 665 135 0 135 0 0 -226z m530 91 l0 -136
-132 3 -133 3 -3 133 -3 132 136 0 135 0 0 -135z"/>
<path d="M3272 6010 c-98 -26 -173 -70 -253 -150 -107 -106 -161 -236 -162
-389 0 -155 54 -284 167 -397 221 -221 561 -221 782 0 115 115 167 240 166
400 -1 159 -63 299 -179 405 -77 72 -140 106 -239 131 -96 25 -187 25 -282 0z
m274 -283 c183 -93 212 -340 57 -477 -141 -124 -364 -77 -448 95 -32 65 -37
168 -11 230 67 159 251 229 402 152z"/>
<path d="M4951 5933 c-102 -51 -92 -205 17 -243 152 -53 245 174 99 243 -44
21 -73 21 -116 0z"/>
<path d="M919 3397 c-93 -62 -83 -191 17 -233 44 -18 68 -18 111 3 45 21 73
67 73 118 0 107 -114 170 -201 112z"/>
</g>
</svg>
