<svg height="512pt" viewBox="0 -54 512 512"
 width="512pt" 
 xmlns="http://www.w3.org/2000/svg">
 <path d="m496.9375 142.242188-25.019531-15.335938v-35.363281c0-4.140625-3.355469-7.5-7.5-7.5h-62.433594l-129.5-79.367188c-10.167969-6.234375-22.800781-6.234375-32.972656 0l-129.496094 79.367188h-62.433594c-4.144531 0-7.5 3.359375-7.5 7.5v35.363281l-25.019531 15.335938c-9.292969 5.691406-15.0625 16-15.0625 26.898437v210.984375c0 12.976562 10.558594 23.53125 23.53125 23.53125h464.9375c12.976562 0 23.53125-10.558594 23.53125-23.53125v-210.984375c0-10.898437-5.769531-21.207031-15.0625-26.898437zm-7.839844 12.789062c.34375.210938.679688.4375 1.003906.667969l-18.183593 11.144531v-22.34375zm-241.746094-137.566406c5.335938-3.269532 11.960938-3.269532 17.296876 0l108.632812 66.578125h-234.558594zm209.566407 81.578125v76.996093l-11.039063 6.765626c-3.53125 2.167968-4.640625 6.785156-2.476562 10.316406 1.414062 2.308594 3.878906 3.582031 6.402344 3.582031 1.335937 0 2.6875-.359375 3.910156-1.105469l43.28125-26.527344c0 .023438.003906.046876.003906.070313v210.984375c0 .84375-.128906 1.652344-.355469 2.421875l-173.976562-106.632813 102.136719-62.597656c3.53125-2.167968 4.640624-6.785156 2.476562-10.316406s-6.78125-4.640625-10.3125-2.472656l-9.28125 5.6875c.0625-.808594.101562-1.621094.101562-2.445313 0-17.394531-14.152343-31.546875-31.546874-31.546875-17.394532 0-31.546876 14.152344-31.546876 31.546875 0 13.113281 8.039063 24.375 19.449219 29.132813l-55.828125 34.214844-1.839844-1.125c13.503907-16.394532 21.152344-38.644532 21.152344-62.222657 0-30.207031-12.546875-56.890625-31.597656-72.660156h88.226562c4.144532 0 7.5-3.359375 7.5-7.5 0-4.144531-3.355468-7.5-7.5-7.5h-256.515624c-4.140626 0-7.5 3.355469-7.5 7.5 0 4.140625 3.359374 7.5 7.5 7.5h88.226562c-19.050781 15.769531-31.597656 42.453125-31.597656 72.660156 0 23.652344 7.617187 45.851563 21.128906 62.238281l-1.816406 1.109376-55.824219-34.214844c11.40625-4.757813 19.449219-16.019532 19.449219-29.132813 0-17.394531-14.152344-31.546875-31.546875-31.546875-17.398438 0-31.550781 14.152344-31.550781 31.546875 0 .824219.042968 1.636719.105468 2.445313l-49.234375-30.175782v-76.996093zm-296.722657 203.527343c-2.167968-3.53125-6.785156-4.640624-10.316406-2.476562l-134.523437 82.453125c-.226563-.769531-.355469-1.582031-.355469-2.421875v-210.984375c0-.027344.003906-.050781.003906-.074219l174.328125 106.847656-12.191406 7.472657c-3.53125 2.164062-4.640625 6.78125-2.476563 10.3125 2.164063 3.53125 6.78125 4.640625 10.316407 2.476562l62.371093-38.230469c5.335938-3.269531 11.960938-3.269531 17.296876 0l213.261718 130.710938h-443.820312l123.628906-75.773438c3.53125-2.164062 4.640625-6.78125 2.476562-10.3125zm-40.984374-98.800781c0-9.125 7.421874-16.546875 16.546874-16.546875s16.546876 7.421875 16.546876 16.546875-7.421876 16.546875-16.546876 16.546875-16.546874-7.421875-16.546874-16.546875zm136.789062-72.660156c31.226562 0 56.628906 32.59375 56.628906 72.660156 0 20.917969-6.910156 40.472657-19.070312 54.300781l-18.785156-11.511718c7.796874-4.515625 12.773437-11.832032 12.773437-20.242188 0-19.53125-18.207031-25.855468-29.085937-29.632812-16.265626-5.648438-19.007813-9.332032-19.007813-15.460938 0-4.746094 6.792969-10.035156 16.546875-10.035156s16.546875 5.289062 16.546875 10.035156c0 4.144532 3.359375 7.5 7.5 7.5 4.144531 0 7.5-3.355468 7.5-7.5 0-11.980468-10.09375-21.738281-24.046875-24.34375v-1.207031c0-4.140625-3.359375-7.5-7.5-7.5s-7.5 3.359375-7.5 7.5v1.207031c-13.953125 2.605469-24.046875 12.363282-24.046875 24.34375 0 19.53125 18.207031 25.855469 29.085937 29.632813 16.265626 5.644531 19.007813 9.332031 19.007813 15.457031 0 4.75-6.792969 10.035156-16.546875 10.035156s-16.546875-5.289062-16.546875-10.035156c0-4.140625-3.359375-7.5-7.5-7.5-4.144531 0-7.5 3.359375-7.5 7.5 0 8.414062 4.976563 15.730469 12.773437 20.246094l-18.769531 11.503906c-12.171875-13.820312-19.085937-33.304688-19.085937-54.292969 0-40.066406 25.402344-72.660156 56.628906-72.660156zm103.691406 72.660156c0-9.125 7.425782-16.546875 16.550782-16.546875s16.546874 7.421875 16.546874 16.546875-7.421874 16.546875-16.546874 16.546875-16.550782-7.421875-16.550782-16.546875zm-319.609375-59.269531v22.34375l-18.183593-11.144531c.328124-.234375.660156-.460938 1.003906-.671875zm0 0"/><path d="m416.324219 131.109375h16.03125c4.140625 0 7.5-3.359375 7.5-7.5 0-4.144531-3.359375-7.5-7.5-7.5h-16.03125c-4.144531 0-7.5 3.355469-7.5 7.5 0 4.140625 3.355469 7.5 7.5 7.5zm0 0"/>
 <path d="m79.644531 131.109375h16.03125c4.144531 0 7.5-3.359375 7.5-7.5 0-4.144531-3.355469-7.5-7.5-7.5h-16.03125c-4.140625 0-7.5 3.355469-7.5 7.5 0 4.140625 3.359375 7.5 7.5 7.5zm0 0"/></svg>