<svg id="Layer_1" height="512" viewBox="0 0 512 512" width="512" xmlns="http://www.w3.org/2000/svg" data-name="Layer 1"><path d="m109.43 293.25a165.339 165.339 0 0 1 91.91-280.35 165.338 165.338 0 1 0 0 326.874 164.582 164.582 0 0 1 -91.91-46.524z" fill="#d4e1f4"/><path d="m376.223 309.282a6 6 0 0 0 -8.485 0l-24.986 24.985-41.1-41.1a171.155 171.155 0 0 0 -4.152-237.983c-66.805-66.8-175.5-66.8-242.311 0s-66.8 175.505 0 242.311a171.322 171.322 0 0 0 237.987 4.161l41.1 41.1-24.985 24.986a6 6 0 0 0 0 8.485l116.903 116.909a47.335 47.335 0 0 0 66.942-66.942zm-87.214-20.273a159.338 159.338 0 0 1 -225.34 0c-62.126-62.126-62.126-163.213 0-225.34a159.339 159.339 0 1 1 225.34 225.34zm33 82.971 49.97-49.97 20.743 20.743-49.97 49.97zm162.642 112.67a35.333 35.333 0 0 1 -49.97 0l-83.442-83.442 49.971-49.971 83.44 83.443a35.333 35.333 0 0 1 0 49.97z" fill="#0635c9"/><g fill="#1ae5be"><path d="m306.9 179.073a6 6 0 0 0 0-5.468 146.64 146.64 0 0 0 -261.125 0 6 6 0 0 0 0 5.468 146.639 146.639 0 0 0 261.125 0zm-249-2.734a134.638 134.638 0 0 1 236.884 0 134.638 134.638 0 0 1 -236.884 0z"/><path d="m203.426 176.339a27.008 27.008 0 0 0 -.435-4.849 6 6 0 0 0 -8.611-4.274 6.517 6.517 0 0 1 -2.968.7 6.659 6.659 0 0 1 -6.652-6.651 6.51 6.51 0 0 1 .7-2.967 6 6 0 0 0 -4.274-8.612 27.088 27.088 0 1 0 22.237 26.651zm-42.174 0a15.115 15.115 0 0 1 11.513-14.659 18.675 18.675 0 0 0 18.235 18.234 15.089 15.089 0 0 1 -29.747-3.575z"/><path d="m197.951 219.378a48.149 48.149 0 1 0 -21.612 5.135 47.9 47.9 0 0 0 21.612-5.135zm-57.785-43.039a35.592 35.592 0 0 1 3.861-16.232 36.164 36.164 0 1 1 48.525 48.554 35.573 35.573 0 0 1 -16.213 3.852 36.214 36.214 0 0 1 -36.173-36.174z"/></g></svg>