<?xml version="1.0" standalone="no"?>
<!DOCTYPE svg PUBLIC "-//W3C//DTD SVG 20010904//EN"
 "http://www.w3.org/TR/2001/REC-SVG-20010904/DTD/svg10.dtd">
<svg version="1.0" xmlns="http://www.w3.org/2000/svg"
 width="500.000000pt" height="500.000000pt" viewBox="0 0 256.000000 197.000000"
 preserveAspectRatio="xMidYMid meet">
<metadata>
Created by potrace 1.15, written by Peter Selinger 2001-2017
</metadata>
<g transform="translate(0.000000,197.000000) scale(0.100000,-0.100000)"
fill="#0062AE" stroke="none">
<path d="M666 1647 c-366 -123 -603 -208 -609 -218 -6 -9 -7 -28 -3 -42 5 -23
20 -30 136 -68 71 -23 135 -46 141 -50 9 -5 5 -19 -13 -51 -33 -57 -55 -127
-67 -212 -8 -57 -15 -75 -42 -102 -54 -56 -48 -162 11 -194 24 -13 25 -36 5
-115 -25 -98 -97 -233 -164 -305 l-60 -65 22 -19 c12 -10 55 -34 94 -53 64
-31 76 -34 104 -24 57 20 97 59 131 128 29 60 33 78 36 167 2 56 -1 141 -6
190 -10 85 -9 90 14 123 40 59 29 139 -24 179 -37 27 36 246 100 299 49 41
142 84 428 198 387 153 391 154 426 101 11 -15 11 -24 1 -44 -10 -20 -39 -34
-142 -71 -120 -43 -296 -111 -489 -190 -62 -26 -75 -35 -60 -40 10 -4 159 -54
331 -110 l311 -103 611 203 c576 191 611 204 617 228 4 14 3 33 -3 42 -9 15
-1189 419 -1223 419 -8 0 -285 -91 -614 -201z"/>
<path d="M1665 954 c-203 -68 -377 -124 -385 -124 -9 0 -178 54 -375 120 -198
66 -368 120 -377 120 -12 0 -19 -11 -23 -37 -3 -21 -8 -48 -11 -60 -3 -16 7
-35 32 -63 63 -70 76 -165 33 -239 -11 -19 -18 -40 -15 -47 10 -25 125 -92
213 -124 144 -52 288 -72 513 -73 107 0 232 5 278 12 255 38 447 126 500 231
20 41 22 57 22 227 0 168 -1 183 -17 182 -10 0 -184 -57 -388 -125z"/>
</g>
</svg>
