<?xml version="1.0" standalone="no"?>
<!DOCTYPE svg PUBLIC "-//W3C//DTD SVG 20010904//EN"
 "http://www.w3.org/TR/2001/REC-SVG-20010904/DTD/svg10.dtd">
<svg version="1.0" xmlns="http://www.w3.org/2000/svg"
 width="500.000000pt" height="500.000000pt" viewBox="0 0 2957.000000 2892.000000"
 preserveAspectRatio="xMidYMid meet">
<metadata>
Created by potrace 1.15, written by Peter Selinger 2001-2017
</metadata>
<g transform="translate(0.000000,2892.000000) scale(0.100000,-0.100000)"
fill="#0062AE" stroke="none">
<path d="M2810 26804 c-14 -2 -59 -9 -100 -15 -427 -61 -868 -301 -1157 -629
-298 -338 -466 -708 -525 -1155 -19 -148 -19 -15406 0 -15540 38 -259 97 -455
202 -670 312 -639 911 -1060 1601 -1125 80 -8 1691 -10 5464 -8 5072 3 5355 4
5445 21 221 41 392 97 573 188 424 212 773 589 958 1037 28 68 48 129 46 135
-2 7 -58 23 -123 36 -157 31 -450 103 -598 147 -65 19 -120 34 -121 32 -1 -2
-12 -25 -24 -53 -40 -91 -147 -238 -238 -326 -201 -196 -425 -298 -708 -320
-74 -6 -2121 -8 -5375 -7 l-5255 3 -90 22 c-479 112 -831 501 -894 988 -9 68
-11 1940 -9 7730 l3 7640 27 100 c82 305 252 545 503 707 104 67 200 109 334
147 l96 26 5380 0 5380 0 100 -27 c117 -32 281 -110 375 -176 206 -147 380
-397 445 -643 42 -162 45 -227 45 -999 l0 -736 246 62 c136 34 329 76 430 95
l184 33 0 691 c0 835 -6 905 -106 1205 -102 307 -251 554 -474 784 -289 298
-618 481 -1030 573 l-125 28 -5430 1 c-2986 1 -5441 0 -5455 -2z"/>
<path d="M4137 24783 c-4 -3 -7 -303 -7 -665 l0 -658 4100 0 4100 0 -2 663 -3
662 -4091 3 c-2250 1 -4094 -1 -4097 -5z"/>
<path d="M16070 23392 c-14 -2 -66 -16 -116 -32 -55 -18 -166 -39 -280 -55
-1008 -140 -1883 -447 -2744 -963 -717 -429 -1378 -996 -1895 -1627 -891
-1086 -1437 -2418 -1565 -3820 -34 -371 -32 -865 5 -1246 145 -1516 768 -2934
1781 -4059 124 -138 432 -444 564 -561 1027 -911 2319 -1526 3670 -1748 473
-78 690 -95 1220 -96 428 0 544 5 855 41 1465 166 2851 765 3945 1705 1217
1045 2056 2474 2354 4006 97 500 132 909 123 1453 -7 430 -36 728 -107 1124
-294 1626 -1152 3094 -2434 4165 -693 579 -1525 1042 -2394 1330 -349 116
-606 178 -1066 257 -144 25 -362 63 -486 85 -124 23 -272 43 -330 46 -152 8
-530 -14 -582 -34 -62 -22 -199 -21 -267 2 -53 17 -200 33 -251 27z m1235
-1596 c1068 -115 2021 -486 2850 -1106 223 -167 382 -307 606 -530 240 -239
355 -370 529 -601 462 -613 772 -1270 954 -2019 189 -774 204 -1609 45 -2365
-269 -1279 -994 -2421 -2061 -3248 -914 -708 -1986 -1111 -3158 -1188 -224
-14 -689 -7 -906 15 -1181 120 -2219 555 -3129 1312 -167 139 -550 522 -689
689 -767 922 -1199 1980 -1286 3145 -13 176 -13 597 1 775 69 928 378 1828
897 2609 352 530 810 1014 1327 1399 875 654 1900 1037 3010 1126 175 15 835
6 1010 -13z"/>
<path d="M15270 21379 c-182 -50 -396 -121 -567 -189 l-133 -53 0 -4862 0
-4863 133 -53 c165 -65 415 -147 572 -189 66 -17 128 -34 138 -36 16 -5 17
244 17 5140 0 2830 -3 5146 -7 5145 -5 0 -73 -18 -153 -40z"/>
<path d="M12654 18763 c-291 -278 -554 -530 -585 -560 l-56 -55 -108 156 c-59
86 -111 159 -115 161 -8 5 -140 -296 -140 -319 0 -11 283 -430 310 -460 7 -7
891 830 1306 1236 l122 119 -103 113 -103 114 -528 -505z"/>
<path d="M20944 17839 c-121 -72 -303 -180 -407 -241 -103 -61 -196 -122 -207
-135 -34 -43 -26 -95 36 -238 99 -229 167 -466 195 -680 15 -115 14 -386 -1
-540 -40 -408 -137 -759 -305 -1100 -182 -370 -449 -706 -783 -984 -119 -99
-132 -114 -132 -156 0 -34 11 -54 128 -237 54 -84 154 -243 221 -353 68 -110
133 -210 144 -222 35 -39 90 -31 183 25 177 106 348 258 584 517 308 339 501
618 679 987 206 423 325 863 371 1363 39 427 -33 1100 -167 1560 -54 188 -185
488 -235 543 -40 42 -69 32 -304 -109z"/>
<path d="M12664 15804 c-285 -273 -549 -525 -585 -561 l-66 -64 -187 271 -187
270 -32 -22 c-18 -12 -74 -53 -124 -91 l-93 -69 54 -77 c29 -42 156 -224 281
-406 125 -181 231 -334 235 -338 8 -9 1420 1337 1420 1353 0 5 -43 58 -97 117
-53 59 -97 109 -98 111 -1 1 -235 -221 -521 -494z"/>
<path d="M12914 13073 c-148 -142 -270 -262 -271 -268 -2 -5 43 -59 100 -118
l102 -108 268 256 c147 141 267 261 267 267 0 5 -43 58 -97 116 -53 59 -97
108 -98 110 -1 1 -123 -113 -271 -255z"/>
<path d="M2360 20840 l0 -490 4043 0 4043 0 52 74 52 74 0 416 0 416 -4095 0
-4095 0 0 -490z"/>
<path d="M2360 18045 l0 -485 3473 0 3474 0 13 73 c35 196 123 547 195 779 19
60 35 112 35 114 0 2 -1618 4 -3595 4 l-3595 0 0 -485z"/>
<path d="M2360 15250 l0 -490 3501 0 c3291 0 3501 1 3495 17 -25 64 -116 651
-131 838 -3 44 -8 90 -11 103 l-4 22 -3425 0 -3425 0 0 -490z"/>
<path d="M2360 12460 l0 -490 4095 0 4095 0 0 47 c0 42 -9 60 -109 207 -122
181 -253 396 -361 594 l-72 132 -3824 0 -3824 0 0 -490z"/>
<path d="M23954 11477 c-571 -838 -1349 -1610 -2214 -2196 -91 -62 -165 -116
-165 -121 0 -6 414 -413 920 -907 506 -493 1351 -1318 1878 -1832 1573 -1537
1668 -1628 1837 -1753 381 -283 877 -382 1369 -272 450 101 841 364 1074 724
72 113 93 156 176 361 89 223 112 302 113 380 2 120 -20 404 -36 479 -44 198
-153 449 -277 636 -61 92 -113 150 -328 365 -215 215 -3583 3514 -4126 4041
l-172 167 -49 -72z"/>
</g>
</svg>
