<?xml version="1.0" standalone="no"?>
<!DOCTYPE svg PUBLIC "-//W3C//DTD SVG 20010904//EN"
 "http://www.w3.org/TR/2001/REC-SVG-20010904/DTD/svg10.dtd">
<svg version="1.0" xmlns="http://www.w3.org/2000/svg"
 width="500.000000pt" height="500.000000pt" viewBox="0 0 320.000000 433.000000"
 preserveAspectRatio="xMidYMid meet">
<metadata>
Created by potrace 1.15, written by Peter Selinger 2001-2017
</metadata>
<g transform="translate(0.000000,433.000000) scale(0.100000,-0.100000)"
fill="#0062AE" stroke="none">
<path d="M465 4190 c-183 -6 -210 -15 -281 -92 -81 -87 -75 47 -72 -1613 l3
-1480 25 -48 c27 -55 70 -96 133 -129 41 -22 51 -23 396 -26 l354 -3 64 63
c34 34 63 66 63 70 0 4 -27 21 -61 39 l-61 33 -335 0 -335 1 -24 28 -24 28 0
1440 0 1440 25 24 24 25 1101 0 1101 0 24 -25 25 -24 0 -740 0 -740 49 -21
c51 -23 109 -76 134 -124 13 -27 15 46 22 719 8 818 6 920 -19 979 -26 63 -82
122 -139 151 l-54 26 -989 2 c-544 1 -1061 0 -1149 -3z"/>
<path d="M635 3488 c-15 -14 -28 -38 -31 -59 -5 -31 -1 -42 24 -70 l30 -34
801 0 801 0 27 27 c39 39 39 100 0 134 l-28 24 -799 0 -799 0 -26 -22z"/>
<path d="M629 2974 c-35 -37 -33 -98 4 -130 l28 -24 799 0 799 0 28 24 c22 19
28 32 28 66 0 34 -6 47 -28 66 l-28 24 -803 0 -803 0 -24 -26z"/>
<path d="M1897 2371 c-51 -50 -105 -94 -119 -100 -20 -7 -58 -5 -145 10 -108
19 -121 19 -150 5 -48 -23 -63 -54 -79 -163 -8 -54 -17 -107 -20 -118 -11 -37
-49 -67 -145 -116 -104 -52 -139 -85 -139 -131 0 -15 25 -78 55 -138 30 -60
55 -121 55 -135 0 -14 -25 -76 -56 -137 -84 -167 -76 -186 99 -274 126 -64
128 -67 152 -224 26 -173 49 -189 227 -161 63 11 127 16 143 13 18 -3 55 -33
104 -84 85 -90 114 -108 167 -108 33 0 46 10 128 89 50 49 104 95 119 100 22
9 56 7 144 -9 181 -30 205 -12 234 177 21 139 26 146 160 214 161 80 170 111
84 275 -30 58 -55 116 -55 130 0 13 25 72 55 130 87 168 78 195 -85 278 -64
33 -117 67 -127 82 -9 14 -24 77 -34 141 -15 99 -21 119 -45 144 -37 39 -63
42 -188 20 -73 -12 -119 -16 -139 -10 -17 5 -71 48 -122 99 -90 87 -94 90
-139 90 -45 0 -50 -3 -139 -89z m242 -172 c156 -25 287 -92 396 -203 215 -219
264 -525 128 -806 -38 -79 -59 -108 -132 -180 -72 -72 -102 -94 -181 -133
-210 -103 -419 -103 -630 1 -158 77 -288 223 -345 389 -82 236 -43 474 111
675 148 192 414 296 653 257z"/>
<path d="M1915 2084 c-230 -51 -413 -233 -460 -459 -42 -198 17 -388 164 -536
127 -126 285 -187 456 -175 144 10 274 68 374 167 188 187 234 455 116 689
-68 135 -210 256 -354 300 -88 28 -209 33 -296 14z"/>
<path d="M1148 692 c-176 -176 -190 -199 -150 -235 9 -8 46 -21 82 -27 36 -6
86 -16 111 -21 l46 -10 17 -97 c23 -129 24 -130 51 -148 21 -14 27 -14 52 0
15 8 120 107 233 220 l205 206 -21 20 c-20 21 -21 21 -141 3 -135 -19 -177
-13 -233 33 -42 36 -60 73 -73 156 l-12 69 -167 -169z"/>
<path d="M2745 793 c-9 -75 -25 -111 -66 -150 -62 -58 -99 -63 -260 -36 -98
16 -101 16 -120 -3 -19 -19 -17 -22 204 -242 123 -122 228 -222 234 -222 6 0
22 9 35 20 21 16 28 36 43 125 13 73 23 109 34 114 9 5 60 16 114 26 105 18
127 31 127 73 0 22 -33 60 -163 190 -89 89 -165 162 -168 162 -4 0 -10 -26
-14 -57z"/>
</g>
</svg>
