<?xml version="1.0" standalone="no"?>
<!DOCTYPE svg PUBLIC "-//W3C//DTD SVG 20010904//EN"
 "http://www.w3.org/TR/2001/REC-SVG-20010904/DTD/svg10.dtd">
<svg version="1.0" xmlns="http://www.w3.org/2000/svg"
 width="450.000000pt" height="450.000000pt" viewBox="0 0 450.000000 450.000000"
 preserveAspectRatio="xMidYMid meet">
<metadata>
Created by potrace 1.15, written by Peter Selinger 2001-2017
</metadata>
<g transform="translate(0.000000,450.000000) scale(0.100000,-0.100000)"
fill="#0062AE" stroke="none">
<path d="M1407 3122 l-237 -237 0 -839 0 -838 34 -34 34 -34 796 0 c595 0 802
3 821 12 54 25 55 30 55 507 l0 441 -26 6 c-15 4 -30 2 -37 -5 -9 -9 -13 -132
-17 -444 l-5 -432 -785 0 -785 0 -3 802 -2 802 195 3 195 3 27 28 28 27 3 195
3 195 565 0 564 0 0 -98 c0 -109 10 -136 51 -130 24 3 24 5 27 113 2 67 -2
120 -9 138 -24 58 -13 57 -661 57 l-593 0 -238 -238z m211 -64 l-3 -143 -142
-3 c-110 -2 -143 0 -143 10 0 17 261 278 278 278 10 0 12 -31 10 -142z"/>
<path d="M1480 3045 l-105 -105 108 0 107 0 0 105 c0 58 -1 105 -3 105 -1 0
-49 -47 -107 -105z"/>
<path d="M3050 3028 c-27 -7 -100 -74 -305 -279 l-270 -269 -452 0 c-397 0
-453 -2 -467 -16 -9 -8 -16 -21 -16 -28 0 -34 19 -36 421 -36 273 0 400 -3
404 -11 4 -6 -67 -85 -161 -180 l-168 -169 -239 -2 c-216 -3 -241 -5 -251 -21
-8 -12 -8 -22 0 -35 10 -15 33 -17 198 -20 114 -1 186 -6 186 -12 0 -6 -4 -18
-10 -28 -5 -9 -26 -78 -46 -152 -20 -74 -41 -143 -46 -152 -8 -16 -25 -18
-143 -18 -126 0 -134 -1 -140 -20 -14 -44 7 -50 174 -50 154 0 158 0 326 46
l170 47 539 536 c544 542 576 577 576 646 0 94 -148 241 -235 234 -5 0 -26 -5
-45 -11z m89 -82 c15 -8 46 -35 69 -60 59 -64 58 -100 -4 -166 -26 -28 -52
-50 -58 -50 -6 0 -52 41 -101 90 l-90 91 57 54 c59 58 80 65 127 41z m-146
-244 c48 -48 87 -92 87 -97 0 -6 -198 -208 -440 -450 l-440 -440 -90 90 c-49
49 -90 94 -90 100 0 10 870 885 880 885 3 0 45 -39 93 -88z m-943 -947 c41
-41 61 -68 55 -74 -10 -10 -150 -51 -173 -51 -16 0 -14 10 19 123 11 37 23 67
27 67 4 0 37 -29 72 -65z"/>
<path d="M3037 2891 l-42 -40 70 -70 c38 -39 75 -71 81 -71 20 0 74 69 74 95
0 29 -93 125 -122 125 -10 0 -38 -18 -61 -39z"/>
<path d="M2477 2332 c-229 -229 -417 -422 -417 -427 0 -6 32 -41 71 -80 l70
-69 419 419 c231 231 420 425 420 430 0 10 -131 145 -140 145 -3 0 -193 -188
-423 -418z"/>
</g>
</svg>
