<?xml version="1.0" standalone="no"?>
<!DOCTYPE svg PUBLIC "-//W3C//DTD SVG 20010904//EN"
 "http://www.w3.org/TR/2001/REC-SVG-20010904/DTD/svg10.dtd">
<svg version="1.0" xmlns="http://www.w3.org/2000/svg"
 width="500.000000pt" height="500.000000pt" viewBox="0 0 1300.000000 1300.000000"
 preserveAspectRatio="xMidYMid meet">
<metadata>
Created by potrace 1.15, written by Peter Selinger 2001-2017
</metadata>
<g transform="translate(0.000000,1300.000000) scale(0.100000,-0.100000)"
fill="#c82333" stroke="none">
<path d="M7317 11546 c-41 -15 -72 -39 -90 -71 -8 -13 -14 -111 -17 -285 l-5
-265 -879 -2 c-484 -1 -890 -4 -902 -7 -31 -8 -83 -54 -97 -85 -9 -19 -13
-374 -17 -1349 l-5 -1322 -340 340 c-187 187 -354 347 -372 355 -69 33 -162 6
-202 -59 -22 -34 -22 -41 -24 -610 l-2 -576 -800 -1 c-593 0 -809 -3 -834 -12
-19 -7 -48 -29 -65 -50 l-31 -39 0 -1007 0 -1008 28 -36 c15 -20 38 -42 50
-49 17 -10 206 -14 837 -18 l815 -5 0 -571 c0 -545 1 -572 20 -600 47 -72 100
-94 185 -78 25 5 107 82 382 355 193 192 352 349 354 349 2 0 4 -586 4 -1302
0 -728 4 -1320 9 -1341 5 -22 20 -50 33 -64 49 -52 70 -57 266 -60 111 -2 190
1 202 7 12 7 21 7 25 0 4 -6 249 -10 683 -9 l677 0 5 -263 c5 -282 7 -290 60
-328 69 -49 72 -49 600 71 96 22 236 53 310 69 74 16 234 51 355 78 121 28
236 53 255 57 70 14 435 97 450 102 8 3 24 8 35 10 69 12 159 31 390 83 143
32 338 75 434 96 187 41 222 56 252 114 18 34 19 169 19 4340 0 4171 -1 4306
-19 4340 -28 55 -65 72 -221 107 -439 98 -570 127 -720 159 -91 19 -210 46
-265 59 -55 13 -163 38 -240 55 -126 27 -253 55 -860 190 -99 22 -229 51 -290
64 -223 51 -386 86 -393 86 -4 -1 -24 -7 -45 -14z m318 -371 c39 -9 171 -38
295 -65 124 -27 275 -61 335 -75 61 -14 171 -38 245 -54 144 -31 432 -95 860
-191 146 -33 357 -80 469 -105 112 -25 206 -46 207 -48 2 -2 4 -72 5 -157 0
-101 5 -160 12 -169 9 -11 9 -13 0 -8 -9 6 -12 -25 -11 -132 1 -85 5 -138 11
-134 5 3 4 -4 -2 -15 -17 -31 -15 -3450 1 -3470 9 -11 9 -14 1 -9 -8 5 -12
-21 -12 -103 0 -82 4 -108 12 -103 8 5 8 2 0 -9 -10 -12 -13 -368 -13 -1693 0
-1570 1 -1680 17 -1698 14 -15 14 -18 3 -15 -13 2 -15 -18 -16 -124 0 -76 3
-125 9 -121 5 3 5 -3 -1 -13 -5 -11 -9 -81 -10 -157 0 -76 -2 -140 -4 -143 -3
-2 -94 -24 -204 -49 -366 -82 -568 -127 -744 -165 -186 -41 -591 -130 -700
-155 -36 -8 -132 -30 -215 -49 -82 -19 -215 -48 -295 -65 -80 -17 -192 -42
-250 -55 -58 -13 -106 -23 -108 -22 -1 2 -2 2094 -2 4651 0 4423 -1 4647 -18
4634 -16 -13 -16 -13 1 7 10 13 17 37 17 63 0 36 3 42 18 37 9 -3 49 -12 87
-21z m-472 -574 l47 -1 0 -607 c0 -563 1 -608 18 -627 16 -20 16 -20 0 -7 -17
13 -18 -40 -18 -1069 0 -1029 1 -1082 18 -1069 16 13 16 13 0 -7 -17 -19 -18
-68 -18 -710 0 -538 3 -693 13 -703 10 -11 10 -13 0 -7 -10 6 -13 -229 -13
-1159 0 -930 3 -1165 13 -1159 10 6 10 4 0 -7 -10 -10 -13 -134 -13 -547 l0
-534 -145 4 c-80 1 -145 1 -145 -1 0 -3 10 -16 22 -30 20 -23 19 -23 -8 2
l-32 28 -378 -1 c-280 0 -382 -4 -393 -13 -14 -10 -14 -10 -4 3 10 13 -18 15
-240 15 l-252 0 -3 634 c-2 487 -5 638 -15 649 -9 13 -9 14 1 8 9 -6 12 144
12 737 l0 744 624 624 c669 669 652 650 636 737 -8 47 -30 79 -99 146 l-51 50
-27 -25 -28 -24 25 28 24 28 -552 552 -552 552 0 683 c0 544 -3 682 -12 676
-10 -6 -10 -4 0 7 9 10 12 165 12 705 0 453 3 693 10 696 8 2 1294 1 1523 -1z
m-2436 -2313 c17 -18 426 -428 910 -910 l879 -877 -918 -918 -918 -918 0 523
0 522 -867 2 -868 3 -1 308 -2 308 -23 27 -24 27 25 -22 25 -22 -3 475 -2 474
870 0 870 0 0 515 c0 283 4 515 8 515 5 0 22 -15 39 -32z"/>
<path d="M8107 6890 c-177 -44 -290 -247 -258 -462 55 -359 435 -440 582 -124
61 132 58 279 -7 409 -66 130 -201 205 -317 177z"/>
</g>
</svg>
