<?xml version="1.0" standalone="no"?>
<!DOCTYPE svg PUBLIC "-//W3C//DTD SVG 20010904//EN"
 "http://www.w3.org/TR/2001/REC-SVG-20010904/DTD/svg10.dtd">
<svg version="1.0" xmlns="http://www.w3.org/2000/svg"
 width="500.000000pt" height="500.000000pt" viewBox="0 0 320.000000 331.000000"
 preserveAspectRatio="xMidYMid meet">
<metadata>
Created by potrace 1.15, written by Peter Selinger 2001-2017
</metadata>
<g transform="translate(0.000000,331.000000) scale(0.100000,-0.100000)"
fill="#0062AE" stroke="none">
<path d="M1473 3178 c-5 -7 -22 -29 -37 -49 l-26 -37 114 -80 c63 -45 117 -86
121 -92 3 -5 -51 -90 -121 -187 -107 -151 -124 -180 -115 -196 6 -9 85 -110
174 -224 89 -113 182 -232 206 -265 l45 -58 324 -106 c178 -58 325 -104 326
-102 1 2 58 82 126 178 68 96 125 177 126 178 7 9 125 -81 121 -92 -15 -38
-180 -255 -190 -249 -7 3 -20 13 -30 22 -12 9 -21 12 -25 5 -4 -5 -38 -54 -76
-108 -37 -53 -67 -98 -65 -100 85 -62 163 -116 170 -116 8 0 91 108 133 173
17 25 17 29 2 45 -15 17 -11 25 54 118 39 54 81 113 94 129 l24 30 30 -22 c17
-13 35 -23 39 -23 9 1 78 99 72 104 -27 21 -1587 1130 -1595 1133 -6 2 -15 -2
-21 -9z"/>
<path d="M117 2373 c-4 -3 -7 -341 -7 -750 l0 -743 474 0 474 0 77 53 77 52
-496 3 -496 2 0 640 0 640 630 0 c347 0 630 3 630 7 0 3 -14 28 -31 55 l-31
48 -647 0 c-356 0 -651 -3 -654 -7z"/>
<path d="M988 2002 c-13 -2 -18 -13 -18 -38 l0 -34 340 0 340 0 0 35 c0 29 -4
35 -22 37 -52 3 -624 4 -640 0z"/>
<path d="M710 1735 l0 -45 595 0 595 0 0 45 0 45 -595 0 -595 0 0 -45z"/>
<path d="M2310 1369 c0 -377 0 -379 -21 -379 -27 0 -23 -8 29 -64 32 -35 50
-46 72 -46 l30 0 -2 417 -3 416 -52 18 -53 18 0 -380z"/>
<path d="M710 1535 l0 -45 595 0 595 0 0 45 0 45 -595 0 -595 0 0 -45z"/>
<path d="M710 1340 l0 -40 423 -2 c232 -2 500 -2 595 0 l172 2 0 40 0 40 -595
0 -595 0 0 -40z"/>
<path d="M1659 1246 c-120 -34 -209 -110 -261 -223 -26 -55 -31 -77 -31 -146
-1 -45 5 -104 12 -132 l13 -50 -106 -186 c-107 -186 -118 -219 -74 -219 10 0
64 12 119 27 84 22 102 24 109 13 5 -8 19 -55 31 -105 24 -97 42 -130 67 -116
8 5 59 84 112 177 54 92 101 169 106 171 5 1 53 -73 107 -166 53 -93 104 -174
112 -181 26 -21 41 4 71 120 20 76 33 110 43 110 8 0 58 -12 112 -26 103 -28
129 -27 129 4 0 11 -47 101 -105 200 l-106 181 17 57 c25 88 16 195 -24 277
-42 84 -129 167 -209 197 -71 27 -181 34 -244 16z m236 -85 c69 -32 137 -101
168 -169 16 -35 21 -67 22 -127 0 -68 -4 -89 -29 -139 -60 -122 -165 -189
-296 -190 -66 -1 -84 3 -142 32 -208 102 -255 370 -92 529 68 66 133 92 234
92 62 1 85 -4 135 -28z m-335 -638 c19 -12 54 -27 78 -34 23 -7 42 -15 42 -18
-1 -13 -128 -225 -137 -228 -5 -2 -20 35 -32 81 -15 57 -28 87 -39 90 -9 3
-46 -3 -82 -14 -65 -20 -100 -25 -100 -14 0 5 92 165 127 222 l14 23 47 -43
c26 -24 63 -53 82 -65z m597 -15 c49 -86 67 -124 57 -126 -7 -2 -48 6 -90 18
-55 15 -80 18 -89 10 -7 -6 -21 -43 -30 -83 -10 -40 -21 -78 -25 -85 -4 -9
-30 26 -73 101 -37 63 -67 118 -67 123 0 5 21 17 48 26 61 22 138 73 165 109
11 16 23 29 27 29 3 0 37 -55 77 -122z"/>
<path d="M1705 1055 c-28 -43 -43 -56 -73 -64 -20 -6 -42 -11 -49 -11 -6 0
-19 -7 -27 -16 -18 -18 -12 -35 37 -96 27 -34 29 -42 25 -95 -3 -32 -3 -64 -1
-70 7 -19 34 -16 90 8 l48 21 52 -22 c80 -33 87 -28 91 59 3 66 6 78 38 119
19 25 33 53 32 61 -2 10 -28 24 -66 36 -59 19 -66 25 -94 73 -39 68 -58 68
-103 -3z m138 -119 c32 -8 34 -19 7 -53 -13 -17 -20 -41 -20 -69 l0 -44 -39
16 c-30 12 -44 13 -60 5 -39 -21 -54 -14 -48 23 4 26 0 42 -19 67 -13 18 -24
36 -24 40 0 5 16 11 36 15 27 5 41 15 57 41 l20 35 31 -35 c17 -19 43 -38 59
-41z"/>
</g>
</svg>
