<svg height="448pt" viewBox="0 0 448 448.00377" width="448pt" xmlns="http://www.w3.org/2000/svg"><path d="m40 272h32v24h-32zm0 0"/><path d="m40 232h32v24h-32zm0 0"/><path d="m40 192h32v24h-32zm0 0"/><path d="m40 112v24h32v-32h-24c-4.417969 0-8 3.582031-8 8zm0 0"/><path d="m40 152h32v24h-32zm0 0"/><path d="m40 312h32v24h-32zm0 0"/><path d="m40 368c0 4.417969 3.582031 8 8 8h24v-24h-32zm0 0"/><path d="m352 32h-16v145.425781c5.511719 2.253907 10.859375 4.894531 16 7.894531zm0 0"/><path d="m56 11.3125-44.6875 44.6875h44.6875zm0 0"/><path d="m88 103.96875h128v32.03125h-128zm0 0"/><path d="m280 112c.011719-4.160156-3.191406-7.625-7.34375-7.945312-.332031-.019532-.664062-.0625-.992188-.125h-39.664062v32.070312h48zm0 0"/><path d="m352 416v-9.433594c-6.359375 3.710938-13.03125 6.867188-19.933594 9.433594zm0 0"/><path d="m256 296c0 17.671875 14.328125 32 32 32 17.675781 0 32-14.328125 32-32s-14.324219-32-32-32c-17.671875 0-32 14.328125-32 32zm48 0c0 8.835938-7.160156 16-16 16-8.835938 0-16-7.164062-16-16s7.164062-16 16-16c8.839844 0 16 7.164062 16 16zm0 0"/><path d="m288 344c-1.652344 0-3.304688-.085938-4.949219-.257812-26.054687-.597657-51.230469-9.515626-71.847656-25.453126 9.894531 34.179688 41.191406 57.703126 76.773437 57.703126 35.585938 0 66.882813-23.523438 76.777344-57.703126-20.609375 15.933594-45.78125 24.851563-71.824218 25.453126-1.636719.171874-3.28125.257812-4.929688.257812zm0 0"/><path d="m240 296c.007812-8.5625 2.320312-16.96875 6.699219-24.328125-13.742188 5.265625-26.105469 13.585937-36.160157 24.328125 10.054688 10.742188 22.417969 19.0625 36.160157 24.328125-4.378907-7.359375-6.691407-15.765625-6.699219-24.328125zm0 0"/><path d="m445.378906 432.6875-57.21875-57.214844c-3.738281 4.6875-7.800781 9.105469-12.160156 13.222656l56.683594 56.679688c3.503906 3.503906 9.183594 3.503906 12.6875 0s3.503906-9.183594 0-12.6875zm0 0"/><path d="m288 184c-61.855469 0-112 50.144531-112 112s50.144531 112 112 112c61.859375 0 112-50.144531 112-112-.0625-61.828125-50.167969-111.933594-112-112zm0 208c-53.015625 0-96-42.980469-96-96s42.984375-96 96-96c53.019531 0 96 42.980469 96 96-.054688 52.996094-43.003906 95.941406-96 96zm0 0"/><path d="m160 296c-.160156-39.636719 18.125-77.09375 49.476562-101.351562 31.347657-24.253907 72.199219-32.542969 110.523438-22.433594v-172.214844h-248v64c0 4.417969-3.578125 8-8 8h-64v344h243.882812c-50.316406-18.503906-83.789062-66.386719-83.882812-120zm-56-272h112v16h-112zm112 32v16h-32v-16zm-112 0h64v16h-64zm64 336h-120c-13.253906 0-24-10.746094-24-24v-256c0-13.253906 10.746094-24 24-24h224c.710938-.003906 1.417969.039062 2.121094.128906 12.371094 1.097656 21.863281 11.449219 21.878906 23.871094v40h-64v8h-16v-8h-128v24h104v16h-104v24h72v16h-72v24h57.601562v16h-57.601562v24h56v16h-56v24h64v16h-64v24h80zm0 0"/><path d="m32 432h320v16h-320zm0 0"/><path d="m288 248c1.65625 0 3.308594.085938 4.953125.257812 26.054687.597657 51.230469 9.515626 71.847656 25.453126-9.894531-34.179688-41.191406-57.703126-76.773437-57.703126-35.585938 0-66.882813 23.523438-76.777344 57.703126 20.609375-15.933594 45.78125-24.851563 71.824219-25.453126 1.636719-.171874 3.28125-.257812 4.925781-.257812zm0 0"/><path d="m365.464844 296c-10.054688-10.742188-22.417969-19.0625-36.160156-24.328125 8.929687 14.988281 8.929687 33.667969 0 48.65625 13.742187-5.265625 26.105468-13.585937 36.160156-24.328125zm0 0"/></svg>