<?xml version="1.0" standalone="no"?>
<!DOCTYPE svg PUBLIC "-//W3C//DTD SVG 20010904//EN"
 "http://www.w3.org/TR/2001/REC-SVG-20010904/DTD/svg10.dtd">
<svg version="1.0" xmlns="http://www.w3.org/2000/svg"
 width="500.000000pt" height="500.000000pt" viewBox="0 0 48.000000 48.000000"
 preserveAspectRatio="xMidYMid meet">
<metadata>
Created by potrace 1.15, written by Peter Selinger 2001-2017
</metadata>
<g transform="translate(0.000000,48.000000) scale(0.100000,-0.100000)"
fill="#0062AE" stroke="none">
<path d="M67 449 c-15 -16 -31 -27 -35 -26 -4 1 -8 -26 -10 -60 -2 -52 0 -63
13 -63 13 0 15 -19 15 -125 0 -118 1 -127 23 -149 22 -22 29 -23 171 -22 198
2 186 -14 186 241 l0 194 -26 20 c-23 18 -39 20 -167 19 -141 -1 -142 -2 -170
-29z m331 -1 c17 -17 17 -399 0 -416 -17 -17 -299 -17 -316 0 -8 8 -12 56 -12
150 l0 138 83 0 83 0 -1 43 -1 42 -79 1 c-81 1 -99 10 -75 39 16 20 299 22
318 3z"/>
</g>
</svg>
