<?xml version="1.0" encoding="iso-8859-1"?>
<!-- Generator: Adobe Illustrator 16.0.0, SVG Export Plug-In . SVG Version: 6.00 Build 0)  -->
<!DOCTYPE svg PUBLIC "-//W3C//DTD SVG 1.1//EN" "http://www.w3.org/Graphics/SVG/1.1/DTD/svg11.dtd">
<svg version="1.1" id="Capa_1" xmlns="http://www.w3.org/2000/svg" xmlns:xlink="http://www.w3.org/1999/xlink" x="0px" y="0px"
	 width="431.652px" height="431.652px" viewBox="0 0 431.652 431.652" style="enable-background:new 0 0 431.652 431.652;"
	 xml:space="preserve">
<g>
	<g>
		<path d="M367.885,19.854h-61.699C277.72,6.7,247.334,0.005,215.832,0.005c-31.504,0-61.9,6.695-90.363,19.849H63.767
			c-2.985,0-5.4,2.421-5.4,5.4v43.118C20.73,108.533,0,160.795,0,215.826c0,55.033,20.73,107.293,58.367,147.456v43.115
			c0,2.979,2.415,5.4,5.4,5.4h61.702c28.463,13.151,58.859,19.849,90.363,19.849c31.503,0,61.895-6.697,90.365-19.849h61.699
			c2.979,0,5.4-2.421,5.4-5.4v-43.115c37.626-40.163,58.355-92.423,58.355-147.456c0-55.036-20.729-107.293-58.366-147.453V25.255
			C373.286,22.27,370.871,19.854,367.885,19.854z M69.167,30.654h57.425h178.478h57.433v39.81v89.408H69.172V70.464L69.167,30.654
			L69.167,30.654z M362.486,401.003h-57.417H126.586h-57.42v-39.81V170.672h293.319v190.521V401.003z"/>
		<path d="M139.793,145.79c26.035,0,47.219-21.186,47.219-47.224c0-26.041-21.184-47.218-47.219-47.218
			c-26.037,0-47.218,21.178-47.218,47.218C92.575,124.604,113.756,145.79,139.793,145.79z M139.793,62.153
			c20.084,0,36.418,16.334,36.418,36.418c0,20.081-16.329,36.424-36.418,36.424c-20.086,0-36.418-16.337-36.418-36.424
			C103.375,78.487,119.707,62.153,139.793,62.153z"/>
		<path d="M129.091,117.74c1.052,1.055,2.437,1.582,3.818,1.582s2.766-0.527,3.818-1.582l25.677-25.677
			c2.112-2.111,2.112-5.523,0-7.636c-2.112-2.112-5.519-2.112-7.636,0l-21.858,21.858l-9.418-9.416
			c-2.112-2.112-5.519-2.112-7.636,0c-2.109,2.104-2.109,5.524,0,7.633L129.091,117.74z"/>
		<path d="M198.023,93.646h137.642c2.975,0,5.4-2.42,5.4-5.399s-2.426-5.4-5.4-5.4H198.023c-2.982,0-5.4,2.421-5.4,5.4
			S195.041,93.646,198.023,93.646z"/>
		<path d="M198.023,116.678h137.642c2.975,0,5.4-2.421,5.4-5.4c0-2.982-2.426-5.399-5.4-5.399H198.023c-2.982,0-5.4,2.417-5.4,5.399
			C192.623,114.257,195.041,116.678,198.023,116.678z"/>
		<path d="M335.665,191.104H97.975c-2.984,0-5.4,2.42-5.4,5.399c0,2.982,2.416,5.4,5.4,5.4h237.689c2.979,0,5.4-2.418,5.4-5.4
			C341.065,193.524,338.639,191.104,335.665,191.104z"/>
		<path d="M335.665,222.871H97.975c-2.984,0-5.4,2.416-5.4,5.4c0,2.975,2.416,5.4,5.4,5.4h237.689c2.979,0,5.4-2.426,5.4-5.4
			C341.065,225.287,338.639,222.871,335.665,222.871z"/>
		<path d="M335.665,254.628H97.975c-2.984,0-5.4,2.421-5.4,5.4c0,2.989,2.416,5.399,5.4,5.399h237.689c2.979,0,5.4-2.41,5.4-5.399
			C341.065,257.049,338.639,254.628,335.665,254.628z"/>
		<path d="M181.612,287.45h-81.524c-2.979,0-5.4,2.42-5.4,5.399v81.527c0,2.985,2.421,5.4,5.4,5.4h81.524c2.985,0,5.4-2.415,5.4-5.4
			V292.85C187.012,289.865,184.597,287.45,181.612,287.45z"/>
		<path d="M335.665,287.45H198.023c-2.982,0-5.4,2.42-5.4,5.399c0,2.985,2.417,5.4,5.4,5.4h137.642c2.975,0,5.4-2.415,5.4-5.4
			C341.065,289.87,338.639,287.45,335.665,287.45z"/>
		<path d="M335.665,316.043H198.023c-2.982,0-5.4,2.415-5.4,5.399c0,2.975,2.417,5.4,5.4,5.4h137.642c2.975,0,5.4-2.426,5.4-5.4
			C341.065,318.458,338.639,316.043,335.665,316.043z"/>
	</g>
</g>
<g>
</g>
<g>
</g>
<g>
</g>
<g>
</g>
<g>
</g>
<g>
</g>
<g>
</g>
<g>
</g>
<g>
</g>
<g>
</g>
<g>
</g>
<g>
</g>
<g>
</g>
<g>
</g>
<g>
</g>
</svg>
