<svg height="682pt" viewBox="-39 -21 682 682.66669" width="682pt" xmlns="http://www.w3.org/2000/svg"><path d="m387.449219 472.480469h-309.402344c-10.28125 0-18.617187-8.335938-18.617187-18.617188 0-10.285156 8.335937-18.621093 18.617187-18.621093h285.210937l-44.003906-39.347657c-20.828125 8.4375-43.359375 12.902344-66.53125 12.902344-30.542968 0-60.5625-8.011719-86.929687-22.921875h-87.746094c-10.28125 0-18.617187-8.335938-18.617187-18.613281 0-10.285157 8.335937-18.621094 18.617187-18.621094h41.953125c-12.917969-14.714844-23.167969-31.371094-30.4375-49.367187h-11.515625c-10.28125 0-18.617187-8.335938-18.617187-18.617188s8.335937-18.617188 18.617187-18.617188h1.121094c-.601563-3.675781-1.101563-7.382812-1.472657-11.121093-1.273437-12.886719-1.121093-25.691407.382813-38.246094h-.03125c-10.28125 0-18.617187-8.335937-18.617187-18.617187s8.335937-18.617188 18.617187-18.617188h8.769531c6.265625-17.609375 15.417969-34.265625 27.285156-49.367188h-36.054687c-10.28125 0-18.617187-8.335937-18.617187-18.617187 0-10.285156 8.335937-18.617187 18.617187-18.617187h76.050781c28.792969-19.441407 63.027344-30.101563 98.789063-30.101563h.003906c35.125 0 69.558594 10.601563 98.542969 30.101563h36.015625c10.277343 0 18.617187 8.335937 18.617187 18.621093 0 8.96875-6.351562 16.457031-14.800781 18.222657 20.5625 25.960937 33.304687 57.246093 36.640625 90.9375 1.695312 17.148437.875 34.160156-2.324219 50.613281l40.742188 31.792969v-258.960938c0-22.125-17.933594-40.0625-40.0625-40.0625h-387.03125c-22.125 0-40.0625 17.9375-40.0625 40.0625v559.867188c0 22.132812 17.9375 40.070312 40.0625 40.070312h387.03125c22.128906 0 40.0625-17.9375 40.0625-40.070312v-72.511719l-66.617188-59.574219c-3.273437 2.875-7.558593 4.636719-12.257812 4.636719zm18.617187 67.984375c0 10.277344-8.335937 18.617187-18.617187 18.617187h-309.402344c-10.28125 0-18.617187-8.335937-18.617187-18.617187 0-10.285156 8.335937-18.621094 18.617187-18.621094h309.402344c10.277343 0 18.617187 8.335938 18.617187 18.621094zm0 0"/><path d="m582.652344 437.007812-110.984375-86.59375c-.152344.203126-.289063.410157-.457031.605469l-61.191407 74.144531c-.3125.378907-.652343.71875-.984375 1.066407l105.003906 93.90625c10.328126 9.089843 23.136719 13.535156 35.882813 13.535156 15.636719 0 31.171875-6.6875 41.90625-19.6875 19.476563-23.597656 15.3125-58.550781-9.175781-76.976563zm0 0"/><path d="m442.332031 327.523438-28.769531-22.445313c-6.355469 14.117187-14.640625 27.480469-24.773438 39.75-10.226562 12.394531-21.957031 23.171875-34.804687 32.167969l27.335937 24.445312zm0 0"/><path d="m388.191406 263.875c1.367188-6.082031 2.304688-12.234375 2.832032-18.40625 3.703124-43.675781-13.570313-88.367188-50.273438-118.261719-.480469-.390625-.972656-.753906-1.457031-1.136719-14.34375-11.375-30.273438-19.476562-46.875-24.386718-12.917969-3.8125-26.238281-5.714844-39.527344-5.714844 0 0-.003906 0-.007813 0-13.300781 0-26.5625 1.902344-39.355468 5.640625-16.933594 4.953125-33.03125 13.136719-47.28125 24.460937-7.460938 5.925782-14.417969 12.699219-20.710938 20.332032-8.261718 10.007812-14.863281 20.824218-19.84375 32.121094-4.863281 11.023437-8.175781 22.5-9.976562 34.136718-2.550782 16.4375-2.082032 33.179688 1.328125 49.378906 2.527343 12.019532 6.675781 23.738282 12.402343 34.800782 8.421876 16.277344 20.257813 31.144531 35.410157 43.488281 3.679687 2.996094 7.484375 5.75 11.371093 8.3125 16 10.554687 33.570313 17.40625 51.59375 20.664063 8.246094 1.496093 16.574219 2.261718 24.902344 2.261718 13.175782 0 26.3125-1.871094 38.992188-5.542968 5.960937-1.722657 11.816406-3.84375 17.53125-6.367188 6.820312-3.011719 13.429687-6.585938 19.757812-10.71875 11.433594-7.46875 21.941406-16.746094 31.070313-27.808594 9.273437-11.230468 16.449219-23.480468 21.597656-36.289062 2.75-6.847656 4.921875-13.859375 6.519531-20.964844zm0 0"/></svg>