<svg height="512" viewBox="0 0 512 512" width="512" xmlns="http://www.w3.org/2000/svg"><g id="filled_outline" data-name="filled outline"><rect fill="#676767" height="400" rx="16" width="400" x="24" y="88"/><path d="m408 88h-360v360a16 16 0 0 0 16 16h360v-360a16 16 0 0 0 -16-16z" fill="#4d4d4d"/><rect fill="#a6a6a6" height="400" rx="16" width="400" x="56" y="56"/><path d="m440 56h-360v360a16 16 0 0 0 16 16h360v-360a16 16 0 0 0 -16-16z" fill="#7d7d7d"/><rect fill="#e6e6e6" height="400" rx="16" width="400" x="88" y="24"/><circle cx="248" cy="72" fill="#19af19" r="16"/><circle cx="192" cy="72" fill="#ffaf00" r="16"/><circle cx="136" cy="72" fill="#e11919" r="16"/><path d="m239.431 240.569-54.862 54.862a56.57 56.57 0 0 0 -16.569 40 56.569 56.569 0 0 0 56.568 56.569 56.57 56.57 0 0 0 40-16.569l54.862-54.862a56.57 56.57 0 0 0 16.569-40 56.569 56.569 0 0 0 -56.567-56.569 56.57 56.57 0 0 0 -40.001 16.569zm-32.8 80.8 58.746-58.746a22.627 22.627 0 0 1 16-6.627 22.628 22.628 0 0 1 22.623 22.631 22.627 22.627 0 0 1 -6.627 16l-58.746 58.746a22.627 22.627 0 0 1 -16 6.627 22.628 22.628 0 0 1 -22.627-22.627 22.627 22.627 0 0 1 6.627-16z" fill="#f55441"/><path d="m311.431 168.569-54.862 54.862a56.57 56.57 0 0 0 -16.569 40 56.569 56.569 0 0 0 56.568 56.569 56.57 56.57 0 0 0 40-16.569l54.862-54.862a56.57 56.57 0 0 0 16.569-40 56.569 56.569 0 0 0 -56.567-56.569 56.57 56.57 0 0 0 -40.001 16.569zm-32.8 80.8 58.746-58.746a22.627 22.627 0 0 1 16-6.627 22.628 22.628 0 0 1 22.623 22.631 22.627 22.627 0 0 1 -6.627 16l-58.746 58.746a22.627 22.627 0 0 1 -16 6.627 22.628 22.628 0 0 1 -22.627-22.627 22.627 22.627 0 0 1 6.627-16z" fill="#ffaf00"/><path d="m304 336 15.431-15.431a56.57 56.57 0 0 0 16.569-40 56.3 56.3 0 0 0 -8-29.018l-29.363 12.449a22.537 22.537 0 0 1 5.363 14.627 22.627 22.627 0 0 1 -6.627 16l-25.373 25.373z" fill="#f55441"/><path d="m472 16h-368a24.027 24.027 0 0 0 -24 24v8h-8a24.027 24.027 0 0 0 -24 24v8h-8a24.027 24.027 0 0 0 -24 24v368a24.027 24.027 0 0 0 24 24h368a24.027 24.027 0 0 0 24-24v-8h8a24.027 24.027 0 0 0 24-24v-8h8a24.027 24.027 0 0 0 24-24v-368a24.027 24.027 0 0 0 -24-24zm-56 456a8.009 8.009 0 0 1 -8 8h-368a8.009 8.009 0 0 1 -8-8v-368a8.009 8.009 0 0 1 8-8h8v344a24.027 24.027 0 0 0 24 24h344zm32-32a8.009 8.009 0 0 1 -8 8h-368a8.009 8.009 0 0 1 -8-8v-368a8.009 8.009 0 0 1 8-8h8v344a24.027 24.027 0 0 0 24 24h344zm32-32a8.009 8.009 0 0 1 -8 8h-368a8.009 8.009 0 0 1 -8-8v-368a8.009 8.009 0 0 1 8-8h368a8.009 8.009 0 0 1 8 8z"/><path d="m112 112h352v16h-352z"/><path d="m248 48a24 24 0 1 0 24 24 24.027 24.027 0 0 0 -24-24zm0 32a8 8 0 1 1 8-8 8.009 8.009 0 0 1 -8 8z"/><path d="m192 96a24 24 0 1 0 -24-24 24.027 24.027 0 0 0 24 24zm0-32a8 8 0 1 1 -8 8 8.009 8.009 0 0 1 8-8z"/><path d="m136 96a24 24 0 1 0 -24-24 24.027 24.027 0 0 0 24 24zm0-32a8 8 0 1 1 -8 8 8.009 8.009 0 0 1 8-8z"/><path d="m351.432 144a64.143 64.143 0 0 0 -45.657 18.912l-54.863 54.863a65.193 65.193 0 0 0 -7.812 9.445 64.6 64.6 0 0 0 -9.325 7.692l-54.863 54.863a64.568 64.568 0 1 0 91.313 91.313l54.863-54.863a65.14 65.14 0 0 0 7.812-9.445 64.686 64.686 0 0 0 9.325-7.692l54.863-54.863a64.568 64.568 0 0 0 -45.656-110.225zm-89 174.253-29.463 29.463a14.628 14.628 0 0 1 -20.687-20.687l29.457-29.456a64.437 64.437 0 0 0 20.695 20.68zm-3.522 51.522a48.569 48.569 0 0 1 -68.687-68.687l41.931-41.93c-.093 1.417-.156 2.84-.156 4.274a64.728 64.728 0 0 0 2.709 18.546l-33.738 33.738a30.627 30.627 0 1 0 43.313 43.313l58.745-58.745a30.623 30.623 0 0 0 -12.976-51.024l11.794-11.793a48.584 48.584 0 0 1 11.928 77.445zm21.152-105.711c.434-.039.869-.064 1.309-.064a14.644 14.644 0 0 1 14.629 14.627c0 .44-.026.876-.064 1.309-.434.039-.869.064-1.309.064a14.644 14.644 0 0 1 -14.627-14.627c0-.44.026-.873.064-1.309zm33.514-38.329 29.451-29.451a14.628 14.628 0 0 1 20.687 20.687l-29.414 29.415a64.09 64.09 0 0 0 -20.722-20.651zm72.2 17.177-41.931 41.93c.093-1.417.156-2.84.156-4.274a65.216 65.216 0 0 0 -2.69-18.568l33.718-33.718a30.627 30.627 0 1 0 -43.313-43.313l-58.745 58.745a30.623 30.623 0 0 0 12.976 51.024l-11.792 11.791a48.581 48.581 0 0 1 -11.93-77.443l54.863-54.863a48.569 48.569 0 0 1 68.687 68.687z"/></g></svg>