<svg id="Icon_Set" enable-background="new 0 0 256 256" height="512" viewBox="0 0 256 256" width="512" xmlns="http://www.w3.org/2000/svg"><path d="m43.333 245.25v-234.5c0-2.761 2.239-5 5-5h159.333c2.761 0 5 2.239 5 5v234.5c0 2.761-2.239 5-5 5h-159.333c-2.761 0-5-2.239-5-5z" fill="#f9d335"/><path d="m68.333 25.75h119.334c2.761 0 5 2.239 5 5v194.5c0 2.761-2.239 5-5 5h-119.334c-2.761 0-5-2.239-5-5v-194.5c0-2.761 2.239-5 5-5z" fill="#ffe2e2"/><path d="m132.484 55.73 1.559 3.16c.728 1.476 2.136 2.499 3.765 2.735l3.487.507c4.101.596 5.739 5.636 2.771 8.528l-2.523 2.459c-1.178 1.149-1.716 2.804-1.438 4.426l.596 3.473c.701 4.085-3.587 7.199-7.255 5.271l-3.119-1.64c-1.457-.766-3.197-.766-4.653 0l-3.119 1.64c-3.668 1.928-7.955-1.186-7.255-5.271l.596-3.473c.278-1.622-.26-3.277-1.438-4.426l-2.523-2.459c-2.968-2.893-1.33-7.933 2.771-8.528l3.487-.507c1.629-.237 3.036-1.259 3.765-2.735l1.559-3.16c1.833-3.716 7.133-3.716 8.967 0z" fill="#f9d335"/><path d="m63.33 250.25h-15c-2.76 0-5-2.24-5-5v-234.5c0-2.76 2.24-5 5-5h15c-2.76 0-5 2.24-5 5v234.5c0 2.76 2.24 5 5 5z" fill="#f9e27d"/><path d="m83.33 230.25h-15c-2.76 0-5-2.24-5-5v-194.5c0-2.76 2.24-5 5-5h15c-2.76 0-5 2.24-5 5v194.5c0 2.76 2.24 5 5 5z" fill="#ffefee"/><path d="m192.67 30.75v194.5c0 2.76-2.24 5-5 5h-15c2.76 0 5-2.24 5-5v-194.5c0-2.76-2.24-5-5-5h15c2.76 0 5 2.24 5 5z" fill="#ffcfcf"/><path d="m212.67 10.75v234.5c0 2.76-2.24 5-5 5h-15c2.76 0 5-2.24 5-5v-234.5c0-2.76-2.24-5-5-5h15c2.76 0 5 2.24 5 5z" fill="#f2c300"/><path d="m126.93 70.66 2.53 2.46c1.18 1.15 1.71 2.8 1.44 4.43l-.6 3.47c-.29 1.71.29 3.25 1.35 4.32l-1.32-.69c-1.46-.77-3.2-.77-4.66 0l-3.12 1.64c-3.66 1.93-7.95-1.19-7.25-5.27l.6-3.47c.27-1.63-.26-3.28-1.44-4.43l-2.53-2.46c-2.96-2.89-1.33-7.93 2.78-8.53l3.48-.5c1.63-.24 3.04-1.26 3.77-2.74l1.56-3.16c1.83-3.72 7.13-3.72 8.96 0l1.56 3.16c.35.7.85 1.3 1.46 1.76-.66.51-1.46.85-2.31.98l-3.48.5c-4.11.6-5.74 5.64-2.78 8.53z" fill="#f9e27d"/><g fill="#5f266d"><path d="m170.5 61.75c2.209 0 4-1.791 4-4v-14c0-2.209-1.791-4-4-4s-4 1.791-4 4v14c0 2.209 1.791 4 4 4z"/><path d="m170.5 82c2.209 0 4-1.791 4-4v-5.25c0-2.209-1.791-4-4-4s-4 1.791-4 4v5.25c0 2.209 1.791 4 4 4z"/><path d="m207.667 1.75h-159.334c-4.962 0-9 4.037-9 9v234.5c0 4.963 4.038 9 9 9h159.333c4.962 0 9-4.037 9-9v-234.5c.001-4.963-4.037-9-8.999-9zm1 243.5c0 .552-.449 1-1 1h-159.334c-.551 0-1-.448-1-1v-234.5c0-.552.449-1 1-1h159.333c.551 0 1 .448 1 1v234.5z"/><path d="m187.667 21.75h-119.334c-4.962 0-9 4.037-9 9v194.5c0 4.963 4.038 9 9 9h119.334c4.962 0 9-4.037 9-9v-194.5c0-4.963-4.038-9-9-9zm1 203.5c0 .552-.449 1-1 1h-119.334c-.551 0-1-.448-1-1v-194.5c0-.552.449-1 1-1h119.334c.551 0 1 .448 1 1z"/><path d="m111.357 80.342c-1.264 7.366 6.484 12.949 13.059 9.487 4.337-2.279 2.751-2.322 7.167 0 6.594 3.471 14.32-2.136 13.059-9.486-.827-4.826-1.359-3.333 2.215-6.818 5.34-5.204 2.39-14.279-4.988-15.351-4.865-.708-3.612.217-5.799-4.214-3.301-6.686-12.841-6.685-16.142 0-2.167 4.392-.859 3.496-5.799 4.214-7.379 1.072-10.326 10.148-4.988 15.351 3.523 3.433 3.051 1.95 2.216 6.817zm3.924-14.252c6.998-1.016 8.03-.905 11.822-8.589.371-.751 1.423-.751 1.794 0 1.575 3.19 3.019 7.312 8.335 8.082l3.487.507c.825.121 1.154 1.123.554 1.706-6.102 5.951-5.719 6.878-4.515 13.899.141.822-.711 1.444-1.451 1.054-6.257-3.292-7.029-3.987-14.614 0-.739.387-1.592-.229-1.451-1.055 1.441-8.398.586-8.926-4.516-13.898-.599-.584-.273-1.585.555-1.706z"/><path d="m173.193 104.39h-90.386c-2.209 0-4 1.791-4 4s1.791 4 4 4h90.387c2.209 0 4-1.791 4-4s-1.792-4-4.001-4z"/><path d="m173.193 125.057h-90.386c-2.209 0-4 1.791-4 4s1.791 4 4 4h90.387c2.209 0 4-1.791 4-4s-1.792-4-4.001-4z"/><path d="m173.193 145.724h-90.386c-2.209 0-4 1.791-4 4s1.791 4 4 4h90.387c2.209 0 4-1.791 4-4s-1.792-4-4.001-4z"/><path d="m173.193 166.39h-90.386c-2.209 0-4 1.791-4 4s1.791 4 4 4h90.387c2.209 0 4-1.791 4-4s-1.792-4-4.001-4z"/><path d="m160.263 187.057h-64.526c-2.209 0-4 1.791-4 4s1.791 4 4 4h64.526c2.209 0 4-1.791 4-4s-1.791-4-4-4z"/></g></svg>