<svg height="512pt" viewBox="0 -36 512 512" width="512pt" xmlns="http://www.w3.org/2000/svg"><path d="m45.253906 250.464844c-4.871094 0-8.820312 3.949218-8.820312 8.820312v139.445313h148.519531v-148.265625zm0 0" fill="#54a0ff"/><path d="m75.019531 250.464844h-29.765625c-4.871094 0-8.820312 3.949218-8.820312 8.820312v139.445313h29.765625v-139.445313c0-4.871094 3.949219-8.820312 8.820312-8.820312zm0 0" fill="#338def"/><path d="m467.164062 306.90625h-139.695312v91.824219h148.515625v-83.003907c.003906-4.871093-3.949219-8.820312-8.820313-8.820312zm0 0" fill="#ff6b6b"/><path d="m327.46875 306.90625h29.765625v91.824219h-29.765625zm0 0" fill="#ee5253"/><path d="m433.398438 177.242188c0 16.941406-13.730469 30.671874-30.671876 30.671874-16.9375 0-30.671874-13.730468-30.671874-30.671874 0-16.9375 13.734374-30.671876 30.671874-30.671876 16.941407 0 30.671876 13.734376 30.671876 30.671876zm0 0" fill="#ffcdbf"/><path d="m420.085938 207.914062h-34.714844c-18.074219 0-32.863282 14.785157-32.863282 32.859376v38.070312c0 3.09375 2.507813 5.597656 5.597657 5.597656h89.242187c3.09375 0 5.597656-2.503906 5.597656-5.597656v-38.070312c.003907-18.074219-14.785156-32.859376-32.859374-32.859376zm0 0" fill="#ff6b6b"/><path d="m372.507812 278.84375v-38.070312c0-18.074219 14.789063-32.859376 32.863282-32.859376h-20c-18.074219 0-32.863282 14.785157-32.863282 32.859376v38.070312c0 3.09375 2.507813 5.597656 5.597657 5.597656h20c-3.089844 0-5.597657-2.503906-5.597657-5.597656zm0 0" fill="#ee5253"/><path d="m320.648438 167.90625h-128.875c-4.875 0-8.820313 3.949219-8.820313 8.824219v222h146.515625v-222c0-4.875-3.949219-8.824219-8.820312-8.824219zm0 0" fill="#feca57"/><path d="m221.539062 167.90625h-29.765624c-4.875 0-8.820313 3.949219-8.820313 8.824219v222h29.765625v-222c0-4.875 3.949219-8.824219 8.820312-8.824219zm0 0" fill="#f4b537"/><path d="m494.210938 431.570312h-476c-5.773438 0-10.5-4.722656-10.5-10.496093v-12.84375c0-5.777344 4.726562-10.5 10.5-10.5h476c5.773437 0 10.5 4.726562 10.5 10.5v12.84375c0 5.773437-4.726563 10.496093-10.5 10.496093zm0 0" fill="#3e4b5a"/><path d="m38.476562 421.074219v-12.84375c0-5.777344 4.726563-10.5 10.5-10.5h-30.765624c-5.773438 0-10.5 4.722656-10.5 10.5v12.84375c0 5.773437 4.726562 10.496093 10.5 10.496093h30.765624c-5.773437 0-10.5-4.722656-10.5-10.496093zm0 0" fill="#303f49"/><path d="m286.976562 38.246094c0 16.9375-13.734374 30.667968-30.671874 30.667968s-30.671876-13.730468-30.671876-30.667968c0-16.941406 13.734376-30.671875 30.671876-30.671875s30.671874 13.730469 30.671874 30.671875zm0 0" fill="#ffcdbf"/><path d="m273.664062 68.914062h-34.714843c-18.074219 0-32.863281 14.789063-32.863281 32.863282v38.070312c0 3.089844 2.503906 5.597656 5.597656 5.597656h89.242187c3.089844 0 5.597657-2.507812 5.597657-5.597656v-38.070312c0-18.074219-14.785157-32.863282-32.859376-32.863282zm0 0" fill="#feca57"/><path d="m226.085938 139.847656v-38.070312c0-18.074219 14.789062-32.863282 32.863281-32.863282h-20c-18.074219 0-32.863281 14.789063-32.863281 32.863282v38.070312c0 3.089844 2.503906 5.597656 5.597656 5.597656h20c-3.089844 0-5.597656-2.507812-5.597656-5.597656zm0 0" fill="#f4b537"/><path d="m140.363281 120.84375c0 16.941406-13.730469 30.671875-30.671875 30.671875-16.9375 0-30.667968-13.730469-30.667968-30.671875 0-16.9375 13.730468-30.667969 30.667968-30.667969 16.941406 0 30.671875 13.730469 30.671875 30.667969zm0 0" fill="#ffcdbf"/><g fill="#ffbeab"><path d="m402.453125 177.242188c0-11.40625 6.230469-21.351563 15.472656-26.636719-4.480469-2.5625-9.667969-4.035157-15.199219-4.035157-16.9375 0-30.671874 13.734376-30.671874 30.671876 0 16.941406 13.734374 30.671874 30.671874 30.671874 5.53125 0 10.71875-1.472656 15.199219-4.035156-9.242187-5.285156-15.472656-15.230468-15.472656-26.636718zm0 0"/><path d="m256.03125 38.246094c0-11.410156 6.230469-21.355469 15.472656-26.636719-4.484375-2.5625-9.667968-4.035156-15.199218-4.035156-16.9375 0-30.671876 13.730469-30.671876 30.671875 0 16.9375 13.734376 30.667968 30.671876 30.667968 5.53125 0 10.714843-1.472656 15.199218-4.03125-9.242187-5.285156-15.472656-15.230468-15.472656-26.636718zm0 0"/><path d="m109.417969 120.84375c0-11.40625 6.230469-21.351562 15.472656-26.636719-4.480469-2.558593-9.664063-4.03125-15.199219-4.03125-16.9375 0-30.667968 13.730469-30.667968 30.667969 0 16.941406 13.730468 30.671875 30.667968 30.671875 5.53125 0 10.71875-1.472656 15.199219-4.035156-9.242187-5.28125-15.472656-15.226563-15.472656-26.636719zm0 0"/></g><path d="m127.050781 151.515625h-34.714843c-18.074219 0-32.863282 14.789063-32.863282 32.863281v38.070313c0 3.089843 2.507813 5.597656 5.597656 5.597656h89.242188c3.09375 0 5.597656-2.507813 5.597656-5.597656v-38.070313c0-18.074218-14.785156-32.863281-32.859375-32.863281zm0 0" fill="#54a0ff"/><path d="m79.476562 222.449219v-38.070313c0-18.074218 14.785157-32.863281 32.859376-32.863281h-20c-18.074219 0-32.863282 14.789063-32.863282 32.863281v38.070313c0 3.089843 2.507813 5.59375 5.597656 5.59375h20c-3.089843.003906-5.59375-2.503907-5.59375-5.59375zm0 0" fill="#338def"/><path d="m344.796875 240.703125v38.070313c0 7.222656 5.875 13.097656 13.097656 13.097656h89.246094c7.222656 0 13.097656-5.875 13.097656-13.097656v-38.070313c0-18.238281-12.160156-33.679687-28.796875-38.664063 5.757813-6.6875 9.25-15.375 9.25-24.867187 0-21.050781-17.125-38.171875-38.171875-38.171875-21.050781 0-38.171875 17.125-38.171875 38.171875 0 9.492187 3.492188 18.179687 9.246094 24.867187-16.636719 4.984376-28.796875 20.425782-28.796875 38.664063zm57.71875-86.703125c12.777344 0 23.171875 10.394531 23.171875 23.171875 0 12.761719-10.375 23.148437-23.132812 23.167969h-.074219c-12.761719-.019532-23.132813-10.40625-23.132813-23.167969 0-12.777344 10.394532-23.171875 23.167969-23.171875zm-42.71875 86.703125c0-13.984375 11.378906-25.363281 25.363281-25.363281h17.316406c.015626 0 .027344.003906.039063.003906.015625 0 .027344-.003906.039063-.003906h17.320312c13.984375 0 25.363281 11.378906 25.363281 25.363281v36.164063h-10.265625v-37.34375c0-4.144532-3.359375-7.5-7.5-7.5-4.144531 0-7.5 3.355468-7.5 7.5v37.34375h-34.910156v-37.34375c0-4.144532-3.355469-7.5-7.5-7.5-4.140625 0-7.5 3.355468-7.5 7.5v37.34375h-10.265625zm0 0"/><path d="m198.375 101.703125v38.070313c0 7.222656 5.875 13.097656 13.097656 13.097656h89.242188c7.222656 0 13.101562-5.875 13.101562-13.097656v-38.070313c0-18.234375-12.164062-33.679687-28.796875-38.664063 5.753907-6.6875 9.246094-15.375 9.246094-24.867187 0-21.046875-17.121094-38.171875-38.171875-38.171875-21.046875 0-38.167969 17.125-38.167969 38.171875 0 9.492187 3.488281 18.179687 9.246094 24.867187-16.636719 4.984376-28.796875 20.429688-28.796875 38.664063zm57.71875-86.703125c12.777344 0 23.171875 10.398438 23.171875 23.171875 0 12.777344-10.394531 23.171875-23.171875 23.171875-12.773438 0-23.167969-10.394531-23.167969-23.171875 0-12.773437 10.394531-23.171875 23.167969-23.171875zm-42.71875 86.703125c0-13.984375 11.378906-25.359375 25.363281-25.359375h34.714844c13.984375 0 25.359375 11.375 25.359375 25.359375v36.167969h-10.265625v-37.347656c0-4.140626-3.355469-7.5-7.5-7.5-4.140625 0-7.5 3.359374-7.5 7.5v37.347656h-34.90625v-37.347656c0-4.140626-3.355469-7.5-7.5-7.5s-7.5 3.359374-7.5 7.5v37.347656h-10.265625zm0 0"/><path d="m51.761719 184.304688v38.070312c0 7.222656 5.878906 13.097656 13.101562 13.097656h89.242188c7.222656 0 13.097656-5.875 13.097656-13.097656v-38.070312c0-18.234376-12.160156-33.679688-28.796875-38.664063 5.757812-6.683594 9.246094-15.375 9.246094-24.867187 0-21.046876-17.121094-38.171876-38.167969-38.171876-21.050781 0-38.171875 17.125-38.171875 38.171876 0 9.496093 3.492188 18.183593 9.246094 24.867187-16.632813 4.984375-28.796875 20.425781-28.796875 38.664063zm57.722656-86.703126c12.773437 0 23.167969 10.394532 23.167969 23.171876 0 12.769531-10.382813 23.160156-23.148438 23.167968h-.039062c-12.769532-.007812-23.152344-10.398437-23.152344-23.167968 0-12.777344 10.394531-23.171876 23.171875-23.171876zm-42.71875 86.703126c0-13.980469 11.375-25.359376 25.359375-25.359376h17.320312.039063.039063 17.316406c13.984375 0 25.363281 11.378907 25.363281 25.359376v36.167968h-10.265625v-37.347656c0-4.140625-3.355469-7.5-7.5-7.5s-7.5 3.359375-7.5 7.5v37.347656h-34.910156v-37.347656c0-4.140625-3.355469-7.5-7.5-7.5-4.140625 0-7.5 3.359375-7.5 7.5v37.347656h-10.261719zm0 0"/><path d="m256.519531 205.800781c-.730469 0-1.398437.132813-1.933593.464844l-8.792969 5.332031c-1.332031.796875-1.933594 2.128906-1.933594 3.527344 0 2.921875 2.488281 5.226562 4.933594 3.597656l1.929687-1.199218v33.914062c0 4.261719 10.394532 4.261719 10.394532 0v-42.375c0-1.996094-2.464844-3.261719-4.597657-3.261719zm0 0"/><path d="m121.164062 315.757812c0-8.925781-7.796874-13.789062-15.523437-13.789062-7.597656 0-15.058594 4.660156-15.058594 12.789062 0 4.199219 2 5.398438 4.664063 5.398438 3.398437 0 5.464844-1.867188 5.464844-3.800781 0-3.664063 2.332031-4.996094 4.996093-4.996094 3.730469 0 5.0625 2.601563 5.0625 4.730469 0 8.460937-20.988281 14.457031-20.988281 24.917968v6.464844c0 1.929688 2.667969 3.195313 4.53125 3.195313h23.71875c1.664062 0 3.132812-2.199219 3.132812-4.597657 0-2.398437-1.46875-4.464843-3.132812-4.464843h-17.457031v-.597657c0-6.0625 20.589843-10.792968 20.589843-25.25zm0 0"/><path d="m403.390625 369.386719c-3 0-5.929687-.730469-5.929687-3.863281 0-2.53125-1.066407-3.464844-5.332032-3.464844-3.664062 0-4.929687.800781-4.929687 3.796875 0 5.597656 4.398437 12.59375 15.855469 12.59375 9.328124 0 16.855468-4.132813 16.855468-15.058594v-1.265625c0-5.394531-2.863281-8.328125-6.792968-9.792969 3.328124-1.53125 5.128906-6.0625 5.128906-10.925781 0-8.996094-6.398438-12.0625-14.855469-12.0625-11.460937 0-15.191406 6.730469-15.191406 11.925781 0 3.199219.601562 4.199219 5.398437 4.199219 3.863282 0 4.859375-1.53125 4.859375-3.796875 0-2.601563 1.667969-3.398437 4.933594-3.398437 2.730469 0 4.929687.933593 4.929687 4.796874 0 5.394532-2.664062 5.730469-5.195312 5.730469-2.269531 0-3 1.996094-3 3.996094s.730469 3.996094 3 3.996094c3.664062 0 6.394531.867187 6.394531 5.332031v1.265625c0 4.332031-1.597656 5.996094-6.128906 5.996094zm0 0"/><path d="m494 391.15625h-10.722656v-20.910156c0-4.144532-3.355469-7.5-7.5-7.5-4.144532 0-7.5 3.355468-7.5 7.5v20.910156h-131.519532v-76.820312h130.199219c.726563 0 1.320313.589843 1.320313 1.320312v19.589844c0 4.140625 3.355468 7.5 7.5 7.5 4.144531 0 7.5-3.359375 7.5-7.5v-19.589844c0-9-7.320313-16.320312-16.320313-16.320312h-130.199219v-122.679688c0-9-7.320312-16.320312-16.320312-16.320312h-128.875c-9 0-16.320312 7.320312-16.320312 16.320312v66.234375h-130.199219c-8.996094 0-16.320313 7.324219-16.320313 16.320313v131.945312h-10.722656c-9.925781 0-18 8.074219-18 18v11.84375c0 9.925781 8.074219 18 18 18h218.75c4.144531 0 7.5-3.355469 7.5-7.5s-3.355469-7.5-7.5-7.5h-218.75c-1.625 0-3-1.375-3-3v-11.84375c0-1.625 1.375-3 3-3h18.222656 439.554688 18.222656c1.625 0 3 1.375 3 3v11.84375c0 1.625-1.375 3-3 3h-222.246094c-4.144531 0-7.5 3.355469-7.5 7.5s3.355469 7.5 7.5 7.5h222.246094c9.925781 0 18-8.074219 18-18v-11.84375c0-9.925781-8.074219-18-18-18zm-450.273438-131.941406c0-.730469.589844-1.320313 1.316407-1.320313h130.199219v133.261719h-131.515626zm146.515626-82.558594c0-.726562.59375-1.320312 1.320312-1.320312h128.875c.726562 0 1.320312.59375 1.320312 1.320312v214.5h-131.515624c0-4.054688 0-209.097656 0-214.5zm0 0"/></svg>