<svg height="512" viewBox="0 0 256 256" width="512" xmlns="http://www.w3.org/2000/svg"><path d="m23.376 19.627h154.787v205.773h-154.787z" fill="#cecece"/><path d="m23.376 19.627h18.5v205.773h-18.5z" fill="#afafaf"/><path d="m159.662 19.627h18.5v205.773h-18.5z" fill="#e2e2e2"/><path d="m43.624 136.846h114.29v14.832h-114.29z" fill="#707070"/><path d="m43.624 161.927h114.29v14.832h-114.29z" fill="#707070"/><path d="m43.624 187.008h114.29v14.832h-114.29z" fill="#707070"/><circle cx="100.769" cy="52.272" fill="#9e9e9e" r="18.54"/><path d="m96.989 70.812h7.56a25.75 25.75 0 0 1 25.75 25.75v25.951a0 0 0 0 1 0 0h-59.06a0 0 0 0 1 0 0v-25.951a25.75 25.75 0 0 1 25.75-25.75z" fill="#63bce7"/><circle cx="190.434" cy="96.199" fill="#707070" r="42.19"/><path d="m190.434 54.009a42.3 42.3 0 0 0 -9.25 1.03 42.186 42.186 0 0 1 0 82.321 42.189 42.189 0 1 0 9.25-83.351z" fill="#9e9e9e"/><circle cx="190.434" cy="96.199" fill="#cecece" r="29.672"/><path d="m190.434 66.527a29.636 29.636 0 0 0 -9.25 1.478 29.673 29.673 0 0 1 0 56.388 29.672 29.672 0 1 0 9.25-57.866z" fill="#e2e2e2"/><rect fill="#f46275" height="70.159" rx="11.417" width="24.544" x="178.162" y="155.242"/><path d="m191.289 155.242h-1.71a11.374 11.374 0 0 0 -8.395 3.7 11.362 11.362 0 0 1 3.022 7.719v47.325a11.361 11.361 0 0 1 -3.022 7.718 11.374 11.374 0 0 0 8.395 3.7h1.71a11.417 11.417 0 0 0 11.417-11.417v-47.328a11.417 11.417 0 0 0 -11.417-11.417z" fill="#f48875"/><path d="m183.931 112.091a5.45 5.45 0 0 1 -3.726-1.467l-7.843-7.308a5.468 5.468 0 1 1 7.455-8l3.982 3.71 17.114-17.114a5.468 5.468 0 0 1 7.733 7.734l-20.846 20.843a5.452 5.452 0 0 1 -3.869 1.602z" fill="#f8af23"/><g fill="#3f3679"><path d="m157.914 135.346h-114.29a1.5 1.5 0 0 0 -1.5 1.5v14.832a1.5 1.5 0 0 0 1.5 1.5h114.29a1.5 1.5 0 0 0 1.5-1.5v-14.832a1.5 1.5 0 0 0 -1.5-1.5zm-1.5 14.832h-111.29v-11.832h111.29z"/><path d="m157.914 160.427h-114.29a1.5 1.5 0 0 0 -1.5 1.5v14.832a1.5 1.5 0 0 0 1.5 1.5h114.29a1.5 1.5 0 0 0 1.5-1.5v-14.832a1.5 1.5 0 0 0 -1.5-1.5zm-1.5 14.832h-111.29v-11.832h111.29z"/><path d="m157.914 185.508h-114.29a1.5 1.5 0 0 0 -1.5 1.5v14.832a1.5 1.5 0 0 0 1.5 1.5h114.29a1.5 1.5 0 0 0 1.5-1.5v-14.832a1.5 1.5 0 0 0 -1.5-1.5zm-1.5 14.832h-111.29v-11.832h111.29z"/><path d="m71.239 124.014h59.061a1.5 1.5 0 0 0 1.5-1.5v-25.951a27.294 27.294 0 0 0 -21.544-26.644 20.04 20.04 0 1 0 -18.972 0 27.294 27.294 0 0 0 -21.545 26.644v25.951a1.5 1.5 0 0 0 1.5 1.5zm12.49-71.741a17.04 17.04 0 1 1 17.04 17.04 17.06 17.06 0 0 1 -17.04-17.041zm-10.99 44.29a24.278 24.278 0 0 1 24.25-24.25h7.56a24.278 24.278 0 0 1 24.25 24.25v24.451h-56.06z"/><path d="m190.435 127.372a31.172 31.172 0 1 0 -31.173-31.172 31.208 31.208 0 0 0 31.173 31.172zm0-59.345a28.172 28.172 0 1 1 -28.173 28.173 28.2 28.2 0 0 1 28.173-28.173z"/><path d="m171.34 104.413 7.842 7.308a6.968 6.968 0 0 0 9.678-.171l20.846-20.85a6.968 6.968 0 0 0 -9.854-9.854l-16.09 16.093-2.923-2.723a6.968 6.968 0 1 0 -9.5 10.2zm1.847-7.8a3.946 3.946 0 0 1 2.764-1.261h.144a3.937 3.937 0 0 1 2.7 1.064l3.982 3.71a1.5 1.5 0 0 0 2.083-.037l17.114-17.119a4.065 4.065 0 0 1 5.611 0 3.969 3.969 0 0 1 0 5.612l-20.847 20.847a4.065 4.065 0 0 1 -5.512.1l-7.842-7.308a3.968 3.968 0 0 1 -.2-5.608z"/><path d="m27.323 234.873h-18a1.5 1.5 0 1 0 0 3h18a1.5 1.5 0 1 0 0-3z"/><path d="m246.68 234.873h-18a1.5 1.5 0 0 0 0 3h18a1.5 1.5 0 0 0 0-3z"/><path d="m218.479 234.873h-180.958a1.5 1.5 0 0 0 0 3h180.958a1.5 1.5 0 0 0 0-3z"/><path d="m9.32 226.9h237.36a1.5 1.5 0 0 0 0-3h-47.128a12.893 12.893 0 0 0 4.654-9.917v-47.325a12.922 12.922 0 0 0 -12.271-12.884v-13.922a43.684 43.684 0 1 0 -12.272-86v-34.225a1.5 1.5 0 0 0 -1.5-1.5h-154.788a1.5 1.5 0 0 0 -1.5 1.5v204.273h-12.555a1.5 1.5 0 1 0 0 3zm170.342-3v-1.654a13 13 0 0 0 1.654 1.654zm21.544-57.242v47.325a9.929 9.929 0 0 1 -9.917 9.917h-1.71a9.929 9.929 0 0 1 -9.917-9.917v-47.325a9.929 9.929 0 0 1 9.917-9.917h1.71a9.929 9.929 0 0 1 9.917 9.917zm-12.271-26.807v13.922a12.89 12.89 0 0 0 -9.272 4.622v-19.853a43.56 43.56 0 0 0 9.272 1.31zm42.189-43.651a40.69 40.69 0 1 1 -40.689-40.69 40.736 40.736 0 0 1 40.689 40.69zm-206.249-75.073h151.787v33.619a43.678 43.678 0 0 0 0 82.907v86.247h-151.787z"/></g></svg>