<?xml version="1.0" encoding="utf-8"?>
<!-- Generator: Adobe Illustrator 22.0.0, SVG Export Plug-In . SVG Version: 6.00 Build 0)  -->
<svg xmlns="http://www.w3.org/2000/svg" xmlns:xlink="http://www.w3.org/1999/xlink" version="1.1" id="Layer_2" x="0px" y="0px" viewBox="0 0 256 256" style="enable-background:new 0 0 256 256;" xml:space="preserve" width="512" height="512">
<style type="text/css">
	.st0{fill:#87796F;}
	.st1{fill:#3A312A;}
	.st2{fill:#FCE8CB;}
	.st3{fill:#D7E057;}
	.st4{fill:#8AC6DD;}
	.st5{fill:#F16C7A;}
	.st6{fill:#DECAAD;}
	.st7{fill:#B9C239;}
	.st8{fill:#695B51;}
	.st9{fill:#8AC6DD;stroke:#3A312A;stroke-width:3;stroke-linecap:round;stroke-linejoin:round;stroke-miterlimit:10;}
	.st10{fill:#6CA8BF;}
	.st11{fill:#D34E5C;}
	.st12{fill-rule:evenodd;clip-rule:evenodd;fill:#FCE8CB;}
	.st13{fill:#F5978A;}
	.st14{fill-rule:evenodd;clip-rule:evenodd;fill:#F16C7A;}
	.st15{fill-rule:evenodd;clip-rule:evenodd;fill:#D7E057;}
</style>
<g>
	<g>
		<g>
			<path class="st5" d="M155.677,16.56H42.621c-14.131,0-25.586,11.455-25.586,25.586v171.708c0,14.131,11.455,25.586,25.586,25.586     h113.056c14.131,0,25.586-11.455,25.586-25.586V42.146C181.263,28.015,169.808,16.56,155.677,16.56z"/>
		</g>
	</g>
	<g>
		<g>
			<path class="st1" d="M155.677,15.06H42.621c-14.935,0-27.086,12.151-27.086,27.086v20.516c0,0.829,0.671,1.5,1.5,1.5     c0.829,0,1.5-0.671,1.5-1.5V42.146c0-13.281,10.805-24.086,24.086-24.086h113.056c13.281,0,24.086,10.805,24.086,24.086v171.708     c0,13.281-10.805,24.086-24.086,24.086H42.621c-13.281,0-24.086-10.805-24.086-24.086V77.338c0-0.829-0.671-1.5-1.5-1.5     c-0.829,0-1.5,0.671-1.5,1.5v136.516c0,14.936,12.151,27.086,27.086,27.086h113.056c14.935,0,27.086-12.151,27.086-27.086V42.146     C182.763,27.21,170.612,15.06,155.677,15.06z"/>
		</g>
	</g>
	<g>
		<g>
			<path class="st3" d="M222.36,26.237c-0.974,11.564-13.025,13.39-13.025,13.39c10.346,0.487,12.925,14.059,12.925,14.059     c0.221-9.677,13.321-14.202,13.321-14.202C225.769,38.896,222.36,26.237,222.36,26.237z"/>
		</g>
	</g>
	<g>
		<g>
			<path class="st1" d="M235.672,37.985c-8.604-0.514-11.832-12.024-11.863-12.14c-0.19-0.702-0.847-1.159-1.584-1.102     c-0.725,0.066-1.298,0.642-1.359,1.367c-0.859,10.215-11.312,11.963-11.754,12.032c-0.763,0.115-1.313,0.79-1.273,1.56     c0.04,0.77,0.657,1.384,1.428,1.421c9.027,0.425,11.498,12.719,11.521,12.843c0.138,0.711,0.76,1.217,1.473,1.217     c0.042,0,0.084-0.002,0.126-0.005c0.765-0.064,1.357-0.693,1.375-1.459c0.193-8.509,12.191-12.777,12.312-12.819     c0.676-0.235,1.092-0.914,0.994-1.623C236.969,38.569,236.386,38.028,235.672,37.985z M222.105,48.331     c-1.356-3.131-3.709-6.907-7.587-8.876c2.931-1.405,6.409-3.913,8.202-8.273c1.551,3.071,4.199,6.88,8.334,8.722     C228.047,41.544,224.132,44.31,222.105,48.331z"/>
		</g>
	</g>
	<g>
		<g>
			<path class="st3" d="M200.661,43.217c-0.689,8.179-9.212,9.471-9.212,9.471c7.318,0.344,9.142,9.944,9.142,9.944     c0.156-6.845,9.422-10.045,9.422-10.045C203.072,52.171,200.661,43.217,200.661,43.217z"/>
		</g>
	</g>
	<g>
		<g>
			<path class="st1" d="M210.104,51.089c-5.767-0.345-7.973-8.185-7.995-8.264c-0.189-0.702-0.862-1.161-1.581-1.102     c-0.726,0.066-1.3,0.643-1.361,1.368c-0.578,6.871-7.646,8.067-7.941,8.114c-0.763,0.115-1.313,0.79-1.273,1.561     c0.04,0.77,0.657,1.384,1.428,1.421c6.035,0.284,7.723,8.644,7.738,8.726c0.136,0.713,0.759,1.22,1.473,1.22     c0.041,0,0.083-0.001,0.124-0.005c0.766-0.063,1.359-0.694,1.377-1.461c0.13-5.71,8.332-8.634,8.413-8.662     c0.676-0.234,1.093-0.913,0.996-1.622C211.402,51.673,210.817,51.132,210.104,51.089z M200.519,57.884     c-0.924-1.886-2.34-3.947-4.447-5.28c1.855-1.041,3.697-2.63,4.87-4.917c1.058,1.874,2.655,3.955,4.941,5.224     C204.033,54.012,201.895,55.652,200.519,57.884z"/>
		</g>
	</g>
	<g>
		<g>
			<path class="st3" d="M200.661,16.56c-0.689,8.179-9.212,9.471-9.212,9.471c7.318,0.344,9.142,9.944,9.142,9.944     c0.156-6.845,9.422-10.045,9.422-10.045C203.072,25.514,200.661,16.56,200.661,16.56z"/>
		</g>
	</g>
	<g>
		<g>
			<path class="st1" d="M210.104,24.432c-5.767-0.345-7.973-8.185-7.995-8.265c-0.189-0.702-0.862-1.16-1.581-1.102     c-0.726,0.065-1.3,0.643-1.361,1.368c-0.578,6.871-7.646,8.067-7.941,8.114c-0.763,0.115-1.313,0.79-1.273,1.56     c0.04,0.77,0.657,1.384,1.428,1.421c6.035,0.284,7.723,8.644,7.738,8.726c0.136,0.713,0.759,1.22,1.473,1.22     c0.041,0,0.083-0.002,0.124-0.005c0.766-0.064,1.359-0.694,1.377-1.461c0.13-5.709,8.332-8.634,8.412-8.662     c0.677-0.234,1.094-0.913,0.997-1.622C211.402,25.016,210.817,24.475,210.104,24.432z M200.519,31.227     c-0.924-1.886-2.34-3.947-4.447-5.28c1.855-1.041,3.697-2.63,4.87-4.916c1.058,1.873,2.655,3.954,4.941,5.224     C204.033,27.354,201.895,28.995,200.519,31.227z"/>
		</g>
	</g>
	<g>
		<g>
			
				<rect x="118.116" y="148.457" transform="matrix(0.4893 -0.8721 0.8721 0.4893 -40.7211 246.387)" class="st4" width="143.812" height="19.014"/>
		</g>
	</g>
	<g>
		<g>
			<path class="st1" d="M234.232,98.599l-16.582-9.304c-0.347-0.194-0.755-0.243-1.141-0.136c-0.383,0.107-0.707,0.363-0.902,0.71     l-70.371,125.419c-0.194,0.347-0.243,0.757-0.136,1.14c0.108,0.383,0.363,0.707,0.71,0.902l16.583,9.304     c0.232,0.13,0.484,0.192,0.733,0.192c0.524,0,1.034-0.276,1.31-0.767l70.37-125.418     C235.212,99.919,234.954,99.004,234.232,98.599z M162.554,223.283l-13.967-7.836L217.49,92.645l13.966,7.836L162.554,223.283z"/>
		</g>
	</g>
	<g>
		<g>
			
				<rect x="154.575" y="148.457" transform="matrix(0.4893 -0.8721 0.8721 0.4893 -40.7211 246.3873)" class="st3" width="70.892" height="19.014"/>
		</g>
	</g>
	<g>
		<g>
			<path class="st1" d="M216.392,130.396l-16.582-9.304c-0.347-0.194-0.755-0.244-1.141-0.136c-0.383,0.107-0.707,0.363-0.902,0.71     l-34.69,61.825c-0.405,0.722-0.147,1.637,0.574,2.042l16.582,9.304c0.227,0.127,0.479,0.192,0.734,0.192     c0.136,0,0.272-0.018,0.406-0.056c0.383-0.108,0.707-0.363,0.902-0.71l34.689-61.825     C217.371,131.715,217.113,130.801,216.392,130.396z M180.394,191.487l-13.966-7.836l33.222-59.209l13.966,7.836L180.394,191.487z     "/>
		</g>
	</g>
	<g>
		<g>
			<path class="st5" d="M233.209,80.993c-4.579-2.569-10.374-0.94-12.943,3.639l-3.35,5.971l16.583,9.304l3.35-5.971     C239.417,89.357,237.788,83.562,233.209,80.993z"/>
		</g>
	</g>
	<g>
		<g>
			<path class="st1" d="M233.943,79.685c-5.293-2.969-12.017-1.08-14.986,4.213l-3.35,5.971c-0.405,0.723-0.147,1.637,0.574,2.042     l16.582,9.304c0.227,0.127,0.479,0.192,0.734,0.192c0.136,0,0.272-0.018,0.406-0.056c0.383-0.107,0.707-0.363,0.902-0.71     l3.35-5.971C241.126,89.377,239.236,82.654,233.943,79.685z M235.539,93.202l-2.615,4.663l-13.966-7.836l2.616-4.663     c2.159-3.85,7.051-5.226,10.9-3.065c1.865,1.046,3.212,2.757,3.79,4.816C236.844,89.176,236.586,91.337,235.539,93.202z"/>
		</g>
	</g>
	<g>
		<g>
			<path class="st0" d="M146.545,216.021l-0.774,16.223c-0.099,2.065,2.202,3.356,3.913,2.196l13.443-9.115L146.545,216.021z"/>
		</g>
	</g>
	<g>
		<g>
			<path class="st1" d="M163.862,224.017l-16.583-9.304c-0.455-0.254-1.007-0.256-1.461-0.004c-0.455,0.252-0.747,0.721-0.771,1.241     l-0.773,16.223c-0.073,1.526,0.709,2.939,2.042,3.686c0.615,0.346,1.29,0.517,1.964,0.517c0.784,0,1.566-0.233,2.247-0.694     l13.443-9.115c0.431-0.292,0.679-0.786,0.657-1.305C164.604,224.742,164.315,224.271,163.862,224.017z M148.843,233.199     c-0.468,0.316-0.898,0.136-1.06,0.044c-0.163-0.091-0.54-0.365-0.514-0.927l0.658-13.799l12.35,6.929L148.843,233.199z"/>
		</g>
	</g>
	<g>
		<g>
			<path class="st1" d="M234.232,98.599c-0.722-0.405-1.637-0.149-2.043,0.574c-0.405,0.722-0.147,1.637,0.574,2.042     c4.425,2.483,6.005,8.103,3.522,12.527l-29.499,52.574c-0.405,0.722-0.147,1.637,0.574,2.042c0.232,0.13,0.484,0.192,0.733,0.192     c0.524,0,1.034-0.276,1.31-0.767l29.499-52.574C242.194,109.343,240.1,101.891,234.232,98.599z"/>
		</g>
	</g>
	<g>
		<g>
			<path class="st2" d="M99.408,67.438c-26.588-0.14-48.008,20.807-48.434,47.392c-0.218,13.609,5.211,25.946,14.094,34.833     c2.671,2.672,4.883,5.717,6.578,9.009l3.172,9.042c0.426,2.139,0.652,4.328,0.652,6.548v0.269h47.357v-0.233     c0-9.082,3.503-17.888,9.999-24.235c8.948-8.745,14.505-20.942,14.505-34.443C147.331,89.096,125.899,67.578,99.408,67.438z"/>
		</g>
	</g>
	<g>
		<g>
			<path class="st1" d="M99.415,65.938c-0.092,0-0.184,0-0.277,0c-27.434,0-49.225,21.414-49.665,48.868     c-0.217,13.568,4.944,26.324,14.533,35.917c2.52,2.521,4.625,5.395,6.258,8.544l3.102,8.843c0.4,2.046,0.604,4.115,0.604,6.152     v0.269c0,0.829,0.671,1.5,1.5,1.5h47.357c0.829,0,1.5-0.671,1.5-1.5v-0.233c0-8.791,3.479-17.233,9.547-23.163     c9.644-9.425,14.956-22.038,14.956-35.516C148.831,88.369,126.664,66.081,99.415,65.938z M131.777,148.99     c-6.348,6.204-10.108,14.906-10.428,24.041H76.948c-0.068-1.866-0.289-3.747-0.659-5.609c-0.014-0.069-0.032-0.137-0.056-0.204     l-3.172-9.043c-0.023-0.065-0.05-0.128-0.082-0.19c-1.782-3.461-4.087-6.618-6.851-9.383c-9.01-9.014-13.86-20.999-13.655-33.748     C52.887,89.056,73.36,68.938,99.14,68.938c0.085,0,0.175,0,0.26,0c25.602,0.134,46.431,21.076,46.431,46.681     C145.831,128.283,140.84,140.134,131.777,148.99z"/>
		</g>
	</g>
	<g>
		<g>
			<path class="st0" d="M121.368,174.531H76.93c-2.615,0-4.735,2.12-4.735,4.735c0,2.615,2.12,4.735,4.735,4.735h44.438     c2.615,0,4.735-2.12,4.735-4.735C126.103,176.651,123.983,174.531,121.368,174.531z"/>
		</g>
	</g>
	<g>
		<g>
			<path class="st1" d="M121.368,173.031H76.93c-3.438,0-6.235,2.797-6.235,6.235s2.797,6.235,6.235,6.235h44.438     c3.438,0,6.235-2.797,6.235-6.235S124.806,173.031,121.368,173.031z M121.368,182.501H76.93c-1.784,0-3.235-1.451-3.235-3.235     s1.451-3.235,3.235-3.235h44.438c1.784,0,3.235,1.451,3.235,3.235S123.152,182.501,121.368,182.501z"/>
		</g>
	</g>
	<g>
		<g>
			<path class="st0" d="M121.368,184.001H76.93c-2.615,0-4.735,2.12-4.735,4.735c0,2.615,2.12,4.735,4.735,4.735h44.438     c2.615,0,4.735-2.12,4.735-4.735C126.103,186.121,123.983,184.001,121.368,184.001z"/>
		</g>
	</g>
	<g>
		<g>
			<path class="st1" d="M121.368,182.501H76.93c-3.438,0-6.235,2.797-6.235,6.235c0,3.438,2.797,6.235,6.235,6.235h44.438     c3.438,0,6.235-2.797,6.235-6.235C127.603,185.298,124.806,182.501,121.368,182.501z M121.368,191.971H76.93     c-1.784,0-3.235-1.451-3.235-3.235c0-1.784,1.451-3.235,3.235-3.235h44.438c1.784,0,3.235,1.451,3.235,3.235     C124.603,190.52,123.152,191.971,121.368,191.971z"/>
		</g>
	</g>
	<g>
		<g>
			<path class="st0" d="M77.456,193.471c0,5.171,4.192,9.364,9.364,9.364h24.659c5.171,0,9.364-4.192,9.364-9.364H77.456z"/>
		</g>
	</g>
	<g>
		<g>
			<path class="st1" d="M120.842,191.971H77.456c-0.829,0-1.5,0.671-1.5,1.5c0,5.99,4.874,10.864,10.864,10.864h6.565     c0.829,0,1.5-0.671,1.5-1.5c0-0.829-0.671-1.5-1.5-1.5h-6.565c-3.823,0-7.018-2.743-7.72-6.364h40.1     c-0.702,3.621-3.897,6.364-7.72,6.364h-3.912c-0.829,0-1.5,0.671-1.5,1.5c0,0.829,0.671,1.5,1.5,1.5h3.912     c5.99,0,10.864-4.874,10.864-10.864C122.342,192.642,121.671,191.971,120.842,191.971z"/>
		</g>
	</g>
	<g>
		<g>
			<path class="st1" d="M99.149,51.666c-0.829,0-1.5,0.671-1.5,1.5v7.878c0,0.829,0.671,1.5,1.5,1.5s1.5-0.671,1.5-1.5v-7.878     C100.649,52.337,99.977,51.666,99.149,51.666z"/>
		</g>
	</g>
	<g>
		<g>
			<path class="st1" d="M119.479,54.951c-0.79-0.261-1.636,0.165-1.896,0.951l-2.481,7.477c-0.261,0.787,0.165,1.635,0.951,1.896     c0.157,0.052,0.316,0.077,0.473,0.077c0.629,0,1.215-0.398,1.424-1.028l2.482-7.477     C120.691,56.061,120.266,55.212,119.479,54.951z"/>
		</g>
	</g>
	<g>
		<g>
			<path class="st1" d="M137.74,64.476c-0.664-0.496-1.604-0.359-2.1,0.305l-4.711,6.313c-0.495,0.664-0.358,1.604,0.305,2.099     c0.269,0.201,0.584,0.298,0.896,0.298c0.457,0,0.908-0.208,1.203-0.603l4.711-6.313C138.54,65.911,138.403,64.971,137.74,64.476z     "/>
		</g>
	</g>
	<g>
		<g>
			<path class="st1" d="M152.07,79.267c-0.476-0.68-1.41-0.846-2.089-0.372l-6.46,4.508c-0.68,0.474-0.846,1.409-0.372,2.088     c0.292,0.418,0.758,0.642,1.232,0.642c0.297,0,0.596-0.087,0.857-0.27l6.46-4.508C152.378,80.881,152.544,79.946,152.07,79.267z"/>
		</g>
	</g>
	<g>
		<g>
			<path class="st1" d="M161.01,97.82c-0.235-0.794-1.069-1.243-1.865-1.011l-7.551,2.244c-0.794,0.236-1.246,1.071-1.01,1.865     c0.193,0.652,0.79,1.073,1.437,1.073c0.142,0,0.286-0.021,0.429-0.062L160,99.685C160.794,99.449,161.246,98.614,161.01,97.82z"/>
		</g>
	</g>
	<g>
		<g>
			<path class="st1" d="M162.198,116.698l-7.873-0.25c-0.831-0.024-1.521,0.623-1.547,1.451c-0.026,0.828,0.623,1.521,1.451,1.547     l7.873,0.25c0.017,0,0.032,0.001,0.049,0.001c0.807,0,1.473-0.641,1.498-1.452C163.676,117.417,163.026,116.724,162.198,116.698z     "/>
		</g>
	</g>
	<g>
		<g>
			<path class="st1" d="M158.83,136.536l-7.394-2.717c-0.779-0.289-1.64,0.112-1.926,0.89c-0.285,0.778,0.113,1.64,0.891,1.925     l7.393,2.717c0.171,0.063,0.346,0.093,0.518,0.093c0.61,0,1.185-0.376,1.408-0.983     C160.006,137.683,159.607,136.821,158.83,136.536z"/>
		</g>
	</g>
	<g>
		<g>
			<path class="st1" d="M149.384,154.302l-6.161-4.908c-0.648-0.516-1.592-0.409-2.107,0.239c-0.517,0.648-0.41,1.592,0.238,2.108     l6.161,4.908c0.276,0.22,0.607,0.327,0.934,0.327c0.441,0,0.878-0.193,1.174-0.565     C150.139,155.762,150.032,154.818,149.384,154.302z"/>
		</g>
	</g>
	<g>
		<g>
			<path class="st1" d="M83.196,63.379l-2.482-7.477c-0.261-0.786-1.11-1.213-1.896-0.951c-0.786,0.261-1.212,1.11-0.951,1.896     l2.481,7.477c0.209,0.629,0.795,1.028,1.424,1.028c0.156,0,0.316-0.025,0.473-0.077C83.031,65.014,83.457,64.166,83.196,63.379z"/>
		</g>
	</g>
	<g>
		<g>
			<path class="st1" d="M67.368,71.094l-4.711-6.313c-0.495-0.665-1.436-0.801-2.099-0.305c-0.664,0.496-0.801,1.435-0.305,2.099     l4.711,6.313c0.294,0.395,0.746,0.603,1.203,0.603c0.312,0,0.627-0.097,0.896-0.298C67.727,72.698,67.864,71.758,67.368,71.094z"/>
		</g>
	</g>
	<g>
		<g>
			<path class="st1" d="M54.776,83.404l-6.459-4.508c-0.678-0.474-1.614-0.308-2.088,0.372c-0.474,0.679-0.308,1.614,0.372,2.088     l6.459,4.508c0.261,0.183,0.56,0.27,0.857,0.27c0.474,0,0.94-0.224,1.231-0.642C55.622,84.813,55.456,83.878,54.776,83.404z"/>
		</g>
	</g>
	<g>
		<g>
			<path class="st1" d="M46.704,99.053l-7.551-2.244c-0.793-0.238-1.629,0.217-1.865,1.011c-0.236,0.794,0.217,1.629,1.011,1.865     l7.551,2.244c0.143,0.042,0.286,0.062,0.428,0.062c0.647,0,1.244-0.422,1.438-1.073C47.951,100.124,47.498,99.289,46.704,99.053z     "/>
		</g>
	</g>
	<g>
		<g>
			<path class="st1" d="M43.973,116.448l-7.873,0.25c-0.828,0.026-1.478,0.719-1.452,1.547c0.025,0.811,0.692,1.452,1.498,1.452     c0.016,0,0.032-0.001,0.048-0.001l7.873-0.25c0.828-0.026,1.478-0.719,1.452-1.547C45.494,117.072,44.813,116.429,43.973,116.448     z"/>
		</g>
	</g>
	<g>
		<g>
			<path class="st1" d="M48.787,134.708c-0.286-0.778-1.146-1.178-1.925-0.89l-7.394,2.717c-0.777,0.286-1.176,1.148-0.89,1.925     c0.223,0.607,0.797,0.983,1.408,0.983c0.172,0,0.347-0.03,0.518-0.093l7.394-2.717C48.674,136.348,49.073,135.486,48.787,134.708     z"/>
		</g>
	</g>
	<g>
		<g>
			<path class="st1" d="M57.183,149.632c-0.516-0.648-1.46-0.754-2.108-0.239l-6.161,4.908c-0.648,0.517-0.755,1.46-0.239,2.108     c0.296,0.372,0.733,0.565,1.174,0.565c0.328,0,0.658-0.107,0.934-0.327l6.161-4.908C57.592,151.224,57.699,150.28,57.183,149.632     z"/>
		</g>
	</g>
	<g>
		<g>
			<path class="st11" d="M155.675,18.06h-15c13.28,0,24.09,10.8,24.09,24.09v111.6l-16.69,29.74l-17.84,31.8     c-0.05,0.09-0.09,0.18-0.12,0.28c0,0.01,0,0.02-0.01,0.03c-0.03,0.1-0.04,0.21-0.05,0.31c0,0.01-0.01,0.03-0.01,0.04l-0.77,16.22     c-0.08,1.53,0.71,2.94,2.04,3.69c0.62,0.35,1.29,0.52,1.96,0.52c0.79,0,1.57-0.24,2.25-0.7l8.87-6.01l0.65-13.72     c0-0.01,0.01-0.03,0.01-0.04c0.01-0.1,0.02-0.21,0.05-0.31c0.01-0.01,0.01-0.02,0.01-0.03c0.03-0.1,0.07-0.19,0.12-0.28     l17.84-31.8l16.69-29.74V42.15C179.766,28.86,168.955,18.06,155.675,18.06z"/>
		</g>
	</g>
	<g>
		<g>
			<path class="st11" d="M164.435,226.06c-0.02,0.04-0.05,0.07-0.08,0.1c-0.04,0.07-0.08,0.13-0.14,0.19     c-0.04,0.04-0.09,0.08-0.14,0.12c-0.03,0.03-0.06,0.07-0.11,0.1l-6.11,4.14c-4.37,4.46-10.46,7.23-17.18,7.23h15     c13.28,0,24.09-10.8,24.09-24.09v-15.11L164.435,226.06z"/>
		</g>
	</g>
</g>
</svg>
