<svg enable-background="new 0 0 256 256" height="512" viewBox="0 0 256 256" width="512" xmlns="http://www.w3.org/2000/svg"><g id="Layer_80"><g><g><g><path d="m145.998 204.999c0-26.43 21.502-47.932 47.932-47.932 9.061 0 17.541 2.529 24.776 6.915v-116.451c0-6.352-5.197-11.549-11.549-11.549h-9.299v13.812c0 3.167-2.567 5.733-5.733 5.733s-5.733-2.567-5.733-5.733v-13.812h-16.783v13.291c0 3.167-2.567 5.733-5.733 5.733-3.167 0-5.733-2.567-5.733-5.733v-13.291h-16.783v13.812c0 3.167-2.567 5.733-5.733 5.733s-5.733-2.567-5.733-5.733v-13.812h-16.783v13.291c0 3.167-2.567 5.733-5.733 5.733-3.167 0-5.733-2.567-5.733-5.733v-13.291h-16.786v13.812c0 3.167-2.567 5.733-5.733 5.733s-5.733-2.567-5.733-5.733v-13.812h-16.784v13.291c0 3.167-2.567 5.733-5.733 5.733s-5.733-2.567-5.733-5.733v-13.291h-9.299c-6.352 0-11.549 5.197-11.549 11.549v171.314c0 6.352 5.197 11.549 11.549 11.549h117.462c-4.624-7.369-7.308-16.072-7.308-25.395z" fill="#edf4fc"/></g></g><g><g><path d="m207.157 35.982h-9.299v13.812c0 3.166-2.567 5.733-5.733 5.733s-5.733-2.567-5.733-5.733v-13.812h-16.783v13.291c0 3.166-2.567 5.733-5.733 5.733s-5.733-2.567-5.733-5.733v-13.291h-16.783v13.812c0 3.166-2.567 5.733-5.733 5.733s-5.733-2.567-5.733-5.733v-13.812h-16.783v13.291c0 3.166-2.567 5.733-5.733 5.733s-5.733-2.567-5.733-5.733v-13.291h-16.786v13.812c0 3.166-2.567 5.733-5.733 5.733s-5.733-2.567-5.733-5.733v-13.812h-16.784v13.291c0 3.166-2.567 5.733-5.733 5.733s-5.733-2.567-5.733-5.733v-13.291h-9.299c-6.352 0-11.549 5.197-11.549 11.549v25.718h194.412v-25.718c-.001-6.352-5.198-11.549-11.55-11.549z" fill="#fc657e"/></g></g><g><g><path d="m50.876 20.606c-3.166 0-5.733 2.567-5.733 5.733v22.933c0 3.166 2.567 5.733 5.733 5.733s5.733-2.567 5.733-5.733v-22.933c0-3.166-2.567-5.733-5.733-5.733z" fill="#f5c84c"/></g></g><g><g><path d="m79.125 21.127c-3.166 0-5.733 2.567-5.733 5.733v22.933c0 3.166 2.567 5.733 5.733 5.733s5.733-2.567 5.733-5.733v-22.932c.001-3.167-2.566-5.734-5.733-5.734z" fill="#f5c84c"/></g></g><g><g><path d="m107.375 20.606c-3.166 0-5.733 2.567-5.733 5.733v22.933c0 3.166 2.567 5.733 5.733 5.733s5.733-2.567 5.733-5.733v-22.933c0-3.166-2.567-5.733-5.733-5.733z" fill="#f5c84c"/></g></g><g><g><path d="m135.625 21.127c-3.166 0-5.733 2.567-5.733 5.733v22.933c0 3.166 2.567 5.733 5.733 5.733s5.733-2.567 5.733-5.733v-22.932c0-3.167-2.567-5.734-5.733-5.734z" fill="#f5c84c"/></g></g><g><g><path d="m163.874 20.606c-3.166 0-5.733 2.567-5.733 5.733v22.933c0 3.166 2.567 5.733 5.733 5.733s5.733-2.567 5.733-5.733v-22.933c.001-3.166-2.566-5.733-5.733-5.733z" fill="#f5c84c"/></g></g><g><g><path d="m192.124 21.127c-3.166 0-5.733 2.567-5.733 5.733v22.933c0 3.166 2.567 5.733 5.733 5.733s5.733-2.567 5.733-5.733v-22.932c0-3.167-2.566-5.734-5.733-5.734z" fill="#f5c84c"/></g></g><g><g><path d="m62.044 89.449h-14.488c-1.752 0-3.173 1.421-3.173 3.173v14.489c0 1.752 1.421 3.173 3.173 3.173h14.488c1.752 0 3.173-1.421 3.173-3.173v-14.489c0-1.752-1.42-3.173-3.173-3.173z" fill="#fcdd86"/></g></g><g><g><path d="m95.394 89.449h-14.488c-1.752 0-3.173 1.421-3.173 3.173v14.489c0 1.752 1.421 3.173 3.173 3.173h14.488c1.752 0 3.173-1.421 3.173-3.173v-14.489c0-1.752-1.42-3.173-3.173-3.173z" fill="#fcdd86"/></g></g><g><g><path d="m128.744 89.449h-14.488c-1.752 0-3.173 1.421-3.173 3.173v14.489c0 1.752 1.421 3.173 3.173 3.173h14.488c1.752 0 3.173-1.421 3.173-3.173v-14.489c0-1.752-1.42-3.173-3.173-3.173z" fill="#fcdd86"/></g></g><g><g><path d="m162.094 89.449h-14.488c-1.752 0-3.173 1.421-3.173 3.173v14.489c0 1.752 1.421 3.173 3.173 3.173h14.488c1.752 0 3.173-1.421 3.173-3.173v-14.489c0-1.752-1.42-3.173-3.173-3.173z" fill="#fcdd86"/></g></g><g><g><path d="m195.444 89.449h-14.488c-1.752 0-3.173 1.421-3.173 3.173v14.489c0 1.752 1.421 3.173 3.173 3.173h14.488c1.752 0 3.173-1.421 3.173-3.173v-14.489c0-1.752-1.42-3.173-3.173-3.173z" fill="#fcdd86"/></g></g><g><g><path d="m62.044 123.083h-14.488c-1.752 0-3.173 1.421-3.173 3.173v14.489c0 1.752 1.421 3.173 3.173 3.173h14.488c1.752 0 3.173-1.421 3.173-3.173v-14.489c0-1.752-1.42-3.173-3.173-3.173z" fill="#fcdd86"/></g></g><g><g><path d="m95.394 123.083h-14.488c-1.752 0-3.173 1.421-3.173 3.173v14.489c0 1.752 1.421 3.173 3.173 3.173h14.488c1.752 0 3.173-1.421 3.173-3.173v-14.489c0-1.752-1.42-3.173-3.173-3.173z" fill="#fcdd86"/></g></g><g><g><path d="m128.744 123.083h-14.488c-1.752 0-3.173 1.421-3.173 3.173v14.489c0 1.752 1.421 3.173 3.173 3.173h14.488c1.752 0 3.173-1.421 3.173-3.173v-14.489c0-1.752-1.42-3.173-3.173-3.173z" fill="#fcdd86"/></g></g><g><g><path d="m162.094 123.083h-14.488c-1.752 0-3.173 1.421-3.173 3.173v14.489c0 1.752 1.421 3.173 3.173 3.173h14.488c1.752 0 3.173-1.421 3.173-3.173v-14.489c0-1.752-1.42-3.173-3.173-3.173z" fill="#fcdd86"/></g></g><g><g><path d="m195.444 123.083h-14.488c-1.752 0-3.173 1.421-3.173 3.173v14.489c0 1.752 1.421 3.173 3.173 3.173h14.488c1.752 0 3.173-1.421 3.173-3.173v-14.489c0-1.752-1.42-3.173-3.173-3.173z" fill="#fcdd86"/></g></g><g><g><path d="m62.044 156.717h-14.488c-1.752 0-3.173 1.421-3.173 3.173v14.489c0 1.752 1.421 3.173 3.173 3.173h14.488c1.752 0 3.173-1.421 3.173-3.173v-14.489c0-1.753-1.42-3.173-3.173-3.173z" fill="#fcdd86"/></g></g><g><g><path d="m95.394 156.717h-14.488c-1.752 0-3.173 1.421-3.173 3.173v14.489c0 1.752 1.421 3.173 3.173 3.173h14.488c1.752 0 3.173-1.421 3.173-3.173v-14.489c0-1.753-1.42-3.173-3.173-3.173z" fill="#fcdd86"/></g></g><g><g><path d="m128.744 156.717h-14.488c-1.752 0-3.173 1.421-3.173 3.173v14.489c0 1.752 1.421 3.173 3.173 3.173h14.488c1.752 0 3.173-1.421 3.173-3.173v-14.489c0-1.753-1.42-3.173-3.173-3.173z" fill="#fcdd86"/></g></g><g><g><path d="m165.267 159.89c0-1.752-1.421-3.173-3.173-3.173h-14.489c-1.752 0-3.173 1.42-3.173 3.173v14.488c0 1.752 1.421 3.173 3.173 3.173h7.064c2.934-4.184 6.509-7.888 10.597-10.947v-6.714z" fill="#fcdd86"/></g></g><g><g><path d="m62.044 190.35h-14.488c-1.752 0-3.173 1.421-3.173 3.173v14.489c0 1.752 1.421 3.173 3.173 3.173h14.488c1.752 0 3.173-1.421 3.173-3.173v-14.489c0-1.752-1.42-3.173-3.173-3.173z" fill="#fcdd86"/></g></g><g><g><path d="m95.394 190.35h-14.488c-1.752 0-3.173 1.421-3.173 3.173v14.489c0 1.752 1.421 3.173 3.173 3.173h14.488c1.752 0 3.173-1.421 3.173-3.173v-14.489c0-1.752-1.42-3.173-3.173-3.173z" fill="#fcdd86"/></g></g><g><g><path d="m128.744 190.35h-14.488c-1.752 0-3.173 1.421-3.173 3.173v14.489c0 1.752 1.421 3.173 3.173 3.173h14.488c1.752 0 3.173-1.421 3.173-3.173v-14.489c0-1.752-1.42-3.173-3.173-3.173z" fill="#fcdd86"/></g></g><g><g><path d="m223.331 12.882c-4.498-.838-8.043-4.31-8.898-8.716-.043-.221-.352-.221-.395 0-.855 4.406-4.4 7.879-8.898 8.716-.226.042-.226.345 0 .387 4.498.838 8.043 4.31 8.898 8.717.043.221.352.221.395 0 .855-4.406 4.4-7.879 8.898-8.717.225-.042.225-.344 0-.387z" fill="#70d6f9"/></g></g><g><g><path d="m245.381 153.94c-3.156-.588-5.643-3.024-6.243-6.116-.03-.155-.247-.155-.277 0-.6 3.091-3.087 5.528-6.243 6.116-.158.03-.158.242 0 .271 3.156.588 5.643 3.024 6.243 6.116.03.155.247.155.277 0 .6-3.091 3.087-5.528 6.243-6.116.159-.029.159-.241 0-.271z" fill="#f5c84c"/></g></g><g><g><path d="m82.942 244.198h2.33v-2.33c0-1.744 1.413-3.157 3.157-3.157s3.157 1.413 3.157 3.157v2.33h2.329c1.744 0 3.157 1.413 3.157 3.157s-1.413 3.157-3.157 3.157h-2.329v2.33c0 1.744-1.413 3.157-3.157 3.157s-3.157-1.413-3.157-3.157v-2.33h-2.33c-1.744 0-3.157-1.413-3.157-3.157s1.413-3.157 3.157-3.157z" fill="#fc657e"/></g></g><g><g><circle cx="59.877" cy="242.623" fill="#f5c84c" r="3.377"/></g></g><g><g><circle cx="13.877" cy="76.623" fill="#70d6f9" r="3.377"/></g></g><g><g><circle cx="186.877" cy="3.377" fill="#87d147" r="3.377"/></g></g><g><g><path d="m193.93 157.067c-26.43 0-47.932 21.502-47.932 47.932 0 26.431 21.502 47.934 47.932 47.934s47.932-21.502 47.932-47.934c0-26.43-21.502-47.932-47.932-47.932z" fill="#70d6f9"/></g></g><g><g><circle cx="193.93" cy="205" fill="#edf4fc" r="33.557"/></g></g><g><g><path d="m193.93 255.433c-27.809 0-50.432-22.624-50.432-50.434 0-27.808 22.623-50.432 50.432-50.432s50.433 22.624 50.433 50.432c-.001 27.81-22.625 50.434-50.433 50.434zm0-95.866c-25.051 0-45.432 20.381-45.432 45.432 0 25.052 20.381 45.434 45.432 45.434 25.052 0 45.433-20.382 45.433-45.434-.001-25.051-20.382-45.432-45.433-45.432z"/></g></g><g><g><path d="m160.373 205h33.557c0-11.668 0-21.609 0-33.557-18.503 0-33.557 15.053-33.557 33.557z" fill="#fc657e"/></g></g><g><g><path d="m193.93 241.057c-19.882 0-36.057-16.175-36.057-36.057s16.175-36.057 36.057-36.057 36.058 16.175 36.058 36.057-16.176 36.057-36.058 36.057zm0-67.114c-17.125 0-31.057 13.932-31.057 31.057s13.932 31.057 31.057 31.057 31.058-13.932 31.058-31.057-13.933-31.057-31.058-31.057z"/></g></g><g><g><path d="m193.93 181.131c-1.381 0-2.5-1.119-2.5-2.5v-7.188c0-1.381 1.119-2.5 2.5-2.5s2.5 1.119 2.5 2.5v7.188c0 1.381-1.119 2.5-2.5 2.5z"/></g></g><g><g><path d="m193.93 241.057c-1.381 0-2.5-1.119-2.5-2.5v-7.188c0-1.381 1.119-2.5 2.5-2.5s2.5 1.119 2.5 2.5v7.188c0 1.381-1.119 2.5-2.5 2.5z"/></g></g><g><g><path d="m167.562 207.5h-7.188c-1.381 0-2.5-1.119-2.5-2.5s1.119-2.5 2.5-2.5h7.188c1.381 0 2.5 1.119 2.5 2.5s-1.12 2.5-2.5 2.5z"/></g></g><g><g><path d="m227.487 207.5h-7.188c-1.381 0-2.5-1.119-2.5-2.5s1.119-2.5 2.5-2.5h7.188c1.381 0 2.5 1.119 2.5 2.5s-1.119 2.5-2.5 2.5z"/></g></g><g><g><path d="m193.93 207.5c-1.381 0-2.5-1.119-2.5-2.5v-16.065c0-1.381 1.119-2.5 2.5-2.5s2.5 1.119 2.5 2.5v16.065c0 1.381-1.119 2.5-2.5 2.5z"/></g></g><g><g><path d="m193.93 207.5h-14.494c-1.381 0-2.5-1.119-2.5-2.5s1.119-2.5 2.5-2.5h14.494c1.381 0 2.5 1.119 2.5 2.5s-1.119 2.5-2.5 2.5z"/></g></g><g><g><path d="m152.984 232.895h-117.141c-7.746 0-14.049-6.303-14.049-14.05v-171.314c0-7.746 6.303-14.049 14.049-14.049h8.844c1.381 0 2.5 1.119 2.5 2.5s-1.119 2.5-2.5 2.5h-8.844c-4.989 0-9.049 4.06-9.049 9.049v171.313c0 4.99 4.06 9.05 9.049 9.05h117.142c1.381 0 2.5 1.119 2.5 2.5s-1.12 2.501-2.501 2.501z"/></g></g><g><g><path d="m72.844 38.482h-15.344c-1.381 0-2.5-1.119-2.5-2.5s1.119-2.5 2.5-2.5h15.344c1.381 0 2.5 1.119 2.5 2.5s-1.119 2.5-2.5 2.5z"/></g></g><g><g><path d="m101.125 38.482h-15.458c-1.381 0-2.5-1.119-2.5-2.5s1.119-2.5 2.5-2.5h15.458c1.381 0 2.5 1.119 2.5 2.5s-1.119 2.5-2.5 2.5z"/></g></g><g><g><path d="m129.438 38.482h-15.438c-1.381 0-2.5-1.119-2.5-2.5s1.119-2.5 2.5-2.5h15.438c1.381 0 2.5 1.119 2.5 2.5s-1.119 2.5-2.5 2.5z"/></g></g><g><g><path d="m157.417 38.482h-15.448c-1.381 0-2.5-1.119-2.5-2.5s1.119-2.5 2.5-2.5h15.448c1.381 0 2.5 1.119 2.5 2.5s-1.119 2.5-2.5 2.5z"/></g></g><g><g><path d="m185.563 38.482h-15.229c-1.381 0-2.5-1.119-2.5-2.5s1.119-2.5 2.5-2.5h15.229c1.381 0 2.5 1.119 2.5 2.5s-1.12 2.5-2.5 2.5z"/></g></g><g><g><path d="m218.706 166.261c-1.381 0-2.5-1.119-2.5-2.5v-116.23c0-4.989-4.06-9.049-9.05-9.049h-8.218c-1.381 0-2.5-1.119-2.5-2.5s1.119-2.5 2.5-2.5h8.218c7.747 0 14.05 6.303 14.05 14.049v116.229c0 1.382-1.119 2.501-2.5 2.501z"/></g></g><g><g><path d="m217.917 75.748h-193.104c-1.381 0-2.5-1.119-2.5-2.5s1.119-2.5 2.5-2.5h193.104c1.381 0 2.5 1.119 2.5 2.5s-1.119 2.5-2.5 2.5z"/></g></g><g><g><path d="m50.876 57.506c-4.54 0-8.233-3.693-8.233-8.233v-22.933c0-4.54 3.693-8.233 8.233-8.233s8.233 3.693 8.233 8.233v22.933c0 4.54-3.693 8.233-8.233 8.233zm0-34.4c-1.783 0-3.233 1.45-3.233 3.233v22.933c0 1.783 1.45 3.233 3.233 3.233s3.233-1.45 3.233-3.233v-22.932c0-1.783-1.45-3.234-3.233-3.234z"/></g></g><g><g><path d="m79.125 58.027c-4.54 0-8.233-3.693-8.233-8.233v-22.934c0-4.54 3.693-8.233 8.233-8.233s8.233 3.693 8.233 8.233v22.934c0 4.54-3.693 8.233-8.233 8.233zm0-34.4c-1.783 0-3.233 1.45-3.233 3.233v22.934c0 1.783 1.45 3.233 3.233 3.233s3.233-1.45 3.233-3.233v-22.934c0-1.783-1.45-3.233-3.233-3.233z"/></g></g><g><g><path d="m107.375 57.506c-4.54 0-8.233-3.693-8.233-8.233v-22.933c0-4.54 3.693-8.233 8.233-8.233s8.233 3.693 8.233 8.233v22.933c0 4.54-3.693 8.233-8.233 8.233zm0-34.4c-1.783 0-3.233 1.45-3.233 3.233v22.933c0 1.783 1.45 3.233 3.233 3.233s3.233-1.45 3.233-3.233v-22.932c0-1.783-1.45-3.234-3.233-3.234z"/></g></g><g><g><path d="m135.625 58.027c-4.54 0-8.233-3.693-8.233-8.233v-22.934c0-4.54 3.693-8.233 8.233-8.233s8.233 3.693 8.233 8.233v22.934c0 4.54-3.693 8.233-8.233 8.233zm0-34.4c-1.783 0-3.233 1.45-3.233 3.233v22.934c0 1.783 1.45 3.233 3.233 3.233s3.233-1.45 3.233-3.233v-22.934c0-1.783-1.45-3.233-3.233-3.233z"/></g></g><g><g><path d="m163.874 57.506c-4.539 0-8.232-3.693-8.232-8.233v-22.933c0-4.54 3.693-8.233 8.232-8.233 4.54 0 8.233 3.693 8.233 8.233v22.933c0 4.54-3.693 8.233-8.233 8.233zm0-34.4c-1.782 0-3.232 1.45-3.232 3.233v22.933c0 1.783 1.45 3.233 3.232 3.233 1.783 0 3.233-1.45 3.233-3.233v-22.932c0-1.783-1.45-3.234-3.233-3.234z"/></g></g><g><g><path d="m192.124 58.027c-4.54 0-8.233-3.693-8.233-8.233v-22.934c0-4.54 3.693-8.233 8.233-8.233s8.233 3.693 8.233 8.233v22.934c0 4.54-3.693 8.233-8.233 8.233zm0-34.4c-1.783 0-3.233 1.45-3.233 3.233v22.934c0 1.783 1.45 3.233 3.233 3.233s3.233-1.45 3.233-3.233v-22.934c0-1.783-1.45-3.233-3.233-3.233z"/></g></g><g><g><path d="m62.044 112.783h-14.488c-3.128 0-5.673-2.545-5.673-5.673v-14.488c0-3.128 2.545-5.673 5.673-5.673h14.488c3.128 0 5.673 2.545 5.673 5.673v14.488c0 3.128-2.545 5.673-5.673 5.673zm-14.488-20.834c-.371 0-.673.302-.673.673v14.488c0 .371.302.673.673.673h14.488c.371 0 .673-.302.673-.673v-14.488c0-.371-.302-.673-.673-.673z"/></g></g><g><g><path d="m95.395 112.783h-14.489c-3.129 0-5.674-2.545-5.674-5.673v-14.488c0-3.128 2.545-5.673 5.674-5.673h14.488c3.128 0 5.673 2.545 5.673 5.673v14.488c0 3.128-2.545 5.673-5.672 5.673zm-14.489-20.834c-.371 0-.674.302-.674.673v14.488c0 .371.303.673.674.673h14.488c.371 0 .673-.302.673-.673v-14.488c0-.371-.302-.673-.673-.673z"/></g></g><g><g><path d="m128.744 112.783h-14.488c-3.128 0-5.673-2.545-5.673-5.673v-14.488c0-3.128 2.545-5.673 5.673-5.673h14.488c3.128 0 5.673 2.545 5.673 5.673v14.488c0 3.128-2.545 5.673-5.673 5.673zm-14.488-20.834c-.371 0-.673.302-.673.673v14.488c0 .371.302.673.673.673h14.488c.371 0 .673-.302.673-.673v-14.488c0-.371-.302-.673-.673-.673z"/></g></g><g><g><path d="m162.095 112.783h-14.488c-3.129 0-5.674-2.545-5.674-5.673v-14.488c0-3.128 2.545-5.673 5.674-5.673h14.488c3.128 0 5.673 2.545 5.673 5.673v14.488c0 3.128-2.545 5.673-5.673 5.673zm-14.489-20.834c-.371 0-.674.302-.674.673v14.488c0 .371.303.673.674.673h14.488c.371 0 .673-.302.673-.673v-14.488c0-.371-.302-.673-.673-.673z"/></g></g><g><g><path d="m195.444 112.783h-14.488c-3.128 0-5.673-2.545-5.673-5.673v-14.488c0-3.128 2.545-5.673 5.673-5.673h14.488c3.128 0 5.673 2.545 5.673 5.673v14.488c0 3.128-2.545 5.673-5.673 5.673zm-14.488-20.834c-.371 0-.673.302-.673.673v14.488c0 .371.302.673.673.673h14.488c.371 0 .673-.302.673-.673v-14.488c0-.371-.302-.673-.673-.673z"/></g></g><g><g><path d="m62.044 146.417h-14.488c-3.128 0-5.673-2.545-5.673-5.673v-14.488c0-3.128 2.545-5.673 5.673-5.673h14.488c3.128 0 5.673 2.545 5.673 5.673v14.488c0 3.128-2.545 5.673-5.673 5.673zm-14.488-20.834c-.371 0-.673.302-.673.673v14.488c0 .371.302.673.673.673h14.488c.371 0 .673-.302.673-.673v-14.488c0-.371-.302-.673-.673-.673z"/></g></g><g><g><path d="m95.395 146.417h-14.489c-3.129 0-5.674-2.545-5.674-5.673v-14.488c0-3.128 2.545-5.673 5.674-5.673h14.488c3.128 0 5.673 2.545 5.673 5.673v14.488c0 3.128-2.545 5.673-5.672 5.673zm-14.489-20.834c-.371 0-.674.302-.674.673v14.488c0 .371.303.673.674.673h14.488c.371 0 .673-.302.673-.673v-14.488c0-.371-.302-.673-.673-.673z"/></g></g><g><g><path d="m128.744 146.417h-14.488c-3.128 0-5.673-2.545-5.673-5.673v-14.488c0-3.128 2.545-5.673 5.673-5.673h14.488c3.128 0 5.673 2.545 5.673 5.673v14.488c0 3.128-2.545 5.673-5.673 5.673zm-14.488-20.834c-.371 0-.673.302-.673.673v14.488c0 .371.302.673.673.673h14.488c.371 0 .673-.302.673-.673v-14.488c0-.371-.302-.673-.673-.673z"/></g></g><g><g><path d="m162.095 146.417h-14.488c-3.129 0-5.674-2.545-5.674-5.673v-14.488c0-3.128 2.545-5.673 5.674-5.673h14.488c3.128 0 5.673 2.545 5.673 5.673v14.488c0 3.128-2.545 5.673-5.673 5.673zm-14.489-20.834c-.371 0-.674.302-.674.673v14.488c0 .371.303.673.674.673h14.488c.371 0 .673-.302.673-.673v-14.488c0-.371-.302-.673-.673-.673z"/></g></g><g><g><path d="m195.444 146.417h-14.488c-3.128 0-5.673-2.545-5.673-5.673v-14.488c0-3.128 2.545-5.673 5.673-5.673h14.488c3.128 0 5.673 2.545 5.673 5.673v14.488c0 3.128-2.545 5.673-5.673 5.673zm-14.488-20.834c-.371 0-.673.302-.673.673v14.488c0 .371.302.673.673.673h14.488c.371 0 .673-.302.673-.673v-14.488c0-.371-.302-.673-.673-.673z"/></g></g><g><g><path d="m62.044 180.051h-14.488c-3.128 0-5.673-2.545-5.673-5.673v-14.488c0-3.128 2.545-5.673 5.673-5.673h14.488c3.128 0 5.673 2.545 5.673 5.673v14.488c0 3.128-2.545 5.673-5.673 5.673zm-14.488-20.834c-.371 0-.673.302-.673.673v14.488c0 .371.302.673.673.673h14.488c.371 0 .673-.302.673-.673v-14.488c0-.371-.302-.673-.673-.673z"/></g></g><g><g><path d="m95.395 180.051h-14.489c-3.129 0-5.674-2.545-5.674-5.673v-14.488c0-3.128 2.545-5.673 5.674-5.673h14.488c3.128 0 5.673 2.545 5.673 5.673v14.488c0 3.128-2.545 5.673-5.672 5.673zm-14.489-20.834c-.371 0-.674.302-.674.673v14.488c0 .371.303.673.674.673h14.488c.371 0 .673-.302.673-.673v-14.488c0-.371-.302-.673-.673-.673z"/></g></g><g><g><path d="m128.744 180.051h-14.488c-3.128 0-5.673-2.545-5.673-5.673v-14.488c0-3.128 2.545-5.673 5.673-5.673h14.488c3.128 0 5.673 2.545 5.673 5.673v14.488c0 3.128-2.545 5.673-5.673 5.673zm-14.488-20.834c-.371 0-.673.302-.673.673v14.488c0 .371.302.673.673.673h14.488c.371 0 .673-.302.673-.673v-14.488c0-.371-.302-.673-.673-.673z"/></g></g><g><g><path d="m154.156 180.051h-6.551c-3.128 0-5.673-2.545-5.673-5.673v-14.488c0-3.128 2.545-5.673 5.673-5.673h14.489c3.128 0 5.673 2.545 5.673 5.673v6.209c0 1.381-1.119 2.5-2.5 2.5s-2.5-1.119-2.5-2.5v-6.209c0-.371-.302-.673-.673-.673h-14.489c-.371 0-.673.302-.673.673v14.488c0 .371.302.673.673.673h6.551c1.381 0 2.5 1.119 2.5 2.5s-1.119 2.5-2.5 2.5z"/></g></g><g><g><path d="m62.044 213.685h-14.488c-3.128 0-5.673-2.545-5.673-5.673v-14.488c0-3.128 2.545-5.673 5.673-5.673h14.488c3.128 0 5.673 2.545 5.673 5.673v14.488c0 3.128-2.545 5.673-5.673 5.673zm-14.488-20.834c-.371 0-.673.302-.673.673v14.488c0 .371.302.673.673.673h14.488c.371 0 .673-.302.673-.673v-14.488c0-.371-.302-.673-.673-.673z"/></g></g><g><g><path d="m95.395 213.685h-14.489c-3.129 0-5.674-2.545-5.674-5.673v-14.488c0-3.128 2.545-5.673 5.674-5.673h14.488c3.128 0 5.673 2.545 5.673 5.673v14.488c0 3.128-2.545 5.673-5.672 5.673zm-14.489-20.834c-.371 0-.674.302-.674.673v14.488c0 .371.303.673.674.673h14.488c.371 0 .673-.302.673-.673v-14.488c0-.371-.302-.673-.673-.673z"/></g></g><g><g><path d="m128.744 213.685h-14.488c-3.128 0-5.673-2.545-5.673-5.673v-14.488c0-3.128 2.545-5.673 5.673-5.673h14.488c3.128 0 5.673 2.545 5.673 5.673v14.488c0 3.128-2.545 5.673-5.673 5.673zm-14.488-20.834c-.371 0-.673.302-.673.673v14.488c0 .371.302.673.673.673h14.488c.371 0 .673-.302.673-.673v-14.488c0-.371-.302-.673-.673-.673z"/></g></g></g></g></svg>