<svg height="496pt" viewBox="0 0 496 496" width="496pt" xmlns="http://www.w3.org/2000/svg"><path d="m488 224v128h-96v-128zm0 0" fill="#fcd770"/><path d="m392 312v40h-32v-128h32zm0 0" fill="#ef7385"/><path d="m280 424v32c0 17.679688-14.320312 32-32 32h-208c-17.679688 0-32-14.320312-32-32v-32zm0 0" fill="#838f9b"/><path d="m280 40v32h-36.71875c-3.839844-4.878906-9.839844-8-16.480469-8h-2.5625c-6.636719 0-12.636719 3.039062-16.558593 8h-199.679688v-32c0-17.679688 14.320312-32 32-32h208c17.679688 0 32 14.320312 32 32zm0 0" fill="#838f9b"/><g fill="#69d6f4"><path d="m226.640625 166.960938 8.640625-31.839844 12-44.402344c.480469-1.839844.71875-3.679688.71875-5.519531 0-5.039063-1.761719-9.597657-4.71875-13.199219h36.71875v148l-24-12c-10.558594-5.28125-22.160156-8-33.921875-8h-4.316406zm0 0"/><path d="m224 264c8.800781 0 16 7.199219 16 16 0 4.398438-1.761719 8.398438-4.71875 11.28125-2.882812 2.957031-6.882812 4.71875-11.28125 4.71875h-32.238281l8.636719-32zm0 0"/><path d="m279.921875 351.359375c-3.28125.402344-6.5625.640625-9.84375.640625h-39.519531c-9.597656 0-19.117188-1.839844-28.078125-5.441406l-12.960938-5.117188c-3.039062-1.203125-6.078125-2.242187-9.199219-3.042968l-8.082031 29.921874c-2.476562 9.28125-10.878906 15.679688-20.476562 15.679688h-2.5625c-11.679688 0-21.199219-9.519531-21.199219-21.199219 0-1.839843.238281-3.679687.71875-5.519531l5.761719-21.28125h-22.480469c-4.398438 0-8-3.601562-8-8 0-2.960938.398438-5.921875 1.199219-8.640625l-1.199219-.320313c-9.28125-2.878906-16-11.4375-16-21.679687 0-6 2.398438-11.757813 6.640625-16l73.359375-73.359375.960938.238281 15.039062-55.519531 3.121094-11.519531 5.519531-20.238281 11.121094-41.28125c.796875-2.878907 2.078125-5.519532 3.917969-7.679688h-199.679688v352h272v-72zm0 0"/></g><path d="m168.960938 208.238281-23.679688 87.761719h-9.28125c-14.640625 0-27.039062 9.839844-30.800781 23.359375l-1.199219-.320313c-9.28125-2.878906-16-11.4375-16-21.679687 0-6 2.398438-11.757813 6.640625-16l73.359375-73.359375zm0 0" fill="#f0d0b4"/><path d="m243.28125 72c2.957031 3.601562 4.71875 8.160156 4.71875 13.199219 0 1.839843-.238281 3.679687-.71875 5.519531l-12 44.402344-42.640625-14.160156 11.121094-41.28125c.796875-2.878907 2.078125-5.519532 3.917969-7.679688 3.921874-4.960938 9.921874-8 16.558593-8h2.5625c6.640625 0 12.640625 3.121094 16.480469 8zm0 0" fill="#ffeaa7"/><path d="m235.28125 135.121094-8.640625 31.839844-42.640625-14.242188 3.121094-11.519531 5.519531-20.238281zm0 0" fill="#ccd1d9"/><path d="m217.761719 200-17.363281 64-8.636719 32h-46.480469l23.679688-87.761719 15.039062-55.519531 42.640625 14.242188zm0 0" fill="#ffeaa7"/><path d="m180.320312 338.398438-8.082031 29.921874c-2.476562 9.28125-10.878906 15.679688-20.476562 15.679688h-2.5625c-11.679688 0-21.199219-9.519531-21.199219-21.199219 0-1.839843.238281-3.679687.71875-5.519531l5.761719-21.28125h26.960937c6.398438 0 12.71875.800781 18.878906 2.398438zm0 0" fill="#ffeaa7"/><path d="m280 220 24 12c10.558594 5.28125 22.160156 8 33.921875 8h22.078125v96h-22.078125c-11.761719 0-23.363281 2.71875-33.921875 8-7.601562 3.839844-15.761719 6.238281-24.078125 7.359375-3.28125.402344-6.5625.640625-9.84375.640625h-39.519531c-9.597656 0-19.117188-1.839844-28.078125-5.441406l-12.960938-5.117188c-3.039062-1.203125-6.078125-2.242187-9.199219-3.042968-6.160156-1.597657-12.480468-2.398438-18.878906-2.398438h-49.441406c-4.398438 0-8-3.601562-8-8 0-2.960938.398438-5.921875 1.199219-8.640625 3.761719-13.519531 16.160156-23.359375 30.800781-23.359375h88c4.398438 0 8.398438-1.761719 11.28125-4.71875 2.957031-2.882812 4.71875-6.882812 4.71875-11.28125 0-8.800781-7.199219-16-16-16h-23.601562l17.363281-64h4.316406c11.761719 0 23.363281 2.71875 33.921875 8zm0 0" fill="#f0d0b4"/><path d="m352 216v16h-14.113281c-10.460938 0-20.941407-2.480469-30.3125-7.160156l-19.574219-9.785156v-175.054688c0-22.054688-17.945312-40-40-40h-208c-22.054688 0-40 17.945312-40 40v416c0 22.054688 17.945312 40 40 40h208c22.054688 0 40-17.945312 40-40v-98.015625c6.769531-1.480469 13.375-3.726563 19.574219-6.832031 9.371093-4.671875 19.859375-7.152344 30.3125-7.152344h14.113281v16h144v-144zm-92.425781-15.160156c-9.789063-4.894532-20.574219-7.703125-31.484375-8.496094l26.902344-99.542969c.671874-2.480469 1.007812-5.039062 1.007812-7.617187 0-1.777344-.214844-3.496094-.527344-5.183594h16.527344v127.054688zm-53.015625 71.160156h17.441406c4.40625 0 8 3.585938 8 8s-3.59375 8-8 8h-21.769531zm-20.894532 16h-29.910156l33.78125-124.992188 27.441406 9.144532zm-84.367187 20.488281c-3.234375-2.710937-5.296875-6.664062-5.296875-11.113281 0-3.847656 1.558594-7.613281 4.289062-10.34375l53.648438-53.65625-14.761719 54.625h-3.175781c-14.9375 0-27.832031 8.328125-34.703125 20.488281zm110.199219-226.746093c1.542968-5.734376 6.785156-9.742188 12.726562-9.742188h2.59375c7.273438 0 13.183594 5.910156 13.183594 13.183594 0 1.167968-.152344 2.320312-.457031 3.449218l-9.800781 36.246094-27.4375-9.144531zm-13.367188 49.457031 27.4375 9.144531-4.414062 16.335938-27.441406-9.144532zm-158.128906-115.199219h208c13.230469 0 24 10.769531 24 24v24h-25.230469c-5.226562-4.929688-12.226562-8-19.953125-8h-2.59375c-7.613281 0-14.636718 3.03125-19.925781 8h-188.296875v-24c0-13.230469 10.769531-24 24-24zm208 464h-208c-13.230469 0-24-10.769531-24-24v-24h256v24c0 13.230469-10.769531 24-24 24zm24-64h-256v-336h179.390625l-33.070313 122.367188-21.632812 21.632812h-108.6875v16h92.6875l-16 16h-76.6875v16h60.695312l-3.71875 3.71875c-3.488281 3.488281-5.90625 7.714844-7.375 12.28125h-49.601562v16h48.800781c1.367188 6.238281 4.589844 11.792969 9.230469 16h-58.03125v16h66.222656c2.777344 4.761719 7.882813 8 13.777344 8h12.039062l-3.023437 11.191406c-.679687 2.480469-1.015625 5.039063-1.015625 7.625 0 10.816406 5.984375 20.167969 14.753906 25.207032l-2.515625 10.039062 15.523438 3.875 2.484375-9.9375h1.53125c13.160156 0 24.742187-8.863281 28.175781-21.566406l5.902344-21.832032c.242187.09375.488281.160157.730469.253907l12.894531 5.160156c9.925781 3.976563 20.398437 5.992187 31.121093 5.992187h39.511719c.628907 0 1.253907-.097656 1.886719-.113281zm-122.816406-40c-7.273438 0-13.183594-5.910156-13.183594-13.183594 0-1.167968.152344-2.320312.457031-3.449218l4.152344-15.367188h20.789063c3.007812 0 5.984374.273438 8.9375.664062l-5.839844 21.601563c-1.535156 5.726563-6.777344 9.734375-12.71875 9.734375zm188.703125-48c-12.925781 0-25.886719 3.054688-37.460938 8.839844-9.371093 4.679687-19.859375 7.160156-30.3125 7.160156h-39.511719c-8.664062 0-17.136718-1.632812-25.175781-4.847656l-12.898437-5.160156c-9.933594-3.976563-20.40625-5.992188-31.121094-5.992188h-49.40625c0-13.230469 10.769531-24 24-24h88c13.230469 0 24-10.769531 24-24s-10.769531-24-24-24h-13.121094l12.945313-47.894531c9.886719.253906 19.742187 2.628906 28.589843 7.054687l48 24c11.585938 5.785156 24.546876 8.839844 37.472657 8.839844h14.113281v80zm142.113281 16h-80v-32h-16v32h-16v-112h16v64h16v-64h80zm0 0"/><path d="m96 448h96v16h-96zm0 0"/><path d="m32 96h16v16h-16zm0 0"/><path d="m64 96h104v16h-104zm0 0"/><path d="m32 128h16v16h-16zm0 0"/><path d="m64 128h104v16h-104zm0 0"/><path d="m32 160h104v16h-104zm0 0"/><path d="m32 192h104v16h-104zm0 0"/></svg>