<svg height="512pt" viewBox="-53 0 512 512" width="512pt" xmlns="http://www.w3.org/2000/svg"><path d="m203.214844 65.335938c-13.0625 0-23.75 10.6875-23.75 23.75v14.75h47.5v-14.75c0-13.0625-10.6875-23.75-23.75-23.75zm0 0" fill="#42d292"/><path d="m174.613281 10v93.835938h4.851563v-14.75c0-13.0625 10.6875-23.75 23.75-23.75s23.75 10.6875 23.75 23.75v14.75h79.75v-93.835938zm0 0" fill="#42d292"/><path d="m306.714844 65.335938v38.5h-79.75v-14.75c0-13.0625-10.6875-23.75-23.75-23.75-6.910156 0-13.148438 2.988281-17.5 7.738281-3.875 4.230469-6.25 9.855469-6.25 16.011719v14.75h-53.066406v367.765624h239.628906v-406.265624zm0 0" fill="#e4e6ee"/><path d="m81.15625 34.9375h18.558594v30.398438h-18.558594zm0 0" fill="#ffd255"/><path d="m377.871094 34.9375h-71.15625v30.398438h59.3125v406.265624h-284.871094v30.398438h315.273438v-467.0625zm0 0" fill="#ffd255"/><path d="m396.429688 24.933594h-79.714844v-14.933594c0-5.523438-4.476563-10-10-10h-86.597656c-5.519532 0-10 4.476562-10 10s4.480468 10 10 10h76.597656v73.835938h-59.75v-4.75c0-18.609376-15.140625-33.75-33.75-33.75s-33.75 15.140624-33.75 33.75v4.75h-59.75v-73.835938h31.4375c5.523437 0 10-4.476562 10-10s-4.476563-10-10-10h-41.4375c-5.523438 0-10 4.476562-10 10v14.933594h-79.714844c-5.523438 0-10 4.476562-10 10v467.066406c0 5.523438 4.476562 10 10 10h386.429688c5.519531 0 10-4.476562 10-10v-467.066406c0-5.519532-4.476563-10-10-10zm-10 467.066406h-366.429688v-447.066406h69.714844v10.398437h-49.316406c-5.523438 0-10 4.480469-10 10v406.269531c0 5.523438 4.476562 10 10 10h205.226562c5.523438 0 10-4.476562 10-10 0-5.523437-4.476562-10-10-10h-195.226562v-386.265624h39.316406v28.5c0 5.523437 4.476562 10 10 10h79.75c5.523437 0 10-4.476563 10-10v-14.75c0-7.582032 6.167968-13.75 13.75-13.75 7.582031 0 13.75 6.167968 13.75 13.75v14.75c0 5.523437 4.476562 10 10 10h79.75c5.523437 0 10-4.476563 10-10v-28.5h39.316406v386.265624h-31.441406c-5.519532 0-10 4.476563-10 10 0 5.523438 4.480468 10 10 10h41.4375c5.523437 0 10-4.476562 10-10v-406.265624c0-5.523438-4.476563-10-10-10h-49.3125v-10.402344h69.714844zm0 0"/><path d="m192.523438 213.417969h112.941406c5.523437 0 10-4.476563 10-10 0-5.523438-4.476563-10-10-10h-112.941406c-5.523438 0-10 4.476562-10 10 0 5.523437 4.476562 10 10 10zm0 0"/><path d="m152.878906 176.890625-35.375 30.953125-8.191406-12.429688c-3.039062-4.613281-9.242188-5.886718-13.851562-2.847656-4.613282 3.039063-5.886719 9.242188-2.847657 13.855469l14.5 22c1.589844 2.410156 4.144531 4.019531 7.007813 4.40625.445312.058594.894531.089844 1.339844.089844 2.410156 0 4.753906-.871094 6.585937-2.472657l44-38.5c4.15625-3.640624 4.578125-9.957031.941406-14.113281s-9.953125-4.578125-14.109375-.941406zm0 0"/><path d="m192.523438 293.417969h112.941406c5.523437 0 10-4.476563 10-10 0-5.523438-4.476563-10-10-10h-112.941406c-5.523438 0-10 4.476562-10 10 0 5.523437 4.476562 10 10 10zm0 0"/><path d="m152.878906 256.890625-35.375 30.953125-8.191406-12.429688c-3.039062-4.613281-9.242188-5.886718-13.851562-2.847656-4.613282 3.039063-5.886719 9.242188-2.847657 13.855469l14.5 22c1.589844 2.410156 4.144531 4.015625 7.007813 4.40625.445312.058594.894531.089844 1.339844.089844 2.410156 0 4.753906-.871094 6.585937-2.472657l44-38.5c4.15625-3.640624 4.578125-9.957031.941406-14.113281s-9.953125-4.578125-14.109375-.941406zm0 0"/><path d="m305.464844 353.417969h-112.941406c-5.523438 0-10 4.476562-10 10 0 5.523437 4.476562 10 10 10h112.941406c5.523437 0 10-4.476563 10-10 0-5.523438-4.476563-10-10-10zm0 0"/><path d="m130.214844 328.414062c-18.0625 0-32.753906 14.695313-32.753906 32.753907 0 18.058593 14.691406 32.753906 32.753906 32.753906 18.058594 0 32.75-14.695313 32.75-32.753906 0-18.058594-14.691406-32.753907-32.75-32.753907zm0 45.507813c-7.03125 0-12.753906-5.722656-12.753906-12.753906s5.722656-12.753907 12.753906-12.753907 12.75 5.722657 12.75 12.753907-5.71875 12.753906-12.75 12.753906zm0 0"/><path d="m170.238281 20h.472657c5.523437 0 10-4.476562 10-10s-4.476563-10-10-10h-.472657c-5.523437 0-10 4.476562-10 10s4.476563 10 10 10zm0 0"/><path d="m295.507812 461.601562h-.476562c-5.523438 0-10 4.476563-10 10 0 5.523438 4.476562 10 10 10h.476562c5.519532 0 10-4.476562 10-10 0-5.523437-4.476562-10-10-10zm0 0"/></svg>