<svg height="512" viewBox="0 0 60 60" width="512" xmlns="http://www.w3.org/2000/svg"><g id="Page-1" fill="none" fill-rule="evenodd"><g id="017---Chart" fill="rgb(0,0,0)" fill-rule="nonzero" transform="translate(-1)"><path id="Shape" d="m3 11h3v30c0 .5522847.44771525 1 1 1s1-.4477153 1-1v-31c0-.55228475-.44771525-1-1-1h-4l7-7 7 7h-4c-.5522847 0-1 .44771525-1 1v38c0 .5522847.4477153 1 1 1h38c.5522847 0 1-.4477153 1-1v-4l7 7-7 7v-4c0-.5522847-.4477153-1-1-1h-41c-1.1045695 0-2-.8954305-2-2v-5c0-.5522847-.44771525-1-1-1s-1 .4477153-1 1v5c0 2.209139 1.790861 4 4 4h40v3c-.0022643.8106583.4850452 1.5425011 1.2338721 1.8530331.748827.310532 1.6110385.1383237 2.1831279-.4360331l7-7c.7727643-.7866309.7727643-2.0473691 0-2.834l-7-7c-.5720894-.5743568-1.4343009-.7465651-2.1831279-.4360331-.7488269.310532-1.2361364 1.0423748-1.2338721 1.8530331v3h-3v-45c0-1.1045695-.8954305-2-2-2h-4c-1.1045695 0-2 .8954305-2 2v45h-3v-31c0-1.1045695-.8954305-2-2-2h-4c-1.1045695 0-2 .8954305-2 2v31h-3v-17c0-1.1045695-.8954305-2-2-2h-4c-1.1045695 0-2 .8954305-2 2v17h-3v-36h3c.8106583.0022643 1.5425011-.4850452 1.8530331-1.23387213.310532-.74882699.1383237-1.6110385-.4360331-2.18312787l-7-7c-.7867519-.77341944-2.04824805-.77341944-2.835 0l-7 7c-.57448798.57221756-.74663409 1.43467334-.43584483 2.18359218.31078926.74891882 1.04300437 1.23607922 1.85384483 1.23340782zm38-9h4v45h-4zm-11 14h4v31h-4zm-11 14h4v17h-4z"/></g></g></svg>