<svg height="512" viewBox="0 0 60 50" width="512" xmlns="http://www.w3.org/2000/svg"><g id="Page-1" fill="none" fill-rule="evenodd"><g id="033---Chart" fill="rgb(0,0,0)" fill-rule="nonzero"><path id="Shape" d="m57 43h-2v-40c0-1.65685425-1.3431458-3-3-3h-4c-1.6568542 0-3 1.34314575-3 3v40h-3v-17c0-1.6568542-1.3431458-3-3-3h-4c-1.6568542 0-3 1.3431458-3 3v17h-3v-40c0-1.65685425-1.3431458-3-3-3h-4c-1.6568542 0-3 1.34314575-3 3v40h-3v-17c0-1.6568542-1.3431458-3-3-3h-4c-1.65685425 0-3 1.3431458-3 3v4c0 .5522847.44771525 1 1 1s1-.4477153 1-1v-4c0-.5522847.44771525-1 1-1h4c.5522847 0 1 .4477153 1 1v17h-6v-8c0-.5522847-.44771525-1-1-1s-1 .4477153-1 1v8h-3c-1.65685425 0-3 1.3431458-3 3v1c0 1.6568542 1.34314575 3 3 3h54c1.6568542 0 3-1.3431458 3-3v-1c0-1.6568542-1.3431458-3-3-3zm-10-40c0-.55228475.4477153-1 1-1h4c.5522847 0 1 .44771525 1 1v40h-6zm-13 23c0-.5522847.4477153-1 1-1h4c.5522847 0 1 .4477153 1 1v17h-6zm-13-23c0-.55228475.4477153-1 1-1h4c.5522847 0 1 .44771525 1 1v40h-6zm37 44c0 .5522847-.4477153 1-1 1h-54c-.55228475 0-1-.4477153-1-1v-1c0-.5522847.44771525-1 1-1h54c.5522847 0 1 .4477153 1 1z"/></g></g></svg>