<?xml version="1.0" encoding="iso-8859-1"?>
<!-- Generator: Adobe Illustrator 19.0.0, SVG Export Plug-In . SVG Version: 6.00 Build 0)  -->
<svg version="1.1" id="Capa_1" xmlns="http://www.w3.org/2000/svg" xmlns:xlink="http://www.w3.org/1999/xlink" x="0px" y="0px"
	 viewBox="0 0 512 512" style="enable-background:new 0 0 512 512;" xml:space="preserve">
<g>
	<path style="fill:#CFD8DC;" d="M501.333,213.333H10.667C4.776,213.333,0,218.109,0,224v149.333
		c0,29.455,23.878,53.333,53.333,53.333h405.333c29.455,0,53.333-23.878,53.333-53.333V224
		C512,218.109,507.224,213.333,501.333,213.333z"/>
	<path style="fill:#CFD8DC;" d="M458.667,85.333H53.333C23.878,85.333,0,109.211,0,138.667V160c0,5.891,4.776,10.667,10.667,10.667
		h490.667c5.891,0,10.667-4.776,10.667-10.667v-21.333C512,109.211,488.122,85.333,458.667,85.333z"/>
</g>
<g>
	<path style="fill:#90A4AE;" d="M160,320H74.667C68.776,320,64,315.224,64,309.333s4.776-10.667,10.667-10.667H160
		c5.891,0,10.667,4.776,10.667,10.667S165.891,320,160,320z"/>
	<path style="fill:#90A4AE;" d="M224,362.667H74.667C68.776,362.667,64,357.891,64,352c0-5.891,4.776-10.667,10.667-10.667H224
		c5.891,0,10.667,4.776,10.667,10.667C234.667,357.891,229.891,362.667,224,362.667z"/>
</g>
<path style="fill:#F44336;" d="M384,320c0.012-6.037,2.615-11.778,7.147-15.765c4.377-3.943,4.729-10.687,0.786-15.064
	c-0.248-0.276-0.511-0.538-0.786-0.786c-17.467-15.817-44.449-14.479-60.266,2.988c-15.817,17.467-14.479,44.449,2.988,60.266
	c16.256,14.72,41.023,14.72,57.278,0c4.377-3.943,4.729-10.687,0.786-15.064c-0.248-0.276-0.511-0.538-0.786-0.786
	C386.609,331.794,384.006,326.044,384,320z"/>
<g>
	<circle style="fill:#455A64;" cx="405.333" cy="320" r="42.667"/>
	<rect y="149.333" style="fill:#455A64;" width="512" height="85.333"/>
</g>
<g>
</g>
<g>
</g>
<g>
</g>
<g>
</g>
<g>
</g>
<g>
</g>
<g>
</g>
<g>
</g>
<g>
</g>
<g>
</g>
<g>
</g>
<g>
</g>
<g>
</g>
<g>
</g>
<g>
</g>
</svg>
