<?xml version="1.0" encoding="iso-8859-1"?>
<!-- Generator: Adobe Illustrator 19.0.0, SVG Export Plug-In . SVG Version: 6.00 Build 0)  -->
<svg version="1.1" id="Capa_1" xmlns="http://www.w3.org/2000/svg" xmlns:xlink="http://www.w3.org/1999/xlink" x="0px" y="0px"
	 viewBox="0 0 394.963 394.963" style="enable-background:new 0 0 394.963 394.963;" xml:space="preserve">
<g>
	<g>
		<path d="M345.841,66.48c-13.94,0.785-25.876-9.879-26.661-23.818c-0.785-13.94,9.879-25.876,23.818-26.661
			c0.947-0.053,1.896-0.053,2.843,0c4.418,0,8-3.582,8-8s-3.582-8-8-8H82.401c-22.798,0-41.28,18.482-41.28,41.28v325.76
			c0.043,15.464,12.613,27.965,28.077,27.923c0.108,0,0.215-0.001,0.323-0.003h256c15.402-0.044,27.876-12.518,27.92-27.92V74.48
			C353.447,70.213,350.103,66.693,345.841,66.48z M79.558,15.92c0.947-0.053,1.896-0.053,2.843,0h230.88
			c-3.891,4.87-6.626,10.56-8,16.64h-73.04c-4.418,0-8,3.582-8,8s3.582,8,8,8h73.04c1.194,6.503,3.938,12.623,8,17.84H82.401
			c-13.94,0.785-25.876-9.879-26.662-23.818C54.955,28.642,65.619,16.705,79.558,15.92z M337.841,367.04
			c0.004,6.583-5.33,11.923-11.913,11.927c-0.136,0-0.271-0.002-0.407-0.007h-256c-6.583,0-11.92-5.337-11.92-11.92V73.76
			c7.227,5.619,16.126,8.66,25.28,8.64h254.96V367.04z"/>
	</g>
</g>
<g>
	<g>
		<path d="M294.561,160.56h-194c-8.837,0-16,7.163-16,16v107.36c0,8.837,7.163,16,16,16h194c8.837,0,16-7.163,16-16V176.56
			C310.561,167.723,303.398,160.56,294.561,160.56z M294.561,283.92h-194V176.56h194V283.92z"/>
	</g>
</g>
<g>
	<g>
		<path d="M166.401,216.56c0.028-2.544-0.434-5.07-1.36-7.44c-0.726-2.267-1.989-4.325-3.68-6v0c-1.773-1.554-3.881-2.677-6.16-3.28
			c-3.353-0.794-6.796-1.144-10.24-1.04h-15.04c-2.039-0.187-4.071,0.414-5.68,1.68c-1.317,1.522-1.953,3.517-1.76,5.52v44.64
			c-0.11,1.894,0.457,3.765,1.6,5.28c2.218,2.342,5.914,2.442,8.256,0.224c0.077-0.073,0.151-0.147,0.224-0.224
			c1.189-1.525,1.786-3.429,1.68-5.36v-16h10.72c5.7,0.374,11.354-1.237,16-4.56C164.754,226.601,166.762,221.64,166.401,216.56z
			 M153.361,221.6c-1.059,1.399-2.549,2.411-4.24,2.88c-2.264,0.633-4.609,0.929-6.96,0.88h-8V207.6h8
			c3.664-0.459,7.368,0.452,10.4,2.56c1.532,1.708,2.335,3.948,2.24,6.24c0.046,1.799-0.486,3.566-1.52,5.04L153.361,221.6z"/>
	</g>
</g>
<g>
	<g>
		<path d="M216.962,203.92c-2.234-1.929-4.893-3.3-7.76-4l0,0c-3.353-0.799-6.793-1.176-10.24-1.12h-15.2
			c-3.342-0.634-6.566,1.562-7.2,4.904c-0.144,0.758-0.144,1.537,0,2.296v42.48c-0.044,1.535,0.117,3.068,0.48,4.56
			c0.306,1.146,1.054,2.125,2.08,2.72c1.49,0.729,3.144,1.06,4.8,0.96h15.28c2.409,0.033,4.817-0.127,7.2-0.48
			c2.043-0.318,4.035-0.91,5.92-1.76c1.87-0.848,3.598-1.982,5.12-3.36c1.954-1.771,3.603-3.852,4.88-6.16
			c1.327-2.512,2.271-5.209,2.8-8c0.621-3.135,0.916-6.325,0.88-9.52C226.688,218.638,223.367,209.996,216.962,203.92z
			 M208.241,244.64c-0.892,0.775-1.924,1.372-3.04,1.76c-1.107,0.414-2.264,0.683-3.44,0.8h-4.56h-8.96v-39.12h8
			c3.078-0.067,6.15,0.31,9.12,1.12c2.742,0.943,5.027,2.886,6.4,5.44c1.963,3.968,2.846,8.383,2.56,12.8
			C214.957,233.793,212.728,240.098,208.241,244.64z"/>
	</g>
</g>
<g>
	<g>
		<path d="M270.961,207.84c1.498,0.109,2.982-0.348,4.16-1.28c0.911-0.842,1.408-2.04,1.36-3.28c0.059-1.242-0.439-2.445-1.36-3.28
			c-1.21-0.923-2.726-1.352-4.24-1.2l0,0h-27.6c-1.396-0.05-2.786,0.195-4.08,0.72c-1.03,0.465-1.855,1.29-2.32,2.32
			c-0.541,1.318-0.786,2.737-0.72,4.16v44.56c-0.129,1.921,0.439,3.824,1.6,5.36c2.282,2.342,6.03,2.39,8.371,0.109
			c0.037-0.036,0.073-0.072,0.109-0.109c1.161-1.536,1.729-3.439,1.6-5.36v-19.12h19.28c1.436,0.107,2.86-0.321,4-1.2
			c0.908-0.81,1.407-1.984,1.36-3.2c0.067-1.203-0.402-2.375-1.28-3.2c-1.136-0.886-2.563-1.314-4-1.2h-19.36v-14.8H270.961z"/>
	</g>
</g>
<g>
</g>
<g>
</g>
<g>
</g>
<g>
</g>
<g>
</g>
<g>
</g>
<g>
</g>
<g>
</g>
<g>
</g>
<g>
</g>
<g>
</g>
<g>
</g>
<g>
</g>
<g>
</g>
<g>
</g>
</svg>
