<?xml version="1.0" standalone="no"?>
<!DOCTYPE svg PUBLIC "-//W3C//DTD SVG 20010904//EN"
 "http://www.w3.org/TR/2001/REC-SVG-20010904/DTD/svg10.dtd">
<svg version="1.0" xmlns="http://www.w3.org/2000/svg"
 width="360.000000pt" height="360.000000pt" viewBox="0 0 360.000000 360.000000"
 preserveAspectRatio="xMidYMid meet">

<g transform="translate(0.000000,360.000000) scale(0.100000,-0.100000)"
fill="#000000" stroke="none">
<path d="M1086 3074 c-13 -13 -16 -46 -16 -208 0 -174 2 -195 18 -209 24 -22
55 -21 75 1 15 16 17 46 17 210 0 206 -4 222 -55 222 -13 0 -31 -7 -39 -16z"/>
<path d="M1756 3068 c-13 -18 -16 -56 -16 -205 0 -170 1 -184 20 -203 11 -11
29 -20 40 -20 11 0 29 9 40 20 19 19 20 33 20 203 0 204 -6 227 -60 227 -18 0
-34 -8 -44 -22z"/>
<path d="M2436 3074 c-13 -13 -16 -46 -16 -208 0 -174 2 -195 18 -209 24 -22
55 -21 75 1 15 16 17 46 17 210 0 206 -4 222 -55 222 -13 0 -31 -7 -39 -16z"/>
<path d="M603 2856 c-86 -27 -152 -87 -191 -173 -16 -35 -17 -105 -17 -938 0
-898 0 -900 21 -946 29 -63 83 -120 141 -149 l48 -25 688 -3 c468 -2 694 1
707 8 23 12 28 74 8 87 -7 4 -324 10 -705 13 -682 5 -692 5 -720 26 -15 11
-38 36 -50 54 l-23 33 0 703 0 704 1290 0 1290 0 0 -313 c0 -346 2 -357 60
-357 62 0 61 -6 58 556 -3 493 -4 510 -24 555 -31 66 -78 114 -142 146 -55 27
-64 28 -230 31 -142 3 -177 1 -196 -12 -35 -22 -39 -54 -11 -82 24 -23 28 -24
197 -24 203 0 228 -8 266 -80 19 -39 22 -59 22 -175 l0 -130 -1290 0 -1290 0
0 130 c0 116 3 136 23 175 37 72 62 80 265 80 169 0 173 1 197 24 27 27 24 58
-8 81 -28 20 -322 20 -384 1z"/>
<path d="M1263 2855 c-32 -23 -35 -54 -8 -81 24 -24 27 -24 210 -24 172 0 186
1 205 20 11 11 20 29 20 40 0 11 -9 29 -20 40 -19 19 -33 20 -203 20 -144 0
-187 -3 -204 -15z"/>
<path d="M1930 2850 c-11 -11 -20 -29 -20 -40 0 -11 9 -29 20 -40 19 -19 33
-20 205 -20 184 0 186 0 210 24 26 26 25 46 -3 79 -13 15 -36 17 -204 17 -175
0 -189 -1 -208 -20z"/>
<path d="M1584 1941 c-88 -54 -84 -150 8 -197 40 -21 81 -10 118 32 42 48 41
93 -2 139 -41 44 -82 53 -124 26z"/>
<path d="M1980 1943 c-94 -48 -83 -169 18 -204 45 -15 101 13 126 64 16 34 17
42 5 74 -26 66 -91 95 -149 66z"/>
<path d="M2384 1950 c-36 -14 -74 -69 -74 -105 0 -42 48 -101 90 -110 57 -12
130 50 130 110 0 37 -29 79 -70 100 -32 17 -45 18 -76 5z"/>
<path d="M2763 1940 c-33 -20 -63 -66 -63 -97 0 -32 40 -84 75 -99 44 -18 77
-10 115 29 55 57 31 148 -47 178 -34 13 -44 12 -80 -11z"/>
<path d="M2634 1565 c-145 -31 -255 -96 -364 -212 -79 -85 -139 -195 -164
-303 -20 -83 -20 -217 -1 -300 53 -224 238 -423 461 -496 78 -25 104 -29 204
-29 93 1 129 5 185 24 238 78 409 256 472 491 27 101 22 254 -10 355 -62 189
-195 339 -379 425 -121 57 -273 74 -404 45z m251 -110 c210 -45 377 -201 429
-401 21 -80 21 -228 0 -308 -47 -183 -190 -329 -379 -388 -101 -32 -244 -31
-343 1 -287 93 -448 389 -373 683 37 145 108 248 226 327 136 91 282 119 440
86z"/>
<path d="M2500 1310 c-11 -11 -20 -28 -20 -38 0 -20 215 -373 250 -411 14 -15
29 -21 43 -18 66 15 314 110 325 124 20 27 14 61 -13 79 -24 16 -31 15 -157
-30 -105 -37 -134 -44 -143 -34 -7 7 -56 84 -109 170 -112 183 -133 201 -176
158z"/>
<path d="M789 1545 c-35 -19 -62 -77 -54 -115 8 -38 68 -90 103 -90 40 0 91
36 108 75 37 89 -70 177 -157 130z"/>
<path d="M1164 1526 c-56 -56 -44 -135 26 -171 48 -25 78 -19 121 24 43 43 49
73 24 121 -18 35 -62 60 -106 60 -22 0 -41 -10 -65 -34z"/>
<path d="M1562 1532 c-53 -49 -55 -107 -6 -156 49 -49 107 -47 156 6 41 45 39
99 -6 144 -45 45 -99 47 -144 6z"/>
<path d="M1956 1530 c-19 -17 -37 -44 -41 -60 -12 -57 50 -130 110 -130 60 0
122 73 110 130 -9 42 -68 90 -110 90 -24 0 -45 -9 -69 -30z"/>
<path d="M810 1163 c-25 -9 -58 -43 -70 -74 -16 -38 -7 -71 31 -108 56 -56
145 -32 178 48 30 71 -63 162 -139 134z"/>
<path d="M1189 1155 c-37 -20 -59 -58 -59 -101 0 -28 8 -44 34 -70 39 -39 89
-46 132 -18 64 42 68 121 8 173 -38 34 -73 39 -115 16z"/>
<path d="M1559 1131 c-43 -43 -49 -73 -24 -121 21 -40 53 -60 98 -60 51 0 107
52 107 99 0 44 -25 88 -60 106 -48 25 -78 19 -121 -24z"/>
</g>
</svg>
