<svg height="512" viewBox="0 0 512 512" width="512" xmlns="http://www.w3.org/2000/svg"><g id="Guest_List" data-name="Guest List"><rect fill="#ffd9dc" height="464" rx="32" width="384" x="64" y="40"/><path d="m232 8h48a16 16 0 0 1 16 16v16a0 0 0 0 1 0 0h-80a0 0 0 0 1 0 0v-16a16 16 0 0 1 16-16z" fill="#e57055"/><rect fill="#f7f4f0" height="400" rx="8" width="320" x="96" y="72"/><path d="m200 424a238.973 238.973 0 0 1 -104-23.669v63.669a8 8 0 0 0 8 8h304a8 8 0 0 0 8-8v-175.32a239.989 239.989 0 0 1 -216 135.32z" fill="#ebe9e6"/><path d="m163.95 259.71a56.006 56.006 0 0 0 -35.95 52.29h112a56.006 56.006 0 0 0 -35.95-52.29 6.423 6.423 0 0 1 .934-12.228 24.008 24.008 0 0 0 19.016-23.482v-40h-80v40a24.008 24.008 0 0 0 19.016 23.482 6.423 6.423 0 0 1 .934 12.228z" fill="#ffe4c2"/><path d="m128 312h12a83.8 83.8 0 0 1 -11.983-.868c-.004.29-.017.577-.017.868z" fill="#f2d1a5"/><path d="m215.158 265.475a83.963 83.963 0 0 1 -75.158 46.525h100a55.923 55.923 0 0 0 -24.842-46.525z" fill="#f2d1a5"/><rect fill="#ea8668" height="64" rx="32" width="160" x="176" y="40"/><path d="m336 72a32 32 0 0 0 -24.981-31.218 84.085 84.085 0 0 1 -47.226 63.218h40.207a32 32 0 0 0 32-32z" fill="#e57055"/><circle cx="200" cy="64" fill="#ffdcd1" r="16"/><circle cx="236" cy="76" fill="#ffdcd1" r="12"/><path d="m136 128h-8v40a16 16 0 0 0 16 16h80v-24a24 24 0 0 0 -24-24h-40c-18.02 0-24-8-24-8z" fill="#6d6962"/><path d="m206 136.756a72.084 72.084 0 0 1 -37.056 47.244h55.056v-24a24.01 24.01 0 0 0 -18-23.244z" fill="#5e5b56"/><circle cx="140" cy="148" fill="#a39e95" r="12"/><path d="m320 136a64 64 0 0 0 -64 64v56h128v-56a64 64 0 0 0 -64-64z" fill="#6d6962"/><path d="m264 240q-4.035 0-8-.287v16.287h128v-56a63.705 63.705 0 0 0 -13.043-38.71 112.039 112.039 0 0 1 -106.957 78.71z" fill="#5e5b56"/><circle cx="300" cy="156" fill="#a39e95" r="12"/><path d="m340.834 260.756a8.44 8.44 0 0 1 -4.834-7.582 8.531 8.531 0 0 1 3.426-6.754 31.935 31.935 0 0 0 12.574-25.42v-37h-64v37a31.935 31.935 0 0 0 12.574 25.42 8.531 8.531 0 0 1 3.426 6.754 8.44 8.44 0 0 1 -4.834 7.582 47.992 47.992 0 0 0 -27.166 43.244v8h96v-8a47.992 47.992 0 0 0 -27.166-43.244z" fill="#ffe4c2"/><path d="m272 312h12a83.883 83.883 0 0 1 -12-.87z" fill="#f2d1a5"/><path d="m284 312h84v-8a47.8 47.8 0 0 0 -12.359-32.136 83.939 83.939 0 0 1 -71.641 40.136z" fill="#f2d1a5"/><path d="m208 112h96a40 40 0 0 0 0-80v-8a24.028 24.028 0 0 0 -24-24h-48a24.028 24.028 0 0 0 -24 24v8a40 40 0 0 0 0 80zm0-64h16v-24a8.009 8.009 0 0 1 8-8h48a8.009 8.009 0 0 1 8 8v8h-40a8 8 0 0 0 0 16h56a24 24 0 0 1 0 48h-96a24 24 0 0 1 0-48z"/><path d="m448 399.439a8.011 8.011 0 0 0 -8 8v64.561a24.084 24.084 0 0 1 -24 24h-320a24.084 24.084 0 0 1 -24-24v-400a24.084 24.084 0 0 1 24-24h56.59a8 8 0 0 0 0-16h-56.59a40.015 40.015 0 0 0 -40 40v400a40.016 40.016 0 0 0 40 40h320a40.016 40.016 0 0 0 40-40v-64.561a8.011 8.011 0 0 0 -8-8z"/><circle cx="448" cy="375.439" r="8"/><path d="m444.28 43.72a39.694 39.694 0 0 0 -28.28-11.72h-56.59a8 8 0 0 0 0 16h56.59a24.084 24.084 0 0 1 24 24v271.439a8 8 0 1 0 16 0v-271.439a39.735 39.735 0 0 0 -11.72-28.28z"/><circle cx="96" cy="215.72" r="8"/><path d="m88 464a16.022 16.022 0 0 0 16 16h304a16.022 16.022 0 0 0 16-16v-384a16.021 16.021 0 0 0 -16-16h-40a8 8 0 0 0 0 16h40v384h-304v-216.28a8 8 0 0 0 -16 0z"/><path d="m144 64h-40a16.021 16.021 0 0 0 -16 16v103.72a8 8 0 1 0 16 0v-103.72h40a8 8 0 0 0 0-16z"/><path d="m248 200v56a8 8 0 0 0 16 0v-56a56 56 0 0 1 112 0v56a8 8 0 0 0 16 0v-56a72 72 0 0 0 -144 0z"/><path d="m232 224v-64a32.036 32.036 0 0 0 -32-32h-40c-12.138 0-16.864-4.112-17.667-4.911l-1.907-3.089h-20.426v48a24.039 24.039 0 0 0 16 22.624v33.376a32.176 32.176 0 0 0 20.905 30.02 64.423 64.423 0 0 0 -36.905 57.98 8 8 0 0 0 16 0 48.287 48.287 0 0 1 30.815-44.82 14.423 14.423 0 0 0 -2.146-27.526 16.06 16.06 0 0 1 -12.669-15.654v-32h64v32a16.06 16.06 0 0 1 -12.671 15.654 14.423 14.423 0 0 0 -2.144 27.526 48.287 48.287 0 0 1 30.815 44.82 8 8 0 0 0 16 0 64.422 64.422 0 0 0 -36.906-57.98 32.175 32.175 0 0 0 20.906-30.02zm-16-48h-72a8.009 8.009 0 0 1 -8-8v-29.8c4.767 2.877 12.453 5.8 24 5.8h40a16.019 16.019 0 0 1 16 16z"/><path d="m295.688 253.551a56.334 56.334 0 0 0 -31.688 50.449v8a8 8 0 0 0 16 0v-8a40.245 40.245 0 0 1 22.641-36.038 16.365 16.365 0 0 0 2.794-27.9 23.838 23.838 0 0 1 -9.435-19.062v-29h48v29a23.836 23.836 0 0 1 -9.434 19.065 16.365 16.365 0 0 0 2.791 27.9 40.246 40.246 0 0 1 22.643 36.035v8a8 8 0 0 0 16 0v-8a56.335 56.335 0 0 0 -31.69-50.45c-.143-.069-.31-.208-.31-.376a.653.653 0 0 1 .288-.4 39.719 39.719 0 0 0 15.712-31.774v-45h-80v45a39.718 39.718 0 0 0 15.714 31.774.652.652 0 0 1 .286.4c0 .168-.167.307-.312.377z"/><circle cx="136" cy="360" r="8"/><path d="m232 352h-64a8 8 0 0 0 0 16h64a8 8 0 0 0 0-16z"/><circle cx="136" cy="392" r="8"/><path d="m232 384h-64a8 8 0 0 0 0 16h64a8 8 0 0 0 0-16z"/><path d="m232 416h-64a8 8 0 0 0 0 16h64a8 8 0 0 0 0-16z"/><circle cx="136" cy="424" r="8"/><path d="m376 352h-64a8 8 0 0 0 0 16h64a8 8 0 0 0 0-16z"/><circle cx="280" cy="360" r="8"/><circle cx="280" cy="392" r="8"/><path d="m376 384h-64a8 8 0 0 0 0 16h64a8 8 0 0 0 0-16z"/><path d="m376 416h-64a8 8 0 0 0 0 16h64a8 8 0 0 0 0-16z"/><circle cx="280" cy="424" r="8"/></g></svg>