<?xml version="1.0" standalone="no"?>
<!DOCTYPE svg PUBLIC "-//W3C//DTD SVG 20010904//EN"
 "http://www.w3.org/TR/2001/REC-SVG-20010904/DTD/svg10.dtd">
<svg version="1.0" xmlns="http://www.w3.org/2000/svg"
 width="923.000000pt" height="1013.000000pt" viewBox="0 0 923.000000 1013.000000"
 preserveAspectRatio="xMidYMid meet">

<g transform="translate(0.000000,1013.000000) scale(0.100000,-0.100000)"
fill="#000000" stroke="none">
<path d="M619 9999 c-163 -24 -307 -128 -379 -274 -59 -119 -60 -125 -60 -985
l0 -785 230 230 230 230 0 335 c0 255 -3 339 -12 349 -10 11 -10 13 0 7 9 -6
12 38 12 203 0 206 0 210 22 225 20 14 90 16 568 16 l545 0 110 108 110 107
-105 -107 -105 -108 990 0 989 0 -44 48 -45 47 50 -47 51 -48 879 0 880 0 105
103 105 102 -100 -102 -100 -103 736 0 c619 0 738 -2 755 -14 19 -14 19 -42
24 -1276 l5 -1261 219 220 c121 121 222 226 225 233 3 7 5 112 3 232 l-3 219
-37 -34 -37 -34 38 41 37 40 0 834 0 834 -43 46 c-41 44 -41 44 -3 10 36 -33
38 -34 31 -10 -49 165 -178 296 -352 358 -45 15 -272 17 -3258 18 -1765 1
-3235 -2 -3266 -7z m2871 -164 c13 -14 21 -25 18 -25 -2 0 -15 11 -28 25 -13
14 -21 25 -18 25 2 0 15 -11 28 -25z m3795 -15 c21 -22 37 -40 34 -40 -3 0
-23 18 -44 40 -21 22 -37 40 -34 40 3 0 23 -18 44 -40z m-3715 -65 c13 -14 21
-25 18 -25 -2 0 -15 11 -28 25 -13 14 -21 25 -18 25 2 0 15 -11 28 -25z m3820
-40 c19 -19 32 -35 29 -35 -3 0 -20 16 -39 35 -19 19 -32 35 -29 35 3 0 20
-16 39 -35z m-3740 -40 c13 -14 21 -25 18 -25 -2 0 -15 11 -28 25 -13 14 -21
25 -18 25 2 0 15 -11 28 -25z m-3430 -160 c13 -14 21 -25 18 -25 -2 0 -15 11
-28 25 -13 14 -21 25 -18 25 2 0 15 -11 28 -25z m55 -55 c10 -11 16 -20 13
-20 -3 0 -13 9 -23 20 -10 11 -16 20 -13 20 3 0 13 -9 23 -20z m80 -80 c10
-11 16 -20 13 -20 -3 0 -13 9 -23 20 -10 11 -16 20 -13 20 3 0 13 -9 23 -20z
m80 -80 c10 -11 16 -20 13 -20 -3 0 -13 9 -23 20 -10 11 -16 20 -13 20 3 0 13
-9 23 -20z m80 -80 c10 -11 16 -20 13 -20 -3 0 -13 9 -23 20 -10 11 -16 20
-13 20 3 0 13 -9 23 -20z m80 -80 c10 -11 16 -20 13 -20 -3 0 -13 9 -23 20
-10 11 -16 20 -13 20 3 0 13 -9 23 -20z m6835 -1313 c0 -2 -17 -19 -37 -38
l-38 -34 34 38 c33 34 41 42 41 34z m-80 -81 c0 -2 -8 -10 -17 -17 -16 -13
-17 -12 -4 4 13 16 21 21 21 13z"/>
<path d="M2131 8929 c-130 -22 -261 -85 -358 -173 -161 -146 -237 -317 -237
-531 0 -71 6 -133 18 -175 93 -356 444 -587 801 -526 114 19 193 50 285 111
247 164 370 489 291 769 -58 208 -184 362 -372 455 -146 73 -279 94 -428 70z
m265 -440 c177 -105 207 -341 61 -481 -152 -146 -392 -105 -486 84 -26 51 -31
73 -31 133 0 60 5 82 31 133 58 117 158 175 291 169 66 -3 84 -8 134 -38z
m-811 -339 c10 -11 16 -20 13 -20 -3 0 -13 9 -23 20 -10 11 -16 20 -13 20 3 0
13 -9 23 -20z m50 -50 c10 -11 16 -20 13 -20 -3 0 -13 9 -23 20 -10 11 -16 20
-13 20 3 0 13 -9 23 -20z m80 -80 c10 -11 16 -20 13 -20 -3 0 -13 9 -23 20
-10 11 -16 20 -13 20 3 0 13 -9 23 -20z m80 -80 c10 -11 16 -20 13 -20 -3 0
-13 9 -23 20 -10 11 -16 20 -13 20 3 0 13 -9 23 -20z m80 -80 c10 -11 16 -20
13 -20 -3 0 -13 9 -23 20 -10 11 -16 20 -13 20 3 0 13 -9 23 -20z m80 -80 c10
-11 16 -20 13 -20 -3 0 -13 9 -23 20 -10 11 -16 20 -13 20 3 0 13 -9 23 -20z
m55 -55 c13 -14 21 -25 18 -25 -2 0 -15 11 -28 25 -13 14 -21 25 -18 25 2 0
15 -11 28 -25z"/>
<path d="M407 8172 l-227 -227 0 -1055 0 -1055 230 -230 230 -230 0 1513 c0
831 -1 1512 -3 1512 -1 0 -105 -102 -230 -228z"/>
<path d="M8800 8381 c-28 -11 -44 -23 -42 -32 2 -8 0 -10 -4 -6 -5 4 -796
-780 -1759 -1743 l-1752 -1752 -44 53 c-24 29 -64 79 -89 110 -155 198 -212
269 -221 275 -6 3 -30 -11 -52 -32 l-42 -39 41 44 42 44 -142 176 c-77 97
-172 216 -211 264 -101 126 -174 158 -290 126 -51 -14 -125 -89 -144 -147
l-15 -43 75 -77 74 -77 -72 70 c-73 69 -73 69 -73 39 0 -54 41 -114 260 -387
l214 -267 46 42 45 43 -43 -46 -43 -46 259 -324 c280 -350 286 -356 389 -366
110 -12 -23 -137 1949 1835 994 993 1830 1830 1857 1859 l50 53 -19 23 -19 22
23 -19 c22 -19 23 -19 36 0 24 32 39 101 32 145 -24 153 -172 237 -316 180z
m20 -96 c13 -14 21 -25 18 -25 -2 0 -15 11 -28 25 -13 14 -21 25 -18 25 2 0
15 -11 28 -25z m80 -80 c13 -14 21 -25 18 -25 -2 0 -15 11 -28 25 -13 14 -21
25 -18 25 2 0 15 -11 28 -25z m71 -72 c13 -16 12 -17 -3 -4 -10 7 -18 15 -18
17 0 8 8 3 21 -13z m40 -40 c13 -16 12 -17 -3 -4 -10 7 -18 15 -18 17 0 8 8 3
21 -13z m-4741 -2608 c19 -19 32 -35 29 -35 -3 0 -20 16 -39 35 -19 19 -32 35
-29 35 3 0 20 -16 39 -35z m80 -80 c19 -19 32 -35 29 -35 -3 0 -20 16 -39 35
-19 19 -32 35 -29 35 3 0 20 -16 39 -35z m80 -80 c19 -19 32 -35 29 -35 -3 0
-20 16 -39 35 -19 19 -32 35 -29 35 3 0 20 -16 39 -35z m80 -80 c19 -19 32
-35 29 -35 -3 0 -20 16 -39 35 -19 19 -32 35 -29 35 3 0 20 -16 39 -35z m280
-38 c0 -2 -17 -19 -37 -38 l-38 -34 34 38 c33 34 41 42 41 34z m-200 -42 c19
-19 32 -35 29 -35 -3 0 -20 16 -39 35 -19 19 -32 35 -29 35 3 0 20 -16 39 -35z
m120 -38 c0 -2 -15 -16 -32 -33 -18 -16 -30 -25 -25 -20 4 5 -1 19 -10 30 -18
21 -18 21 3 3 20 -16 22 -16 39 3 17 19 25 24 25 17z m70 -154 c0 -8 -9 0 -50
45 l-45 47 48 -45 c26 -24 47 -45 47 -47z m50 -48 c19 -19 32 -35 29 -35 -3 0
-20 16 -39 35 -19 19 -32 35 -29 35 3 0 20 -16 39 -35z m80 -80 c19 -19 32
-35 29 -35 -3 0 -20 16 -39 35 -19 19 -32 35 -29 35 3 0 20 -16 39 -35z m80
-80 c19 -19 32 -35 29 -35 -3 0 -20 16 -39 35 -19 19 -32 35 -29 35 3 0 20
-16 39 -35z m80 -80 c19 -19 32 -35 29 -35 -3 0 -20 16 -39 35 -19 19 -32 35
-29 35 3 0 20 -16 39 -35z m80 -80 c19 -19 32 -35 29 -35 -3 0 -20 16 -39 35
-19 19 -32 35 -29 35 3 0 20 -16 39 -35z m80 -80 c19 -19 32 -35 29 -35 -3 0
-20 16 -39 35 -19 19 -32 35 -29 35 3 0 20 -16 39 -35z m105 -105 c33 -33 57
-60 54 -60 -2 0 -31 27 -64 60 -33 33 -57 60 -54 60 2 0 31 -27 64 -60z"/>
<path d="M4080 8123 l0 -26 25 23 c14 13 25 25 25 27 0 2 -11 3 -25 3 -20 0
-25 -5 -25 -27z"/>
<path d="M4112 8117 l-32 -33 0 -172 0 -172 746 0 c593 0 744 3 738 13 -6 10
-4 10 7 0 10 -10 128 -13 521 -13 l508 0 0 205 0 205 -711 0 c-565 0 -709 -3
-703 -12 6 -10 4 -10 -7 0 -10 9 -129 12 -524 12 l-511 0 -32 -33z m1138 -42
c13 -14 21 -25 18 -25 -2 0 -15 11 -28 25 -13 14 -21 25 -18 25 2 0 15 -11 28
-25z m80 -80 c13 -14 21 -25 18 -25 -2 0 -15 11 -28 25 -13 14 -21 25 -18 25
2 0 15 -11 28 -25z m80 -80 c13 -14 21 -25 18 -25 -2 0 -15 11 -28 25 -13 14
-21 25 -18 25 2 0 15 -11 28 -25z m91 -92 c13 -16 12 -17 -3 -4 -10 7 -18 15
-18 17 0 8 8 3 21 -13z m40 -40 c13 -16 12 -17 -3 -4 -10 7 -18 15 -18 17 0 8
8 3 21 -13z"/>
<path d="M2520 7390 c-91 -83 -153 -112 -249 -118 -103 -5 -166 19 -271 105
l-81 66 -97 -29 c-331 -97 -549 -309 -643 -624 -21 -70 -23 -97 -27 -432 l-3
-358 1096 0 1097 0 -5 348 c-5 377 -9 415 -67 558 -72 180 -200 324 -372 418
-51 28 -295 127 -309 126 -2 -1 -33 -27 -69 -60z m-630 -431 c66 -41 175 -77
270 -90 142 -21 305 10 439 82 l73 39 44 -25 c101 -59 167 -149 199 -270 13
-50 23 -270 13 -280 -5 -5 -565 -8 -1040 -6 l-338 1 0 88 c0 177 41 289 142
392 53 53 116 98 140 100 4 0 30 -14 58 -31z"/>
<path d="M7430 6065 l-74 -74 25 -28 24 -28 -28 25 -28 24 -144 -144 -145
-145 0 -1920 0 -1920 -623 -623 -622 -622 -939 0 c-738 0 -942 -3 -954 -12
-13 -10 -14 -10 -8 -1 6 10 -319 13 -1610 13 -1435 0 -1620 2 -1641 15 -23 15
-23 17 -23 212 l0 197 -42 -39 -43 -40 43 45 42 46 0 340 c0 258 -3 343 -13
353 -9 11 -9 13 1 7 9 -6 12 284 12 1434 0 1150 -3 1440 -12 1434 -10 -6 -10
-4 -1 7 10 10 13 100 13 379 l0 365 -230 230 -230 230 0 -2606 c0 -1433 3
-2609 7 -2612 3 -4 16 1 27 10 16 14 15 11 -3 -9 l-24 -27 23 -72 c52 -159
174 -280 340 -336 53 -17 165 -18 2700 -21 l2645 -3 83 33 83 33 724 720 725
720 0 275 c-1 151 -1 282 -1 290 -1 8 0 892 0 1964 1 1072 0 1950 -2 1952 -2
2 -36 -30 -77 -71z m21 -172 c13 -16 12 -17 -3 -4 -10 7 -18 15 -18 17 0 8 8
3 21 -13z m-6841 -1296 c0 -2 -10 -12 -22 -23 l-23 -19 19 23 c18 21 26 27 26
19z m-80 -80 c0 -2 -10 -12 -22 -23 l-23 -19 19 23 c18 21 26 27 26 19z m-80
-80 c0 -2 -10 -12 -22 -23 l-23 -19 19 23 c18 21 26 27 26 19z m-80 -80 c0 -2
-10 -12 -22 -23 l-23 -19 19 23 c18 21 26 27 26 19z m-80 -80 c0 -2 -10 -12
-22 -23 l-23 -19 19 23 c18 21 26 27 26 19z m-50 -51 c0 -2 -8 -10 -17 -17
-16 -13 -17 -12 -4 4 13 16 21 21 21 13z m7260 -30 c0 -2 -8 -10 -17 -17 -16
-13 -17 -12 -4 4 13 16 21 21 21 13z m-40 -40 c0 -2 -8 -10 -17 -17 -16 -13
-17 -12 -4 4 13 16 21 21 21 13z m-40 -40 c0 -2 -8 -10 -17 -17 -16 -13 -17
-12 -4 4 13 16 21 21 21 13z m-40 -40 c0 -2 -8 -10 -17 -17 -16 -13 -17 -12
-4 4 13 16 21 21 21 13z m-40 -39 c0 -2 -12 -14 -27 -28 l-28 -24 24 28 c23
25 31 32 31 24z m55 -1697 c10 -11 16 -20 13 -20 -3 0 -13 9 -23 20 -10 11
-16 20 -13 20 3 0 13 -9 23 -20z m-7164 -197 c13 -16 12 -17 -3 -4 -10 7 -18
15 -18 17 0 8 8 3 21 -13z m44 -43 c10 -11 16 -20 13 -20 -3 0 -13 9 -23 20
-10 11 -16 20 -13 20 3 0 13 -9 23 -20z m80 -80 c10 -11 16 -20 13 -20 -3 0
-13 9 -23 20 -10 11 -16 20 -13 20 3 0 13 -9 23 -20z m80 -80 c10 -11 16 -20
13 -20 -3 0 -13 9 -23 20 -10 11 -16 20 -13 20 3 0 13 -9 23 -20z m80 -80 c10
-11 16 -20 13 -20 -3 0 -13 9 -23 20 -10 11 -16 20 -13 20 3 0 13 -9 23 -20z
m80 -80 c10 -11 16 -20 13 -20 -3 0 -13 9 -23 20 -10 11 -16 20 -13 20 3 0 13
-9 23 -20z m-45 -833 c0 -2 -17 -19 -37 -38 l-38 -34 34 38 c33 34 41 42 41
34z m-80 -80 c0 -2 -17 -19 -37 -38 l-38 -34 34 38 c33 34 41 42 41 34z m-80
-80 c0 -2 -17 -19 -37 -38 l-38 -34 34 38 c33 34 41 42 41 34z m-80 -80 c0 -2
-17 -19 -37 -38 l-38 -34 34 38 c33 34 41 42 41 34z m5290 -272 c85 -85 153
-155 150 -155 -3 0 -75 70 -160 155 -85 85 -153 155 -150 155 3 0 75 -70 160
-155z m-1700 142 c0 -2 -17 -19 -37 -38 l-38 -34 34 38 c33 34 41 42 41 34z
m-2025 -77 c10 -11 16 -20 13 -20 -3 0 -13 9 -23 20 -10 11 -16 20 -13 20 3 0
13 -9 23 -20z m1945 -3 c0 -2 -17 -19 -37 -38 l-38 -34 34 38 c33 34 41 42 41
34z m-1865 -77 c10 -11 16 -20 13 -20 -3 0 -13 9 -23 20 -10 11 -16 20 -13 20
3 0 13 -9 23 -20z m1785 -3 c0 -2 -17 -19 -37 -38 l-38 -34 34 38 c33 34 41
42 41 34z m-1730 -52 c13 -14 21 -25 18 -25 -2 0 -15 11 -28 25 -13 14 -21 25
-18 25 2 0 15 -11 28 -25z m1650 -28 c0 -2 -17 -19 -37 -38 l-38 -34 34 38
c33 34 41 42 41 34z m-80 -81 c0 -2 -8 -10 -17 -17 -16 -13 -17 -12 -4 4 13
16 21 21 21 13z"/>
<path d="M2158 3562 l-1058 -2 0 -200 0 -200 2749 0 2750 0 0 200 1 200 -1693
2 c-930 2 -2168 2 -2749 0z"/>
<path d="M1100 1985 l0 -205 137 0 c135 0 137 0 167 28 l31 27 -24 -27 -24
-28 1428 0 1429 0 -189 193 -190 192 195 -192 196 -193 1169 3 1170 2 3 203 2
202 -1375 0 c-1098 0 -1375 -3 -1369 -12 6 -10 4 -10 -7 0 -10 9 -231 12
-1033 12 l-1020 0 -61 -57 -60 -58 55 58 54 57 -342 0 -342 0 0 -205z m4400
192 c0 -2 -17 -19 -37 -38 l-38 -34 34 38 c33 34 41 42 41 34z m-80 -80 c0 -2
-17 -19 -37 -38 l-38 -34 34 38 c33 34 41 42 41 34z m-3750 -30 c0 -2 -17 -19
-37 -38 l-38 -34 34 38 c33 34 41 42 41 34z m3670 -50 c0 -2 -17 -19 -37 -38
l-38 -34 34 38 c33 34 41 42 41 34z m-3750 -30 c0 -2 -17 -19 -37 -38 l-38
-34 34 38 c33 34 41 42 41 34z m3670 -50 c0 -2 -17 -19 -37 -38 l-38 -34 34
38 c33 34 41 42 41 34z m-3750 -30 c0 -2 -17 -19 -37 -38 l-38 -34 34 38 c33
34 41 42 41 34z m3670 -50 c0 -2 -15 -16 -32 -33 l-33 -29 29 33 c28 30 36 37
36 29z"/>
</g>
</svg>
