<svg height="512" viewBox="0 0 64 64" width="512" xmlns="http://www.w3.org/2000/svg"><g id="Check_List-Paper-Configuration-Gear-Setting" data-name="Check List-Paper-Configuration-Gear-Setting"><path d="m47 11v46a3.983 3.983 0 0 1 -1.69 3.26 3.819 3.819 0 0 1 -1.34.62 3.906 3.906 0 0 1 -.97.12h-36a4 4 0 0 1 -4-4v-50a4 4 0 0 1 4-4h32v6a2.006 2.006 0 0 0 2 2z" fill="#e6e7e8"/><path d="m47 33v24a3.983 3.983 0 0 1 -1.69 3.26l-.15-.61a11.92 11.92 0 0 1 -3.39-1.41l-2.96 1.78-2.83-2.83 1.78-2.96a11.92 11.92 0 0 1 -1.41-3.39l-3.35-.84v-4l3.35-.84a11.92 11.92 0 0 1 1.41-3.39l-1.78-2.96 2.83-2.83 2.96 1.78a11.92 11.92 0 0 1 3.39-1.41l.84-3.35z" fill="#d8d7da"/><path d="m57.65 48.84a11.92 11.92 0 0 1 -1.41 3.39l1.78 2.96-2.83 2.83-2.96-1.78a11.92 11.92 0 0 1 -3.39 1.41l-.84 3.35h-4l-.03-.12-.81-3.23a11.92 11.92 0 0 1 -3.39-1.41l-2.96 1.78-2.83-2.83 1.78-2.96a11.92 11.92 0 0 1 -1.41-3.39l-3.35-.84v-4l3.35-.84a11.92 11.92 0 0 1 1.41-3.39l-1.78-2.96 2.83-2.83 2.96 1.78a11.92 11.92 0 0 1 3.39-1.41l.84-3.35h4l.84 3.35a11.92 11.92 0 0 1 3.39 1.41l2.96-1.78 2.83 2.83-1.78 2.96a11.92 11.92 0 0 1 1.41 3.39l3.35.84v4z" fill="#ffa733"/><path d="m54 46a8.032 8.032 0 0 1 -7 7.94 8.262 8.262 0 0 1 -1 .06 8 8 0 0 1 0-16 8.262 8.262 0 0 1 1 .06 8 8 0 0 1 7 7.94z" fill="#ffd422"/><path d="m49.54 51.46a5 5 0 0 0 -2.54-1.36 4.712 4.712 0 0 0 -1-.1 4.963 4.963 0 0 0 -4.41 2.67 7.931 7.931 0 0 0 4.41 1.33 8.262 8.262 0 0 0 1-.06 7.968 7.968 0 0 0 3.42-1.28 4.949 4.949 0 0 0 -.88-1.2z" fill="#3d9ae2"/><path d="m47.83 46a1.968 1.968 0 0 1 -.83-.18 2.017 2.017 0 0 1 -.59-.41l-.41-.41-.41.41a2.006 2.006 0 0 1 -1.42.59h-1.17v1a3 3 0 0 0 3 3 2.772 2.772 0 0 0 1-.18 2.838 2.838 0 0 0 1.12-.7 2.993 2.993 0 0 0 .88-2.12v-1z" fill="#ffc477"/><path d="m47 42.18a2.772 2.772 0 0 0 -1-.18 3 3 0 0 0 -3 3v1h1.17a2.006 2.006 0 0 0 1.42-.59l.41-.41.41.41a2.017 2.017 0 0 0 .59.41 1.968 1.968 0 0 0 .83.18h1.17v-1a2.968 2.968 0 0 0 -2-2.82z" fill="#57565c"/><path d="m47 11h-6a2.006 2.006 0 0 1 -2-2v-6z" fill="#bcbec0"/><g fill="#ffd422"><path d="m16.28 20.72a4 4 0 1 1 -3.28-1.72 4.009 4.009 0 0 1 3.28 1.72z"/><path d="m16.28 34.72a4 4 0 1 1 -3.28-1.72 4.009 4.009 0 0 1 3.28 1.72z"/><path d="m16.28 48.72a4 4 0 1 1 -3.28-1.72 4.009 4.009 0 0 1 3.28 1.72z"/></g><path d="m4 57v-50a3 3 0 0 1 3-3h31v5a3 3 0 0 0 3 3h5v16h2v-17a1 1 0 0 0 -.293-.707l-8-8a1 1 0 0 0 -.707-.293h-32a5.006 5.006 0 0 0 -5 5v50a5.006 5.006 0 0 0 5 5h34v-2h-34a3 3 0 0 1 -3-3zm36-48v-3.586l4.586 4.586h-3.586a1 1 0 0 1 -1-1z"/><path d="m8 8h2v2h-2z"/><path d="m12 8h6v2h-6z"/><path d="m8 12h10v2h-10z"/><path d="m46 37a9 9 0 1 0 9 9 9.01 9.01 0 0 0 -9-9zm-2.964 15.332a3.959 3.959 0 0 1 2.964-1.332 4.009 4.009 0 0 1 2.832 1.167c.05.049.092.109.139.162a6.911 6.911 0 0 1 -5.935 0zm.964-5.332h.172a2.973 2.973 0 0 0 1.828-.621 2.973 2.973 0 0 0 1.828.621h.172a2 2 0 0 1 -4 0zm0-2a2 2 0 0 1 4 0h-.172a1.009 1.009 0 0 1 -.707-.293l-.414-.414a1 1 0 0 0 -1.414 0l-.414.414a1.009 1.009 0 0 1 -.707.293zm6.647 6.22a5.805 5.805 0 0 0 -.4-.471 6.071 6.071 0 0 0 -1.348-1 3.977 3.977 0 0 0 1.101-2.749v-2a4 4 0 0 0 -8 0v2a3.978 3.978 0 0 0 1.112 2.753 5.923 5.923 0 0 0 -1.751 1.474 7 7 0 1 1 9.286-.007z"/><path d="m61.242 43.03-2.78-.7a12.906 12.906 0 0 0 -1.06-2.553l1.476-2.459a1 1 0 0 0 -.15-1.221l-2.828-2.825a1 1 0 0 0 -1.221-.15l-2.46 1.478a12.883 12.883 0 0 0 -2.554-1.058l-.7-2.782a1 1 0 0 0 -.965-.76h-4a1 1 0 0 0 -.97.757l-.7 2.782a12.883 12.883 0 0 0 -2.549 1.061l-2.459-1.475a1 1 0 0 0 -1.221.15l-2.829 2.825a1 1 0 0 0 -.15 1.221l1.478 2.46a12.906 12.906 0 0 0 -1.06 2.553l-2.78.7a1 1 0 0 0 -.76.966v4a1 1 0 0 0 .758.97l2.78.7a12.906 12.906 0 0 0 1.06 2.553l-1.476 2.459a1 1 0 0 0 .15 1.221l2.828 2.825a1 1 0 0 0 1.221.15l2.46-1.478a12.883 12.883 0 0 0 2.554 1.058l.7 2.782a1 1 0 0 0 .965.76h4a1 1 0 0 0 .97-.757l.7-2.782a12.883 12.883 0 0 0 2.549-1.061l2.459 1.475a1 1 0 0 0 1.221-.15l2.829-2.825a1 1 0 0 0 .15-1.221l-1.478-2.46a12.906 12.906 0 0 0 1.06-2.553l2.78-.7a1 1 0 0 0 .76-.966v-4a1 1 0 0 0 -.758-.97zm-1.242 4.189-2.594.649a1 1 0 0 0 -.729.734 10.93 10.93 0 0 1 -1.288 3.106 1 1 0 0 0 0 1.035l1.377 2.295-1.725 1.724-2.294-1.377a1 1 0 0 0 -1.035 0 10.914 10.914 0 0 1 -3.112 1.292 1 1 0 0 0 -.734.729l-.647 2.594h-2.438l-.649-2.594a1 1 0 0 0 -.734-.729 10.914 10.914 0 0 1 -3.106-1.288 1 1 0 0 0 -1.035 0l-2.294 1.377-1.725-1.724 1.377-2.295a1 1 0 0 0 0-1.035 10.93 10.93 0 0 1 -1.292-3.112 1 1 0 0 0 -.729-.734l-2.594-.647v-2.438l2.594-.649a1 1 0 0 0 .729-.734 10.93 10.93 0 0 1 1.288-3.106 1 1 0 0 0 0-1.035l-1.377-2.295 1.725-1.724 2.294 1.377a1 1 0 0 0 1.035 0 10.914 10.914 0 0 1 3.112-1.292 1 1 0 0 0 .734-.729l.647-2.594h2.438l.649 2.594a1 1 0 0 0 .734.729 10.914 10.914 0 0 1 3.106 1.288 1 1 0 0 0 1.035 0l2.294-1.377 1.725 1.724-1.377 2.295a1 1 0 0 0 0 1.035 10.93 10.93 0 0 1 1.292 3.112 1 1 0 0 0 .729.734l2.594.647z"/><path d="m13 28a5.006 5.006 0 0 0 5-5h-2a3 3 0 1 1 -2.249-2.9l.5-1.938a5 5 0 1 0 -1.251 9.838z"/><path d="m13 42a5.006 5.006 0 0 0 5-5h-2a3 3 0 1 1 -2.249-2.9l.5-1.938a5 5 0 1 0 -1.251 9.838z"/><path d="m13 56a5.006 5.006 0 0 0 5-5h-2a3 3 0 1 1 -2.249-2.9l.5-1.938a5 5 0 1 0 -1.251 9.838z"/><path d="m11.964 20.5h7.071v2h-7.071z" transform="matrix(.707 -.707 .707 .707 -10.663 17.257)"/><path d="m22 20h12v2h-12z"/><path d="m22 24h12v2h-12z"/><path d="m11.964 34.5h7.071v2h-7.071z" transform="matrix(.707 -.707 .707 .707 -20.562 21.358)"/><path d="m22 34h10v2h-10z"/><path d="m22 38h8v2h-8z"/><path d="m11.964 48.5h7.071v2h-7.071z" transform="matrix(.707 -.707 .707 .707 -30.462 25.458)"/><path d="m22 48h6v2h-6z"/><path d="m22 52h8v2h-8z"/></g></svg>