<svg height="512pt" viewBox="0 0 512 512" width="512pt" xmlns="http://www.w3.org/2000/svg"><path d="m393.871094.00390625h-289.25c-10.753906 0-19.472656 8.71874975-19.472656 19.47265575v370.839844h-52.421876c-18.074218 0-32.726562 14.65625-32.726562 32.730469v46.632813c0 22.480468 18.03125 42.3125 42.878906 42.3125 0 0 322.59375.003906 322.734375.003906 26.359375 0 47.730469-21.371094 47.730469-47.734375v-444.785157c0-10.753906-8.71875-19.47265575-19.472656-19.47265575zm0 0" fill="#bacbec"/><path d="m32.726562 390.320312h52.464844v79.359376c0 23.273437-19.039062 42.3125-42.3125 42.3125h-.566406c-23.269531 0-42.3125-19.039063-42.3125-42.3125v-46.632813c0-18.074219 14.652344-32.726563 32.726562-32.726563zm0 0" fill="#6990d7"/><path d="m413.339844 19.472656v444.792969c0 26.363281-21.363282 47.734375-47.722656 47.734375h-320.167969v-.082031c22.097656-1.328125 39.757812-19.828125 39.757812-42.226563l-.054687-79.375v-370.84375c0-10.746094 8.714844-19.472656 19.472656-19.472656h289.242188c10.757812 0 19.472656 8.726562 19.472656 19.472656zm0 0" fill="#91aee2"/><path d="m413.339844 19.472656v444.792969c0 26.363281-21.363282 47.734375-47.722656 47.734375h-284.976563v-.082031c22.097656-1.328125 39.746094-19.828125 39.746094-42.226563l-.054688-79.375v-370.84375c0-10.746094 8.726563-19.472656 19.472657-19.472656h254.0625c10.757812 0 19.472656 8.726562 19.472656 19.472656zm0 0" fill="#bacbec"/><path d="m476.074219 468.9375v2.476562c0 22.410157-18.167969 40.585938-40.585938 40.585938h-63.035156c-22.410156 0-40.585937-18.175781-40.585937-40.585938v-2.476562zm0 0" fill="#f29500"/><path d="m476.074219 468.9375v2.476562c0 22.410157-18.167969 40.585938-40.585938 40.585938h-27.203125c-22.417968 0-40.582031-18.175781-40.582031-40.585938v-2.476562zm0 0" fill="#ffa90b"/><path d="m283.695312 70.105469c0 19.949219-16.171874 36.121093-36.121093 36.121093s-36.117188-16.171874-36.117188-36.121093 16.167969-36.117188 36.117188-36.117188 36.121093 16.167969 36.121093 36.117188zm0 0" fill="#2e5aac"/><g fill="#6990d7"><path d="m317.261719 77.886719h36.484375c4.296875 0 7.78125-3.480469 7.78125-7.78125 0-4.296875-3.484375-7.78125-7.78125-7.78125h-36.484375c-4.296875 0-7.78125 3.484375-7.78125 7.78125 0 4.300781 3.484375 7.78125 7.78125 7.78125zm0 0"/><path d="m141.40625 77.886719h36.484375c4.296875 0 7.78125-3.480469 7.78125-7.78125 0-4.296875-3.484375-7.78125-7.78125-7.78125h-36.484375c-4.296875 0-7.78125 3.484375-7.78125 7.78125 0 4.300781 3.480469 7.78125 7.78125 7.78125zm0 0"/><path d="m134.835938 151.738281h225.476562c4.296875 0 7.78125-3.484375 7.78125-7.78125 0-4.300781-3.484375-7.78125-7.78125-7.78125h-225.476562c-4.296876 0-7.78125 3.480469-7.78125 7.78125 0 4.296875 3.484374 7.78125 7.78125 7.78125zm0 0"/><path d="m360.3125 172.484375h-225.476562c-4.296876 0-7.78125 3.484375-7.78125 7.78125 0 4.300781 3.484374 7.78125 7.78125 7.78125h225.476562c4.296875 0 7.78125-3.480469 7.78125-7.78125 0-4.296875-3.484375-7.78125-7.78125-7.78125zm0 0"/><path d="m134.835938 224.359375h179.136718c4.296875 0 7.78125-3.484375 7.78125-7.78125 0-4.300781-3.484375-7.78125-7.78125-7.78125h-179.136718c-4.296876 0-7.78125 3.480469-7.78125 7.78125 0 4.296875 3.484374 7.78125 7.78125 7.78125zm0 0"/><path d="m134.835938 260.667969h166.6875c4.296874 0 7.78125-3.480469 7.78125-7.78125 0-4.296875-3.484376-7.78125-7.78125-7.78125h-166.6875c-4.296876 0-7.78125 3.484375-7.78125 7.78125 0 4.300781 3.484374 7.78125 7.78125 7.78125zm0 0"/><path d="m134.835938 296.980469h166.6875c4.296874 0 7.78125-3.484375 7.78125-7.78125 0-4.300781-3.484376-7.78125-7.78125-7.78125h-166.6875c-4.296876 0-7.78125 3.480469-7.78125 7.78125 0 4.296875 3.484374 7.78125 7.78125 7.78125zm0 0"/><path d="m134.835938 333.289062h171.875c4.296874 0 7.78125-3.480468 7.78125-7.78125 0-4.296874-3.484376-7.78125-7.78125-7.78125h-171.875c-4.296876 0-7.78125 3.484376-7.78125 7.78125 0 4.300782 3.484374 7.78125 7.78125 7.78125zm0 0"/><path d="m322.273438 354.039062h-187.4375c-4.296876 0-7.78125 3.480469-7.78125 7.78125 0 4.296876 3.484374 7.78125 7.78125 7.78125h187.4375c4.296874 0 7.78125-3.484374 7.78125-7.78125 0-4.300781-3.484376-7.78125-7.78125-7.78125zm0 0"/><path d="m199.851562 426.660156h-65.015624c-4.296876 0-7.78125 3.480469-7.78125 7.78125 0 4.296875 3.484374 7.78125 7.78125 7.78125h65.015624c4.300782 0 7.78125-3.484375 7.78125-7.78125 0-4.300781-3.480468-7.78125-7.78125-7.78125zm0 0"/></g><path d="m474.144531 280.648438c-.632812 3.734374-42.835937 161.644531-45.535156 174.863281h-50.773437c-4.800782-24.328125-38.984376-149.539063-43.707032-173.492188-8.828125-44.839843 25.117188-87.28125 72.425782-85.683593 5.4375.1875 10.675781.976562 15.675781 2.304687 35.011719 9.285156 58.28125 44.816406 51.914062 82.007813zm0 0" fill="#ae583e"/><path d="m474.144531 280.648438c-.632812 3.734374-42.835937 161.644531-45.535156 174.863281h-14.054687c-4.804688-24.328125-38.988282-149.539063-43.710938-173.492188-7.449219-37.847656 15.574219-73.992187 51.386719-83.378906 35.011719 9.285156 58.28125 44.816406 51.914062 82.007813zm0 0" fill="#c0694e"/><path d="m511.90625 432.582031v12.898438c0 14.316406-11.609375 25.933593-25.9375 25.933593h-163.996094c-14.328125 0-25.9375-11.617187-25.9375-25.933593v-12.898438c0-14.324219 11.609375-25.933593 25.9375-25.933593h163.996094c14.328125 0 25.9375 11.609374 25.9375 25.933593zm0 0" fill="#954c35"/><path d="m511.90625 432.582031v9.640625h-155.917969c-14.328125 0-25.933593-11.609375-25.933593-25.9375v-9.636718h155.914062c14.328125 0 25.9375 11.609374 25.9375 25.933593zm0 0" fill="#ae583e"/></svg>