<svg id="Capa_1" enable-background="new 0 0 512 512" height="512" viewBox="0 0 512 512" width="512" xmlns="http://www.w3.org/2000/svg"><g><g><g><path d="m382.882 22.515h-22.434c0-8.291-6.721-15.015-15.015-15.015h-261.152c-8.292 0-15.015 6.722-15.015 15.015v399.055c0 8.293 6.723 15.015 15.015 15.015 284.672 0 262.485.876 267.388-1.369 3.799-1.74 6.744-5.014 8.046-9.029h23.167c0-2.884 0-398.045 0-403.672z" fill="#60b7ff"/></g><path d="m376.646 7.5h-31.213c8.293 0 15.015 6.723 15.015 15.015v399.055c0 8.293-6.722 15.015-15.015 15.015h31.213c8.293 0 15.015-6.723 15.015-15.015v-399.055c0-8.292-6.723-15.015-15.015-15.015z" fill="#26a6fe"/><path d="m391.661 110.358-69.352-69.352h-208.793c-11.462 0-20.755 9.292-20.755 20.755v371.094c0 1.275.132 2.518.353 3.73h283.532c8.293 0 15.015-6.723 15.015-15.015z" fill="#26a6fe"/><path d="m416.257 114.223-35.192-21.973-30.382-51.244h-208.792c-11.462 0-20.755 9.292-20.755 20.755v371.094c0 11.463 9.292 20.755 20.755 20.755h273.962c.136 0 .268-.018.403-.02v-339.367z" fill="#eaf6ff"/><path d="m436.608 126.93-31.212-19.489v325.413c0 11.462-9.292 20.755-20.755 20.755h31.213c11.462 0 20.755-9.292 20.755-20.755v-305.924z" fill="#d8ecfe"/><path d="m371.439 126.93h65.17l-85.925-85.925v65.17c0 11.463 9.292 20.755 20.755 20.755z" fill="#b3dafe"/><path d="m468.607 256h-16.271c-3.484-6.024-9.995-10.062-17.338-10.062-10.298 0-237.549 0-252.038 0l-26.354-43.605h-15.976c-2.806-3.752-7.24-6.025-12.017-6.025h-87.829c-8.293 0-15.015 6.723-15.015 15.015v273.156c0 11.057 8.963 20.02 20.02 20.02h389.211c3.307 0 6.668-.856 9.641-2.5h.039c2.523-1.397 4.705-3.329 6.411-5.633h17.516z" fill="#fdb441"/><g fill="#fea613"><path d="m141.918 204.363 21.754 41.576h31.213l-21.754-41.576c-2.591-4.951-7.716-8.054-13.304-8.054h-31.213c5.588 0 10.714 3.102 13.304 8.054z"/><path d="m466.212 245.938h-31.212c11.057 0 20.02 8.963 20.02 20.02v218.522c0 11.057-8.963 20.02-20.02 20.02h31.212c11.057 0 20.02-8.963 20.02-20.02v-218.522c0-11.057-8.964-20.02-20.02-20.02z"/></g></g><g><path d="m398.847 497h-353.058c-6.904 0-12.521-5.617-12.521-12.52v-203.084c0-4.142-3.357-7.5-7.5-7.5s-7.5 3.358-7.5 7.5v203.084c0 15.175 12.346 27.52 27.521 27.52h353.058c4.143 0 7.5-3.358 7.5-7.5s-3.358-7.5-7.5-7.5z"/><path d="m188.239 249.415c1.294 2.473 3.854 4.023 6.646 4.023h271.327c6.903 0 12.52 5.617 12.52 12.521v218.521c0 6.903-5.616 12.52-12.52 12.52h-32.365c-4.143 0-7.5 3.358-7.5 7.5s3.357 7.5 7.5 7.5h32.365c15.175 0 27.52-12.345 27.52-27.52v-218.522c0-15.175-12.345-27.521-27.52-27.521h-22.104v-111.506c0-1.912-.745-3.852-2.196-5.303l-42.751-42.751v-56.362c0-12.415-10.1-22.515-22.515-22.515h-292.365c-12.415 0-22.514 10.1-22.514 22.515v166.293h-20.984c-12.415 0-22.515 10.1-22.515 22.515v34.961c0 4.142 3.357 7.5 7.5 7.5s7.5-3.358 7.5-7.5v-34.961c0-4.144 3.371-7.515 7.515-7.515h119.044c2.806 0 5.357 1.544 6.658 4.031 9.921 18.96 12.123 23.169 21.754 41.576zm169.945-190.303c6.932 6.932 50.953 50.953 60.318 60.318h-47.063c-7.309 0-13.255-5.946-13.255-13.255zm-281.417-36.597c0-4.144 3.371-7.515 7.515-7.515h292.364c4.145 0 7.516 3.371 7.516 7.515v41.361l-28.174-28.174c-1.328-1.328-3.242-2.197-5.304-2.197h-208.792c-15.58 0-28.255 12.675-28.255 28.255v127.048h-36.87zm122.658 215.923-7.75-14.812h195.562c4.143 0 7.5-3.358 7.5-7.5s-3.357-7.5-7.5-7.5h-203.41l-4.05-7.741c-3.897-7.449-11.542-12.077-19.949-12.077h-31.19v-127.047c0-7.309 5.946-13.255 13.255-13.255h201.292v57.67c0 15.58 12.675 28.255 28.255 28.255h57.67v104.007z"/><path d="m387.237 158.956h-215.85c-4.143 0-7.5 3.358-7.5 7.5s3.357 7.5 7.5 7.5h215.85c4.143 0 7.5-3.358 7.5-7.5s-3.357-7.5-7.5-7.5z"/></g></g></svg>