<svg id="Layer_3" enable-background="new 0 0 64 64" height="512" viewBox="0 0 64 64" width="512" xmlns="http://www.w3.org/2000/svg"><g><path d="m40 62v-56h-38v48l8 8z" fill="#ced6dd"/><path d="m2 49.971c17.762-.61 32-17.37 32-37.971 0-2.042-.144-4.045-.413-6h-31.587z" fill="#e2e6eb"/><path d="m2 54h8v8z" fill="#8b909f"/><path d="m40 46h2v4h2v-48h-38v4h34z" fill="#8b909f"/><path d="m62 46v16h-28v-16h8v4h12v-4z" fill="#b17e74"/><path d="m53.521 50h-11.521v-4h-8v13c8.049 0 15.167-3.553 19.521-9z" fill="#c19890"/><path d="m46 46v-9h-3l5-7 5 7h-3v9z" fill="#f7d881"/><g><path d="m5 21h32v2h-32z" fill="#8b909f"/></g><g><path d="m5 25h32v2h-32z" fill="#8b909f"/></g><g><path d="m5 13h32v2h-32z" fill="#8b909f"/></g><g><path d="m5 17h32v2h-32z" fill="#8b909f"/></g><g><path d="m5 29h32v2h-32z" fill="#8b909f"/></g><g><path d="m5 33h32v2h-32z" fill="#8b909f"/></g><g><path d="m5 37h32v2h-32z" fill="#8b909f"/></g><g><path d="m5 41h32v2h-32z" fill="#8b909f"/></g><g><path d="m5 45h26v2h-26z" fill="#8b909f"/></g><g><path d="m5 49h26v2h-26z" fill="#8b909f"/></g></g></svg>