<?xml version="1.0" standalone="no"?>
<!DOCTYPE svg PUBLIC "-//W3C//DTD SVG 20010904//EN"
 "http://www.w3.org/TR/2001/REC-SVG-20010904/DTD/svg10.dtd">
<svg version="1.0" xmlns="http://www.w3.org/2000/svg"
 width="225.000000pt" height="225.000000pt" viewBox="0 0 225.000000 225.000000"
 preserveAspectRatio="xMidYMid meet">
<metadata>
Created by potrace 1.16, written by Peter Selinger 2001-2019
</metadata>
<g transform="translate(0.000000,225.000000) scale(0.100000,-0.100000)"
fill="#000000" stroke="none">
<path d="M158 2240 c-52 -16 -98 -52 -126 -98 l-27 -47 0 -970 0 -970 28 -47
c18 -31 44 -57 75 -75 l47 -28 738 -3 737 -2 0 34 c0 30 -4 35 -30 41 -122 27
-150 196 -44 266 16 10 39 19 51 19 l23 0 2 242 3 242 217 54 218 54 2 215 3
215 69 18 c96 24 124 61 95 124 -7 14 -19 28 -28 32 -9 4 -142 37 -296 74
l-280 66 -3 277 -2 277 -723 -1 c-397 0 -734 -4 -749 -9z m1400 -302 l-3 -242
-55 -13 c-397 -92 -497 -116 -512 -124 -39 -21 -48 -50 -48 -151 l0 -98 -270
0 -270 0 0 -40 0 -40 270 0 270 0 0 -35 c0 -27 -8 -42 -32 -64 l-33 -29 -3
-151 -3 -151 110 0 111 0 0 130 c0 140 -11 189 -49 210 -20 10 -21 19 -21 135
0 139 -3 135 73 114 l37 -10 0 -214 0 -215 28 -7 c15 -3 110 -27 212 -53 l185
-46 3 -207 2 -207 -652 2 -653 3 -3 873 -2 872 655 0 655 0 -2 -242z m-1378
-635 l0 -868 -55 -26 -55 -25 0 833 c0 681 2 840 14 866 13 32 68 87 87 87 5
0 9 -344 9 -867z m1707 262 c153 -36 282 -70 287 -75 5 -5 -1 -11 -15 -15 -13
-3 -145 -34 -293 -69 l-269 -64 -286 68 c-157 37 -286 71 -288 77 -2 5 49 22
114 38 65 15 188 44 273 65 85 21 165 38 177 39 13 1 148 -28 300 -64z m-480
-250 l190 -45 189 45 c104 25 195 45 202 45 9 0 12 -28 12 -105 l0 -104 -35
-7 c-42 -8 -48 -15 -39 -50 6 -23 10 -26 41 -21 34 6 34 6 31 -31 l-3 -36
-197 -49 -198 -49 -197 49 -198 49 -3 38 c-3 33 -1 37 15 32 10 -3 100 -26
200 -51 l182 -45 130 32 c129 32 130 33 124 58 -3 14 -9 29 -13 33 -4 4 -59
-5 -123 -21 l-117 -30 -200 50 -200 50 0 104 c0 57 4 104 9 104 4 0 93 -20
198 -45z m-397 -244 c5 -11 10 -60 10 -110 l0 -91 -40 0 -40 0 0 98 c0 63 4
102 12 110 18 18 46 14 58 -7z m438 -741 c-35 -48 -37 -150 -5 -212 l24 -48
-635 0 c-621 0 -637 0 -678 21 -32 15 -48 32 -65 65 -34 72 -14 143 54 184 31
19 55 20 680 20 l648 0 -23 -30z"/>
<path d="M400 1090 l0 -40 201 0 200 0 -3 38 -3 37 -197 3 -198 2 0 -40z"/>
<path d="M400 945 l0 -35 200 0 200 0 0 35 0 35 -200 0 -200 0 0 -35z"/>
<path d="M400 800 l0 -40 201 0 200 0 -3 38 -3 37 -197 3 -198 2 0 -40z"/>
<path d="M400 655 l0 -35 270 0 270 0 0 35 0 35 -270 0 -270 0 0 -35z"/>
<path d="M1020 655 l0 -35 195 0 195 0 0 35 0 35 -195 0 -195 0 0 -35z"/>
<path d="M180 215 l0 -35 510 0 510 0 0 35 0 35 -510 0 -510 0 0 -35z"/>
</g>
</svg>
