<svg height="443pt" viewBox="-63 0 443 443.179" width="443pt" xmlns="http://www.w3.org/2000/svg"><path d="m158.925781 209.589844c-32.695312 0-59.199219 26.503906-59.199219 59.199218 0 32.695313 26.503907 59.199219 59.199219 59.199219 32.695313 0 59.203125-26.503906 59.203125-59.199219-.035156-32.683593-26.519531-59.164062-59.203125-59.199218zm0 0"/><path d="m110.617188 331.472656v111.707032l41.808593-35.777344c3.742188-3.199219 9.257813-3.199219 13 0l41.8125 35.777344v-111.707032c-28.449219 22.011719-68.175781 22.011719-96.625 0zm0 0"/><path d="m209.519531 67.421875v-67.421875h-189.429687c-11.039063.0117188-19.988282 8.960938-20.0000002 20v344.273438c.0117182 11.039062 8.9609372 19.984374 20.0000002 20h70.527344v-75.492188c-19.519532-33.269531-12.230469-75.765625 17.261718-100.628906 29.492188-24.863282 72.605469-24.863282 102.097656 0 29.492188 24.863281 36.78125 67.359375 17.261719 100.628906v75.492188h70.527344c11.039063-.015626 19.988281-8.960938 20-20v-266.851563h-78.246094c-16.5625-.019531-29.980469-13.441406-30-30zm0 0"/><path d="m239.519531 77.421875h61.882813l-71.882813-65.023437v55.023437c.007813 5.519531 4.480469 9.992187 10 10zm0 0"/></svg>